{"glyphs":{"0":{"ha":1239,"x_min":43,"x_max":1204,"o":"m 629 -20 q 451 2 537 -20 q 291 69 365 24 q 162 176 217 114 q 75 323 106 238 q 43 507 43 409 q 87 726 43 627 q 210 890 132 824 q 397 991 289 956 q 633 1027 505 1027 q 867 988 760 1027 q 1048 881 975 949 q 1163 718 1122 812 q 1204 514 1204 623 q 1159 300 1204 400 q 1037 131 1114 201 q 853 21 960 61 q 629 -20 747 -20 m 620 135 q 663 152 644 135 q 694 199 682 169 q 715 266 707 230 q 728 347 724 302 q 733 429 732 391 q 735 509 735 467 q 623 870 735 870 q 578 855 598 870 q 547 811 559 840 q 526 749 534 782 q 513 672 517 715 q 508 591 509 628 q 507 509 507 554 q 511 384 507 443 q 527 266 515 326 q 562 170 538 205 q 620 135 586 135 z "},"1":{"ha":674,"x_min":19,"x_max":652,"o":"m 160 376 l 160 739 q 145 770 160 760 q 110 783 131 781 q 69 788 90 785 q 34 802 48 790 q 19 838 19 814 q 38 942 19 881 q 79 1019 56 1004 q 304 1010 218 1010 q 420 1018 358 1010 q 496 1028 482 1027 q 543 978 543 1028 l 543 390 q 545 327 543 353 q 552 269 547 300 q 569 219 557 237 q 600 199 581 201 q 619 196 612 197 q 634 189 625 194 q 648 176 644 184 q 652 154 652 167 q 638 49 652 103 q 599 -18 624 -5 q 382 0 500 0 q 105 -18 224 0 q 66 49 80 -5 q 52 154 52 103 q 56 176 52 167 q 70 189 60 184 q 85 196 79 194 q 104 199 92 197 q 133 217 121 201 q 151 259 145 232 q 158 313 156 287 q 160 376 160 340 z "},"2":{"ha":1015,"x_min":25,"x_max":993,"o":"m 123 987 q 302 1016 188 1005 q 544 1027 416 1027 q 660 1020 604 1027 q 770 995 715 1013 q 864 952 824 978 q 929 885 904 926 q 954 793 954 844 q 932 677 954 734 q 879 577 910 620 q 799 487 847 534 q 710 409 751 440 q 616 335 669 377 q 533 268 562 294 l 566 268 q 611 269 592 268 q 662 277 629 270 q 719 295 694 283 q 768 332 743 307 q 809 390 793 356 q 900 413 862 413 q 925 410 911 413 q 956 399 940 406 q 982 379 971 393 q 993 348 993 366 q 955 194 993 298 q 890 40 917 89 q 359 -1 833 -1 q 218 -1 304 -1 q 108 0 132 0 q 60 45 85 8 q 33 117 36 82 q 42 143 34 127 q 66 181 50 159 q 99 221 83 203 q 141 270 114 240 q 184 317 168 299 q 232 367 201 335 q 275 412 262 399 q 431 609 368 511 q 494 783 494 707 q 435 876 494 876 q 358 846 404 876 q 273 780 312 817 q 205 711 234 742 q 174 674 177 681 q 79 696 133 674 q 25 743 25 719 q 56 893 25 823 q 123 987 86 963 z "},"3":{"ha":1053,"x_min":31,"x_max":1023,"o":"m 178 8 q 80 94 130 32 q 31 206 31 157 q 78 277 31 243 q 169 312 126 312 q 193 296 173 312 q 239 262 213 281 q 316 229 266 244 q 422 213 366 213 q 597 337 597 213 q 562 428 597 391 q 481 469 528 465 q 418 471 440 471 q 353 469 395 471 q 298 467 312 467 q 275 488 283 469 q 267 556 267 507 q 304 644 267 627 q 343 642 324 642 q 511 675 458 643 q 564 762 564 707 q 534 840 564 808 q 464 871 505 871 q 387 853 422 871 q 327 809 351 835 q 284 757 303 783 q 248 713 264 731 q 219 694 232 694 q 115 719 159 694 q 71 763 71 743 q 126 936 71 860 q 248 1019 182 1013 q 556 1027 328 1027 q 688 1014 629 1027 q 787 980 747 1002 q 852 929 826 958 q 890 868 879 900 q 902 801 902 836 q 860 681 902 736 q 753 607 819 625 q 890 558 827 601 q 988 455 953 515 q 1023 335 1023 395 q 983 179 1023 248 q 874 68 943 111 q 714 4 804 26 q 517 -18 623 -18 q 178 8 361 -18 z "},"4":{"ha":1165,"x_min":31,"x_max":1136,"o":"m 489 566 q 490 715 490 600 l 490 727 q 492 836 490 812 q 478 824 486 833 q 453 794 469 814 q 425 761 436 774 q 314 600 361 687 q 306 579 306 585 q 331 567 306 570 q 410 564 355 564 q 489 566 465 564 m 498 336 q 417 335 477 336 q 336 334 356 334 l 317 334 q 225 335 258 334 q 152 341 193 336 q 90 359 110 347 q 47 440 63 385 q 31 519 31 496 q 39 551 31 533 q 100 644 66 598 q 175 736 134 690 q 249 815 216 781 q 333 900 282 850 q 413 980 385 951 q 463 1001 430 994 q 519 1008 495 1008 q 594 1009 543 1009 l 812 1010 q 895 960 895 1010 q 882 645 882 776 l 882 583 q 894 569 882 569 l 938 569 q 1010 572 962 569 q 1079 576 1059 576 q 1120 560 1108 576 q 1136 511 1133 544 q 1123 425 1135 460 q 1078 368 1112 391 q 998 349 1032 353 q 881 342 964 345 q 883 295 881 315 q 889 252 884 275 q 907 215 895 229 q 938 199 919 201 q 957 196 950 197 q 972 189 963 194 q 985 176 981 184 q 989 154 989 167 q 976 49 989 103 q 937 -18 962 -5 q 720 0 838 0 q 443 -18 562 0 q 404 49 418 -5 q 390 154 390 103 q 394 176 390 167 q 407 189 398 184 q 423 196 416 194 q 441 199 429 197 q 471 214 459 201 q 488 247 483 226 q 496 288 494 268 q 498 336 498 308 z "},"5":{"ha":1074,"x_min":28,"x_max":1042,"o":"m 222 2 q 167 34 198 14 q 104 82 136 54 q 50 143 72 109 q 28 206 28 176 q 77 279 28 245 q 168 312 125 312 q 204 284 181 302 q 239 259 227 266 q 274 241 250 252 q 330 224 298 230 q 408 213 361 218 q 621 338 621 213 q 605 394 621 372 q 559 427 590 416 q 490 443 528 439 q 397 448 452 448 q 290 430 358 448 q 186 413 222 413 q 119 422 137 413 q 100 446 102 431 q 104 593 100 492 q 107 742 107 695 q 107 786 107 758 q 106 825 106 814 q 107 884 106 862 q 112 932 108 906 q 122 974 115 959 q 142 1002 130 989 q 174 1019 155 1015 q 493 1010 328 1010 q 910 1028 830 1010 q 954 908 926 1005 q 982 751 982 810 q 962 710 982 727 q 914 687 941 694 q 856 680 886 680 q 846 695 854 680 q 826 730 839 709 q 794 771 812 750 q 748 806 777 791 q 688 821 720 821 q 400 814 473 821 q 385 692 385 768 q 389 620 385 628 q 634 659 484 659 q 934 565 827 659 q 1042 322 1042 471 q 980 135 1042 212 q 814 20 919 57 q 570 -18 709 -18 q 379 -14 443 -18 q 222 2 315 -11 z "},"6":{"ha":1179,"x_min":50,"x_max":1148,"o":"m 747 870 q 729 877 747 870 q 669 884 711 884 q 595 857 627 884 q 547 786 564 831 q 522 691 530 742 q 513 585 513 641 l 513 566 q 757 629 616 629 q 865 619 811 629 q 970 588 918 610 q 1061 534 1021 566 q 1124 454 1100 503 q 1148 347 1148 406 q 1119 207 1148 269 q 1040 103 1090 144 q 921 34 990 62 q 774 -6 851 6 q 608 -18 696 -18 q 361 20 469 -16 q 185 119 253 56 q 84 267 118 182 q 50 452 50 351 q 90 678 50 574 q 204 860 129 782 q 399 983 279 939 q 669 1028 518 1028 q 944 1008 886 1028 q 1035 914 994 984 q 1076 763 1076 844 q 1022 717 1076 739 q 927 694 968 694 q 906 708 918 694 q 882 743 894 722 q 849 789 869 764 q 806 835 829 814 q 747 870 783 856 m 623 469 q 580 463 599 469 q 550 449 562 457 q 529 425 538 441 q 516 396 521 408 q 510 360 512 383 q 508 324 508 338 q 507 286 507 311 q 539 159 507 199 q 617 119 571 119 q 674 132 650 119 q 710 164 698 145 q 730 211 723 182 q 740 263 738 240 q 741 316 741 286 q 708 431 741 392 q 623 469 675 469 z "},"7":{"ha":1029,"x_min":18,"x_max":1004,"o":"m 730 117 q 721 68 730 90 q 699 32 711 46 q 662 8 686 18 q 618 -7 638 -2 q 566 -15 599 -12 q 512 -18 533 -18 q 456 -18 492 -18 q 210 127 210 -18 q 238 285 210 200 q 310 445 267 370 q 407 593 353 521 q 510 718 460 665 q 602 804 559 770 l 368 804 q 297 790 332 804 q 238 756 262 776 q 194 715 214 736 q 160 681 174 695 q 140 667 146 667 q 101 670 121 667 q 62 681 81 673 q 31 703 43 688 q 18 736 18 718 q 90 1028 18 880 q 480 1009 273 1009 q 973 1028 719 1009 q 993 1019 982 1028 q 1004 1000 1004 1009 l 1004 907 q 976 824 1004 855 q 668 243 668 484 q 674 199 668 216 q 690 177 681 182 q 708 171 699 172 q 723 168 717 170 q 730 162 730 167 l 730 117 z "},"8":{"ha":1183,"x_min":37,"x_max":1146,"o":"m 1076 791 q 1061 710 1076 748 q 1018 644 1046 673 q 960 594 991 615 q 890 553 930 572 q 1146 296 1146 490 q 1123 184 1146 235 q 1057 101 1099 134 q 962 43 1015 67 q 844 6 909 19 q 716 -13 779 -7 q 585 -19 653 -19 q 488 -16 534 -19 q 386 -5 442 -14 q 281 16 329 3 q 188 54 234 30 q 109 109 141 77 q 57 185 77 140 q 37 288 37 231 q 314 558 37 496 q 96 769 96 616 q 115 856 96 817 q 163 921 134 895 q 236 967 193 947 q 323 999 279 987 q 418 1017 366 1010 q 511 1026 470 1024 q 595 1028 551 1028 q 671 1026 634 1028 q 759 1019 709 1025 q 850 1002 808 1013 q 936 974 892 992 q 1008 932 979 956 q 1057 872 1038 908 q 1076 791 1076 836 m 488 275 q 525 188 488 222 q 612 154 562 154 q 683 190 656 154 q 709 274 709 227 q 696 341 709 308 q 664 399 683 375 q 625 441 644 422 q 593 469 606 460 l 580 478 q 570 472 576 476 q 548 450 564 467 q 520 412 532 433 q 498 354 508 391 q 488 275 488 317 m 480 798 q 493 739 480 768 q 524 688 506 709 q 561 649 543 666 q 592 623 579 632 l 605 614 q 613 625 608 618 q 632 653 618 632 q 656 695 646 674 q 674 747 666 717 q 683 804 683 777 q 654 866 683 842 q 579 889 625 889 q 508 864 536 889 q 480 798 480 838 z "},"9":{"ha":1156,"x_min":22,"x_max":1120,"o":"m 501 125 q 575 151 543 125 q 623 222 606 178 q 648 317 640 267 q 656 423 656 367 l 656 442 q 413 380 554 380 q 305 389 359 380 q 200 420 252 399 q 109 474 149 442 q 46 554 70 506 q 22 661 22 602 q 52 802 22 739 q 133 906 81 864 q 255 976 184 947 q 406 1016 326 1004 q 575 1028 485 1028 q 817 990 711 1026 q 987 890 922 954 q 1086 742 1053 827 q 1120 556 1120 658 q 1080 331 1120 434 q 966 149 1041 227 q 771 26 890 71 q 501 -18 652 -18 q 239 1 311 -18 q 132 85 182 9 q 81 245 81 161 q 144 292 81 269 q 256 314 208 314 q 276 300 265 314 q 299 265 288 286 q 330 219 311 244 q 371 174 349 195 q 428 139 393 153 q 501 125 462 125 m 547 539 q 590 545 571 539 q 620 559 608 551 q 641 584 632 568 q 653 613 649 600 q 660 648 658 625 q 662 684 662 671 q 663 723 663 698 q 631 849 663 809 q 553 890 599 890 q 496 877 520 890 q 459 845 472 863 q 439 797 447 826 q 430 745 432 768 q 429 692 429 722 q 462 578 429 616 q 547 539 495 539 z "}," ":{"ha":300,"x_min":0,"x_max":0,"o":""},"!":{"ha":454,"x_min":35,"x_max":425,"o":"m 287 -14 q 274 -17 287 -14 q 237 -20 261 -20 q 185 -15 212 -20 q 129 1 159 -10 q 79 37 98 13 q 59 95 59 62 q 232 214 59 214 q 317 203 282 214 q 369 172 353 191 q 392 134 385 153 q 399 93 399 115 q 382 38 399 61 q 338 3 365 14 q 287 -14 312 -9 m 231 282 q 188 283 203 282 q 161 287 173 283 q 145 295 149 291 q 138 309 141 298 q 136 330 136 320 q 134 361 136 340 q 130 401 133 382 q 94 621 119 481 q 52 862 70 761 q 35 975 35 962 q 49 1016 35 1004 q 96 1028 64 1028 l 364 1028 q 411 1016 396 1028 q 425 975 425 1004 q 407 861 425 962 q 365 621 389 760 q 330 401 340 481 q 325 361 327 382 q 324 330 323 340 q 321 309 324 320 q 314 295 318 298 q 299 287 311 291 q 273 283 288 283 q 231 282 258 282 z "},"\"":{"ha":787,"x_min":43,"x_max":751,"o":"m 77 663 q 89 688 77 673 q 116 716 101 703 q 142 746 130 729 q 155 777 155 763 q 137 791 155 784 q 99 808 119 799 q 60 845 78 817 q 43 913 43 872 q 89 1025 43 983 q 210 1068 135 1068 q 329 1021 280 1068 q 378 907 378 975 q 357 817 378 866 q 303 725 336 768 q 223 654 269 683 q 132 626 177 626 q 92 637 107 626 q 77 663 77 649 m 449 663 q 469 695 449 675 q 508 738 488 715 q 527 777 527 760 q 509 791 527 784 q 471 808 492 799 q 433 845 450 817 q 415 913 415 872 q 461 1025 415 983 q 582 1068 507 1068 q 702 1021 652 1068 q 751 907 751 975 q 730 817 751 866 q 675 725 709 768 q 595 654 642 683 q 505 626 549 626 q 464 637 479 626 q 449 663 449 649 z "},"#":{"ha":754,"x_min":27,"x_max":734,"o":"m 363 363 q 397 498 371 409 l 262 498 q 223 361 251 462 q 214 333 218 342 q 203 314 211 325 q 182 299 195 303 q 149 296 170 296 q 124 300 138 296 q 98 317 111 304 q 85 351 85 330 q 86 372 85 360 q 92 399 88 383 q 100 427 96 415 q 110 462 103 439 q 119 496 116 484 q 100 495 113 496 q 81 495 87 495 l 71 495 q 38 501 48 495 q 27 528 27 507 q 40 574 27 551 q 84 606 54 597 q 153 611 111 610 q 173 679 160 635 q 192 740 186 722 q 168 740 184 740 q 144 739 151 739 l 133 739 q 100 745 111 739 q 90 772 90 751 q 103 818 90 795 q 146 850 116 841 q 227 856 156 851 q 262 979 254 945 q 330 1015 271 1015 q 398 972 398 1015 q 393 945 398 963 q 378 900 388 927 q 365 858 369 872 l 505 858 q 539 979 528 935 q 606 1015 548 1015 q 675 972 675 1015 q 664 930 675 965 l 642 860 l 709 860 q 734 829 734 860 l 734 825 q 732 805 734 816 q 725 780 730 794 q 705 755 719 765 q 669 746 690 746 l 608 746 l 571 616 l 647 616 q 672 585 672 616 l 672 581 q 670 561 672 572 q 662 535 668 550 q 642 511 656 521 q 607 502 628 502 l 539 502 l 500 361 q 491 333 494 342 q 480 314 488 325 q 459 299 472 303 q 426 296 446 296 q 401 300 414 296 q 375 317 388 304 q 361 351 361 330 q 363 363 361 359 m 331 743 l 294 614 l 430 614 l 470 743 l 331 743 z "},"$":{"ha":777,"x_min":29,"x_max":751,"o":"m 297 161 l 376 163 q 374 108 374 142 q 373 56 374 73 q 368 19 372 39 q 355 -10 364 -1 q 332 -18 347 -18 q 308 -5 318 -18 q 297 33 297 8 l 297 161 m 441 162 l 520 162 l 520 33 q 509 -5 520 9 q 481 -18 497 -18 q 460 -10 469 -18 q 449 18 452 -2 q 445 54 446 37 q 444 106 444 71 q 441 162 443 141 m 363 847 l 285 848 l 285 977 q 295 1015 285 1002 q 320 1028 306 1028 q 343 1020 334 1028 q 356 991 352 1011 q 360 954 359 971 q 362 902 361 936 q 363 847 362 867 m 508 848 l 429 848 q 431 888 430 865 q 432 927 431 911 q 433 960 432 943 q 436 988 434 977 q 443 1009 439 1000 q 453 1024 446 1019 q 469 1028 460 1028 q 496 1015 485 1028 q 508 977 508 1001 l 508 848 m 751 369 q 724 260 751 307 q 645 185 696 214 q 527 144 594 157 q 376 130 460 130 q 211 154 289 130 q 81 225 132 178 q 30 331 30 272 q 120 388 30 388 q 162 388 140 388 q 186 389 184 389 q 247 373 230 389 q 275 319 263 357 q 300 285 280 296 q 345 273 319 273 q 401 286 376 273 q 425 317 425 298 q 408 353 425 336 q 361 383 390 370 q 303 407 332 397 q 244 428 275 418 q 200 445 213 439 q 73 538 117 484 q 29 669 29 593 q 62 767 29 724 q 149 837 94 810 q 268 877 203 863 q 404 891 334 891 q 720 713 720 891 q 717 697 720 705 q 706 679 714 689 q 678 663 698 669 q 629 657 659 657 q 592 657 612 657 q 570 656 572 656 q 532 662 547 656 q 506 681 516 667 q 492 704 496 695 q 480 735 488 713 q 455 755 475 748 q 408 762 435 762 q 361 752 381 762 q 342 722 342 741 q 373 678 342 701 q 456 641 405 655 q 514 624 491 631 q 571 604 538 617 q 628 577 605 591 q 676 543 650 564 q 716 497 701 522 q 741 440 731 473 q 751 369 751 408 z "},"%":{"ha":1040,"x_min":27,"x_max":1013,"o":"m 27 748 q 100 937 27 862 q 280 1012 174 1012 q 437 950 377 1012 q 498 788 498 889 q 429 597 498 673 q 251 521 360 521 q 90 585 152 521 q 27 748 27 648 m 254 936 q 215 887 229 936 q 201 773 201 839 q 217 653 201 703 q 254 603 232 603 q 292 650 279 603 q 305 761 305 696 q 291 886 305 836 q 254 936 277 936 m 543 243 q 615 433 543 358 q 795 509 688 509 q 953 447 892 509 q 1013 285 1013 385 q 944 95 1013 172 q 769 18 876 18 q 606 80 669 18 q 543 243 543 143 m 770 433 q 730 383 744 433 q 717 268 717 334 q 732 149 717 198 q 770 100 748 100 q 808 145 795 100 q 821 255 821 190 q 806 382 821 332 q 770 433 792 433 m 602 805 q 679 976 669 928 q 707 1008 683 998 q 763 1019 730 1019 q 844 1006 804 1019 q 884 972 884 993 q 874 946 884 958 q 397 142 517 460 q 380 92 386 113 q 283 33 363 33 q 199 47 241 33 q 157 75 157 62 q 159 79 157 76 q 353 378 205 135 q 602 805 502 621 z "},"&":{"ha":1171,"x_min":24,"x_max":1146,"o":"m 1019 368 q 924 193 974 265 q 929 189 925 191 q 1026 158 955 158 q 1079 162 1052 158 q 1121 171 1107 167 q 1139 176 1136 175 q 1142 165 1140 177 q 1145 134 1143 153 q 1146 96 1146 115 q 1133 7 1146 9 q 951 -18 1039 -18 q 836 -5 876 -18 q 756 43 795 7 q 452 -18 639 -18 q 287 1 364 -18 q 151 55 210 20 q 58 146 92 91 q 24 271 24 202 q 36 354 24 315 q 67 422 47 393 q 115 477 86 452 q 175 522 144 503 q 243 558 205 541 q 145 780 145 691 q 146 800 145 787 q 172 877 153 842 q 218 935 192 912 q 279 976 245 958 q 344 1003 313 994 q 408 1019 376 1013 q 462 1026 441 1025 q 499 1028 483 1028 q 669 1003 591 1028 q 798 923 747 977 q 848 793 848 868 q 830 704 848 747 q 777 624 812 661 q 706 557 743 587 q 620 496 669 528 q 805 307 702 408 q 849 376 840 345 q 832 379 846 376 q 814 382 818 381 q 801 389 810 384 q 789 402 792 395 q 783 423 786 410 q 780 456 780 437 q 785 549 780 500 l 793 552 q 1109 557 1033 557 q 1129 529 1122 557 q 1136 469 1136 500 q 1128 396 1136 427 q 1019 368 1072 387 m 429 780 q 486 659 429 740 q 571 718 541 686 q 602 795 602 751 q 578 846 602 829 q 517 863 555 863 q 455 839 481 863 q 429 780 429 815 m 513 179 q 600 190 556 179 q 412 366 477 301 q 359 295 359 326 q 401 207 359 235 q 513 179 443 179 z "},"'":{"ha":415,"x_min":43,"x_max":378,"o":"m 77 663 q 89 688 77 673 q 116 716 101 703 q 142 746 130 729 q 155 777 155 763 q 137 791 155 784 q 99 808 119 799 q 60 845 78 817 q 43 913 43 872 q 89 1025 43 983 q 210 1068 135 1068 q 329 1021 280 1068 q 378 907 378 975 q 357 817 378 866 q 303 725 336 768 q 223 654 269 683 q 132 626 177 626 q 92 637 107 626 q 77 663 77 649 z "},"(":{"ha":481,"x_min":37,"x_max":454,"o":"m 295 523 q 334 253 295 363 q 454 60 372 143 q 454 50 454 56 q 413 -32 454 9 q 319 -94 372 -73 q 166 51 231 -47 q 69 269 101 148 q 37 519 37 389 q 69 769 37 648 q 166 987 101 890 q 319 1131 231 1084 q 413 1069 372 1111 q 454 988 454 1028 q 454 978 454 981 q 334 787 373 895 q 295 523 295 679 z "},")":{"ha":488,"x_min":32,"x_max":450,"o":"m 191 523 q 152 787 191 679 q 33 978 113 895 q 32 988 32 981 q 73 1069 32 1028 q 168 1131 115 1111 q 320 987 256 1084 q 417 769 385 890 q 450 519 450 648 q 417 269 450 389 q 320 51 385 148 q 168 -94 256 -47 q 73 -32 115 -73 q 32 50 32 9 q 33 60 32 56 q 153 253 114 143 q 191 523 191 363 z "},"*":{"ha":799,"x_min":24,"x_max":768,"o":"m 181 721 l 311 644 l 274 789 q 273 806 273 795 q 311 881 273 849 q 397 912 349 912 q 483 881 445 912 q 521 806 521 849 q 519 789 521 800 l 482 644 l 612 721 q 655 732 635 732 q 734 695 700 732 q 768 609 768 658 q 746 538 768 570 q 686 503 724 507 l 529 490 l 655 396 l 667 385 q 688 323 688 359 q 648 231 688 271 q 554 192 609 192 q 503 203 527 192 q 468 237 479 215 l 396 391 l 324 237 q 289 204 314 216 q 238 192 264 192 q 144 231 183 192 q 104 323 104 270 q 125 385 104 359 l 137 396 l 263 490 l 107 503 q 47 539 69 508 q 24 609 24 570 q 59 695 24 658 q 138 732 94 732 q 181 721 160 732 z "},"+":{"ha":639,"x_min":31,"x_max":610,"o":"m 489 564 q 586 566 559 564 q 610 508 610 556 q 573 437 610 437 q 524 439 569 438 q 435 441 479 440 l 392 441 l 383 441 q 384 282 384 391 q 386 235 384 257 q 328 210 375 210 q 257 248 257 210 q 259 297 258 252 q 260 385 260 342 l 261 429 l 261 439 l 249 439 q 68 435 77 439 q 31 507 31 435 q 55 564 31 555 q 152 562 81 562 l 260 562 l 260 572 q 256 753 259 744 q 274 780 256 770 q 327 791 292 791 q 385 766 374 791 q 382 669 382 739 l 382 563 q 489 564 439 564 z "},",":{"ha":414,"x_min":39,"x_max":375,"o":"m 73 -105 q 93 -73 73 -93 q 132 -31 113 -53 q 151 8 151 -9 q 140 20 151 14 q 112 32 128 25 q 79 51 95 39 q 51 87 62 62 q 39 145 39 111 q 85 257 39 214 q 206 300 132 300 q 326 253 277 300 q 375 138 375 206 q 354 48 375 98 q 299 -43 333 -1 q 220 -114 266 -85 q 129 -142 174 -142 q 89 -131 104 -142 q 73 -105 73 -119 z "},"-":{"ha":653,"x_min":46,"x_max":603,"o":"m 92 385 q 46 460 46 385 q 81 594 46 545 q 193 644 117 644 q 289 636 221 644 q 397 629 357 629 q 486 635 429 629 q 557 642 543 642 q 592 635 582 642 q 603 611 603 629 q 601 557 603 581 q 595 507 600 534 q 581 459 590 479 q 557 422 571 439 q 520 396 543 405 q 469 387 498 387 q 361 392 435 387 q 253 397 288 397 q 92 385 153 397 z "},".":{"ha":432,"x_min":42,"x_max":391,"o":"m 42 142 q 87 255 42 209 q 219 301 132 301 q 297 288 263 301 q 351 251 332 274 q 381 200 371 228 q 391 142 391 173 q 348 29 391 76 q 219 -18 304 -18 q 87 29 132 -18 q 42 142 42 75 z "},"/":{"ha":686,"x_min":24,"x_max":665,"o":"m 29 104 q 224 557 66 193 q 422 1024 382 922 q 521 1076 442 1076 q 632 1063 598 1076 q 665 1021 665 1049 q 662 1003 665 1013 q 651 975 659 994 q 640 949 643 956 q 292 94 498 588 q 277 63 282 73 q 263 38 273 53 q 242 18 253 24 q 214 7 231 12 q 172 2 196 2 q 126 6 150 2 q 79 17 103 9 q 40 41 55 25 q 24 79 24 58 q 29 104 24 92 z "},":":{"ha":412,"x_min":41,"x_max":366,"o":"m 83 69 q 62 90 83 69 q 41 174 41 112 q 83 280 41 237 q 206 323 125 323 q 326 279 286 323 q 366 174 366 235 q 326 70 366 113 q 206 26 286 26 q 83 69 125 26 m 83 552 q 62 573 83 552 q 41 657 41 595 q 83 763 41 720 q 206 806 125 806 q 326 762 286 806 q 366 657 366 718 q 326 552 366 596 q 206 509 286 509 q 83 552 125 509 z "},";":{"ha":414,"x_min":39,"x_max":374,"o":"m 84 552 q 63 573 84 552 q 42 657 42 595 q 84 763 42 720 q 207 806 126 806 q 326 762 286 806 q 366 657 366 718 q 326 552 366 596 q 207 509 286 509 q 84 552 126 509 m 73 -78 q 85 -53 73 -68 q 112 -25 97 -39 q 138 5 126 -12 q 151 35 151 22 q 139 47 151 41 q 111 59 127 52 q 78 78 95 66 q 50 114 62 90 q 39 172 39 138 q 85 284 39 241 q 205 327 131 327 q 325 280 276 327 q 374 165 374 233 q 353 76 374 125 q 299 -16 332 26 q 219 -87 265 -58 q 128 -115 173 -115 q 88 -104 103 -115 q 73 -78 73 -92 z "},"<":{"ha":582,"x_min":26,"x_max":549,"o":"m 26 362 q 118 478 26 389 q 300 644 209 568 l 391 720 q 406 725 399 725 q 453 696 420 725 q 514 628 486 667 q 542 566 542 589 q 533 547 542 555 q 317 362 365 409 q 395 295 339 341 q 495 213 450 249 l 540 178 q 549 158 549 169 q 519 96 549 135 q 455 28 490 58 q 406 -1 420 -1 q 391 5 399 -1 q 371 22 384 11 q 319 65 357 33 q 247 127 281 97 q 171 196 213 157 q 98 266 128 235 q 47 323 68 296 q 26 362 26 350 z "},"=":{"ha":773,"x_min":56,"x_max":722,"o":"m 177 605 q 601 606 212 606 q 698 608 671 606 q 722 550 722 598 q 685 486 722 486 q 643 488 682 487 q 568 490 604 489 l 531 490 l 191 490 q 93 484 98 487 q 56 549 56 484 q 80 606 56 597 q 177 605 98 605 m 177 379 q 600 380 211 380 q 696 382 661 380 q 721 325 721 373 q 684 260 721 260 q 642 263 680 262 q 567 264 604 264 l 530 264 l 191 264 q 93 259 98 262 q 56 323 56 259 q 80 381 56 372 q 177 379 106 379 z "},">":{"ha":574,"x_min":31,"x_max":553,"o":"m 553 362 q 462 246 553 335 q 279 81 371 157 l 189 5 q 174 -1 181 -1 q 125 28 159 -1 q 61 96 90 58 q 31 158 31 135 q 40 178 31 169 q 262 362 214 315 q 188 429 241 383 q 90 511 134 475 l 47 547 q 38 566 38 555 q 66 628 38 589 q 127 696 94 667 q 174 725 160 725 q 189 720 181 725 q 209 703 196 713 q 260 660 222 692 q 333 597 298 627 q 409 529 367 568 q 482 459 452 490 q 533 401 512 428 q 553 362 553 374 z "},"?":{"ha":884,"x_min":22,"x_max":860,"o":"m 22 856 q 54 983 22 937 q 130 1041 85 1029 q 180 1034 158 1041 q 214 1019 203 1027 q 234 1004 224 1011 q 250 998 244 998 q 293 1013 264 1002 q 341 1029 323 1024 q 394 1040 359 1035 q 469 1046 429 1046 q 624 1031 554 1046 q 747 988 693 1017 q 830 912 800 960 q 860 802 860 865 q 844 739 860 768 q 801 689 827 710 q 744 648 775 667 q 680 614 712 629 q 622 585 648 599 q 580 556 596 571 q 564 527 564 541 q 575 472 564 510 q 587 418 587 434 q 460 363 587 363 q 418 364 443 363 q 389 365 394 365 q 274 409 325 365 q 222 513 222 454 q 235 555 222 540 q 279 584 248 571 q 320 602 303 594 q 365 627 337 610 q 410 663 393 645 q 441 710 427 682 q 454 769 454 738 q 426 871 454 829 q 353 914 397 914 q 280 893 317 914 q 219 844 243 873 q 167 786 203 812 q 97 759 131 759 q 22 856 22 759 m 261 25 q 240 47 261 25 q 219 131 219 68 q 261 236 219 193 q 384 279 303 279 q 503 236 463 279 q 543 131 543 192 q 503 26 543 70 q 384 -18 463 -18 q 261 25 303 -18 z "},"@":{"ha":1242,"x_min":40,"x_max":1206,"o":"m 961 258 q 992 265 978 258 q 1016 281 1006 271 q 1034 307 1025 290 q 1046 337 1042 323 q 1055 375 1051 352 q 1060 414 1059 398 q 1063 455 1062 429 q 1064 493 1064 480 q 1064 530 1064 506 q 1030 687 1064 616 q 939 803 996 758 q 811 872 882 848 q 661 897 739 897 q 498 870 574 897 q 368 800 422 844 q 274 697 313 755 q 215 573 235 639 q 196 439 196 507 q 213 314 196 374 q 267 201 230 254 q 356 107 303 147 q 484 44 408 67 q 650 21 559 21 q 1017 119 843 21 q 1040 56 1040 98 q 1010 -1 1040 29 q 929 -57 979 -31 q 809 -99 880 -82 q 665 -116 738 -116 q 403 -73 522 -116 q 205 45 284 -30 q 83 222 126 121 q 40 442 40 324 q 65 615 40 530 q 141 774 90 699 q 264 906 192 849 q 438 995 336 962 q 659 1028 541 1028 q 871 993 771 1028 q 1045 895 971 958 q 1163 739 1120 831 q 1206 536 1206 646 q 1181 373 1206 446 q 1114 254 1156 300 q 1020 183 1072 208 q 909 159 967 159 q 725 248 800 159 q 643 174 693 199 q 542 148 593 148 q 450 162 490 148 q 388 203 411 177 q 355 260 366 229 q 344 329 344 292 q 357 408 344 374 q 392 460 371 441 q 448 490 414 479 q 515 505 481 501 q 595 508 549 508 q 632 506 613 508 q 661 503 651 505 l 671 501 l 671 585 q 659 627 671 614 q 622 640 648 640 q 539 621 583 640 q 471 583 495 602 l 446 565 q 397 623 397 565 q 409 672 397 651 q 445 706 422 693 q 494 727 469 719 q 556 739 520 736 q 619 744 592 743 q 680 745 646 745 q 766 737 730 745 q 829 710 803 729 q 871 667 854 692 q 896 605 887 643 q 909 526 905 567 q 912 429 912 486 q 912 396 912 407 q 913 367 912 385 q 915 338 913 348 q 918 315 916 329 q 924 294 920 301 q 933 278 928 286 q 945 265 938 270 q 961 258 952 260 m 665 301 q 671 413 671 326 q 664 435 671 430 q 630 439 658 439 q 590 420 604 439 q 575 364 575 401 q 588 300 575 330 q 622 271 600 271 q 648 280 634 271 q 665 301 661 290 z "},"A":{"ha":1282,"x_min":39,"x_max":1244,"o":"m 708 363 l 418 363 q 396 267 396 291 q 408 227 396 242 q 435 207 419 212 q 468 198 452 201 q 496 189 485 195 q 508 170 508 182 q 445 -9 508 22 q 262 0 378 0 q 80 -9 147 0 q 39 133 39 18 q 52 180 39 165 q 85 201 64 196 q 128 210 106 205 q 173 233 150 215 q 208 286 195 252 l 374 721 q 391 783 391 764 q 385 806 391 799 q 370 815 378 813 q 354 819 362 817 q 339 831 345 821 q 333 861 333 842 q 347 970 333 928 q 378 1019 361 1012 q 633 1010 494 1010 q 828 1019 762 1010 q 856 979 842 1015 l 1067 410 q 1134 263 1098 327 q 1192 199 1169 199 q 1211 196 1204 197 q 1226 189 1217 194 q 1240 176 1236 184 q 1244 154 1244 167 q 1230 55 1244 106 q 1191 -9 1216 3 q 975 0 1115 0 q 697 -9 789 0 q 658 55 672 3 q 644 154 644 106 q 649 176 644 167 q 662 189 653 184 q 677 196 670 194 q 696 199 684 198 q 731 259 731 200 q 708 363 731 310 m 678 478 q 608 680 665 518 q 600 703 606 688 q 591 730 594 722 q 584 747 588 738 q 578 760 581 756 q 573 763 575 763 q 546 707 567 763 l 462 478 l 678 478 z "},"B":{"ha":1097,"x_min":26,"x_max":1074,"o":"m 553 589 q 627 621 603 589 q 651 729 651 652 q 645 786 651 756 q 624 842 640 817 q 587 867 608 867 q 543 862 578 867 q 533 625 533 843 l 533 605 q 537 593 533 597 q 553 589 541 589 m 536 170 q 560 150 545 157 q 591 142 576 142 q 671 334 671 142 q 651 439 671 398 q 589 481 630 481 q 543 475 553 481 q 533 456 533 469 q 536 170 533 278 m 377 1010 q 510 1015 420 1010 q 645 1019 600 1019 q 776 1008 717 1019 q 886 969 835 996 q 966 892 937 943 q 995 772 995 842 q 977 682 995 721 q 926 618 960 644 q 853 576 892 592 q 762 550 814 560 q 921 514 853 541 q 1031 434 989 488 q 1074 304 1074 380 q 1048 156 1074 217 q 971 59 1023 96 q 845 7 918 23 q 668 -9 771 -9 q 520 -4 624 -9 q 355 0 416 0 q 66 -9 298 0 q 37 60 47 4 q 26 168 26 116 q 31 189 26 180 q 46 202 36 198 q 64 209 56 207 q 87 212 72 210 q 120 227 107 214 q 140 264 134 241 q 148 310 146 288 q 150 363 150 332 l 150 661 q 149 705 150 687 q 144 742 148 722 q 135 773 141 762 q 117 794 128 785 q 89 804 105 802 q 66 808 75 806 q 48 814 58 810 q 33 827 38 819 q 28 849 28 836 q 39 953 28 899 q 68 1019 49 1007 q 198 1015 79 1019 q 377 1010 317 1010 z "},"C":{"ha":1042,"x_min":25,"x_max":1004,"o":"m 593 -18 q 386 12 481 -18 q 225 93 291 42 q 114 213 160 144 q 46 358 68 281 q 25 515 25 434 q 44 667 25 593 q 103 807 64 741 q 199 922 143 872 q 332 1000 254 971 q 500 1028 410 1028 q 630 1015 575 1028 q 750 964 684 1001 q 749 985 749 980 q 764 1013 749 1006 q 829 1019 779 1019 q 896 1015 874 1019 q 937 993 918 1011 q 965 942 956 975 q 984 848 975 909 q 994 757 994 783 q 991 725 994 737 q 985 706 989 713 q 970 695 981 699 q 951 690 960 692 q 920 687 942 689 q 849 681 854 681 q 798 717 817 681 q 714 805 762 775 q 617 836 666 836 q 495 774 545 836 q 446 600 446 713 q 469 459 446 524 q 532 352 492 395 q 624 286 571 309 q 735 262 676 262 q 979 328 863 262 q 1004 233 1004 282 q 977 139 1004 184 q 900 59 950 94 q 770 3 849 24 q 593 -18 690 -18 z "},"D":{"ha":1171,"x_min":44,"x_max":1146,"o":"m 606 151 q 689 201 654 151 q 742 330 725 252 q 759 496 759 407 q 741 666 759 588 q 683 797 723 744 q 586 849 642 849 q 554 847 564 849 q 551 536 551 831 l 551 422 q 553 268 551 336 q 559 176 556 201 l 561 152 q 606 151 575 151 m 83 -9 q 54 59 64 3 q 44 166 44 115 q 49 188 44 179 q 63 201 54 197 q 81 207 73 205 q 104 210 90 209 q 138 226 125 212 q 157 263 151 239 q 165 309 163 286 q 168 361 168 331 l 168 659 q 166 703 168 686 q 162 741 165 721 q 152 772 159 760 q 134 792 146 784 q 106 803 123 801 q 84 806 92 804 q 65 813 75 808 q 51 826 56 817 q 46 848 46 835 q 56 952 46 897 q 85 1019 66 1007 q 382 1010 342 1010 q 503 1015 422 1010 q 627 1019 585 1019 q 814 990 728 1019 q 961 911 901 961 q 1063 795 1021 861 q 1126 654 1106 728 q 1146 500 1146 579 q 1126 350 1146 423 q 1066 211 1107 276 q 968 97 1025 146 q 828 20 910 48 q 651 -9 747 -9 q 542 -4 614 -9 q 432 0 471 0 q 83 -9 359 0 z "},"E":{"ha":1026,"x_min":44,"x_max":1017,"o":"m 85 1019 q 496 1010 269 1010 q 897 1019 719 1010 q 944 898 920 976 q 968 771 968 820 q 955 737 968 751 q 922 715 942 722 q 882 704 901 707 q 846 701 863 701 q 828 718 842 701 q 792 759 814 734 q 745 807 771 783 q 685 848 719 831 q 618 865 651 865 q 593 864 602 865 q 575 854 585 862 q 561 829 566 846 q 554 782 557 812 q 551 703 551 751 l 551 555 q 735 656 636 656 q 823 618 791 656 q 856 530 856 580 q 818 439 856 476 q 730 402 780 402 q 671 449 705 431 q 606 468 637 468 q 551 435 572 468 l 551 256 q 580 132 551 132 l 640 132 q 710 161 678 139 q 769 221 742 183 q 816 298 796 260 q 861 395 836 337 q 880 397 868 397 q 958 381 914 397 q 1013 344 1001 365 q 1017 321 1017 337 q 1000 216 1017 288 q 963 86 983 144 q 936 25 954 58 q 903 -9 917 -9 q 781 -2 850 -4 q 665 1 712 1 q 531 1 618 1 q 410 0 444 0 q 83 -9 216 0 q 54 60 64 4 q 44 168 44 116 q 49 189 44 180 q 63 202 54 198 q 81 209 73 207 q 104 212 90 210 q 138 227 125 214 q 157 264 151 241 q 165 310 163 288 q 168 363 168 332 l 168 661 q 166 705 168 687 q 162 742 165 722 q 152 773 159 762 q 134 794 146 785 q 106 804 123 802 q 84 808 92 806 q 65 814 75 810 q 51 827 56 819 q 46 849 46 836 q 56 953 46 899 q 85 1019 66 1007 z "},"F":{"ha":955,"x_min":44,"x_max":962,"o":"m 85 1019 q 512 1010 241 1010 q 890 1019 766 1010 q 937 898 913 976 q 962 771 962 820 q 948 737 962 751 q 915 715 935 722 q 876 704 895 707 q 840 701 857 701 q 818 721 831 701 q 731 827 779 789 q 612 865 682 865 q 589 864 597 865 q 573 854 582 862 q 560 829 564 846 q 553 782 556 812 q 551 703 551 751 l 551 576 q 735 684 637 684 q 823 645 791 684 q 856 557 856 607 q 818 466 856 503 q 730 429 780 429 q 671 476 705 458 q 606 495 637 495 q 551 462 572 495 l 551 409 q 551 363 551 383 q 553 318 551 343 q 558 274 555 292 q 567 238 562 255 q 581 212 572 221 q 600 201 589 202 q 608 199 602 201 q 617 198 615 198 q 625 196 618 197 q 633 194 631 195 q 640 191 635 193 q 646 186 644 189 q 651 181 648 184 q 656 174 654 178 q 658 165 657 170 q 659 154 659 160 q 647 55 659 106 q 613 -9 635 3 q 336 0 522 0 q 83 -9 132 0 q 54 60 64 4 q 44 168 44 116 q 49 189 44 180 q 63 202 54 198 q 81 209 73 207 q 104 212 90 210 q 138 227 125 214 q 157 264 151 241 q 165 310 163 288 q 168 363 168 332 l 168 661 q 166 705 168 687 q 162 742 165 722 q 152 773 159 762 q 134 794 146 785 q 106 804 123 802 q 84 808 92 806 q 65 814 75 810 q 51 827 56 819 q 46 849 46 836 q 56 953 46 899 q 85 1019 66 1007 z "},"G":{"ha":1190,"x_min":25,"x_max":1170,"o":"m 856 57 q 594 -18 762 -18 q 426 2 507 -18 q 271 65 344 22 q 143 171 197 109 q 57 323 89 233 q 25 522 25 414 q 67 742 25 644 q 182 902 110 840 q 345 996 254 963 q 536 1028 435 1028 q 692 1013 633 1028 q 810 964 751 998 q 823 1009 810 998 q 888 1019 837 1019 l 910 1019 q 952 1017 937 1019 q 986 1001 968 1014 q 1015 963 1004 988 q 1037 891 1026 937 q 1054 776 1047 845 q 1055 746 1055 764 q 1054 724 1055 733 q 1047 708 1053 714 q 1038 698 1042 701 q 1023 692 1034 694 q 1006 688 1013 689 q 983 686 1000 688 q 958 683 966 684 q 914 680 928 680 q 882 688 892 680 q 851 724 871 696 l 842 738 q 662 836 784 836 q 511 762 574 836 q 448 566 448 688 q 465 446 448 500 q 507 355 481 391 q 565 294 532 319 q 631 257 598 269 q 696 246 665 246 q 765 265 738 246 q 791 317 791 284 q 763 376 791 359 q 646 399 735 393 q 640 442 640 411 q 654 510 640 471 q 683 562 669 549 q 871 549 754 549 q 1088 562 993 549 q 1119 559 1107 562 q 1144 551 1131 557 q 1163 529 1157 544 q 1170 490 1170 513 q 1165 439 1170 460 q 1152 409 1160 419 q 1135 391 1144 399 q 1116 376 1126 384 q 1099 358 1107 369 q 1086 325 1090 347 q 1081 270 1081 302 q 1084 187 1081 241 q 1086 106 1086 132 l 1086 83 q 963 32 1032 32 q 901 44 939 32 q 856 57 862 56 z "},"H":{"ha":1415,"x_min":44,"x_max":1360,"o":"m 1319 1019 q 1348 953 1338 1007 q 1358 849 1358 899 q 1354 827 1358 836 q 1339 814 1349 819 q 1321 808 1329 810 q 1298 804 1312 806 q 1270 794 1282 802 q 1252 773 1259 785 q 1242 742 1246 762 q 1238 705 1239 722 q 1237 661 1237 687 l 1237 363 q 1239 310 1237 332 q 1247 264 1241 288 q 1266 227 1253 241 q 1300 212 1280 214 q 1323 209 1315 210 q 1341 202 1331 207 q 1356 189 1351 198 q 1360 168 1360 180 q 1350 60 1360 116 q 1321 -9 1340 4 q 1076 0 1272 0 q 799 -9 890 0 q 760 55 774 3 q 746 154 746 106 q 750 176 746 167 q 763 189 754 184 q 779 196 772 194 q 798 199 785 197 q 843 259 831 203 q 854 417 854 315 q 851 441 854 437 q 832 446 848 446 q 780 445 823 446 q 702 444 737 444 q 625 445 667 444 q 572 446 582 446 q 554 441 557 446 q 551 417 551 436 q 552 360 551 384 q 556 304 553 336 q 565 252 559 273 q 582 217 571 232 q 608 199 593 201 q 627 196 621 197 q 643 189 633 194 q 656 176 652 184 q 660 154 660 167 q 646 55 660 106 q 607 -9 632 3 q 391 0 531 0 q 83 -9 142 0 q 54 60 64 4 q 44 168 44 116 q 49 189 44 180 q 63 202 54 198 q 81 209 73 207 q 104 212 90 210 q 138 227 125 214 q 157 264 151 241 q 165 310 163 288 q 168 363 168 332 l 168 661 q 166 705 168 687 q 162 742 165 722 q 152 773 159 762 q 134 794 146 785 q 106 804 123 802 q 84 808 92 806 q 65 814 75 810 q 51 827 56 819 q 46 849 46 836 q 56 953 46 899 q 85 1019 66 1007 q 393 1010 149 1010 q 609 1019 528 1010 q 648 955 634 1007 q 662 854 662 903 q 658 832 662 841 q 644 819 654 823 q 626 812 633 814 q 603 807 618 810 q 551 625 551 802 q 553 611 551 616 q 560 602 554 606 q 578 598 566 598 q 628 598 588 598 q 700 599 668 599 q 781 598 736 599 q 835 597 825 597 q 851 601 848 597 q 854 618 854 604 q 845 760 854 715 q 807 807 837 804 q 784 812 791 810 q 766 819 777 814 q 752 832 756 823 q 748 854 748 841 q 762 955 748 903 q 801 1019 776 1007 q 1078 1010 900 1010 q 1319 1019 1267 1010 z "},"I":{"ha":709,"x_min":39,"x_max":669,"o":"m 628 1019 q 657 953 647 1007 q 667 849 667 899 q 663 827 667 836 q 648 814 658 819 q 630 808 638 810 q 607 804 621 806 q 579 794 591 802 q 561 773 568 785 q 551 742 555 762 q 547 705 548 722 q 546 661 546 687 l 546 363 q 548 310 546 332 q 556 264 550 288 q 575 227 562 241 q 609 212 589 214 q 632 209 624 210 q 650 202 640 207 q 665 189 660 198 q 669 168 669 180 q 659 60 669 116 q 630 -8 649 5 q 358 0 582 0 q 79 -8 127 0 q 50 60 60 5 q 39 168 39 116 q 44 189 39 180 q 59 202 49 198 q 77 209 68 207 q 100 212 85 210 q 133 227 120 214 q 153 264 146 241 q 161 310 159 288 q 163 363 163 332 l 163 661 q 162 705 163 687 q 157 742 161 722 q 148 773 154 762 q 130 794 141 785 q 102 804 118 802 q 79 808 87 806 q 61 814 71 810 q 46 827 51 819 q 41 849 41 836 q 52 953 41 899 q 81 1019 62 1007 q 361 1010 136 1010 q 628 1019 552 1010 z "},"J":{"ha":890,"x_min":24,"x_max":847,"o":"m 342 346 l 342 661 q 341 705 342 687 q 337 742 340 722 q 327 773 334 762 q 309 794 321 785 q 281 804 298 802 q 259 808 267 806 q 240 814 250 810 q 226 827 231 819 q 221 849 221 836 q 231 953 221 899 q 260 1019 241 1007 q 541 1010 316 1010 q 808 1019 732 1010 q 837 953 827 1007 q 847 849 847 899 q 842 827 847 836 q 828 814 838 819 q 809 808 818 810 q 787 804 801 806 q 759 794 770 802 q 741 773 747 785 q 731 742 734 762 q 727 705 728 722 q 726 661 726 687 l 726 332 q 703 152 726 225 q 632 34 680 78 q 517 -30 585 -10 q 353 -49 450 -49 q 107 -2 191 -49 q 24 115 24 45 q 53 182 24 155 q 125 210 81 210 q 165 199 150 210 q 186 174 180 189 q 198 144 192 159 q 215 119 203 130 q 248 109 227 109 q 284 119 269 109 q 314 154 300 129 q 335 227 328 178 q 342 346 342 275 z "},"K":{"ha":1348,"x_min":44,"x_max":1302,"o":"m 85 1019 q 358 1010 141 1010 q 622 1019 527 1010 q 651 956 641 1007 q 661 856 661 905 q 657 834 661 843 q 644 821 653 825 q 628 814 635 816 q 610 810 622 812 q 551 620 551 804 l 551 568 q 632 630 576 585 q 750 725 688 675 q 815 779 811 776 q 831 803 831 791 q 810 832 831 814 q 789 859 789 849 q 790 864 789 860 q 801 891 793 871 q 814 922 810 911 q 826 950 819 932 q 839 978 834 968 q 851 998 844 987 q 862 1014 857 1009 q 870 1019 867 1019 q 900 1017 871 1019 q 978 1012 930 1015 q 1074 1010 1027 1010 q 1189 1015 1137 1010 q 1253 1019 1242 1019 q 1278 1012 1272 1019 q 1284 985 1284 1004 q 1280 934 1284 971 q 1276 893 1276 897 q 1265 842 1274 860 q 1237 816 1255 824 q 1198 804 1219 808 q 1144 788 1177 800 q 1081 755 1112 776 l 876 599 q 968 513 930 550 q 1046 421 1010 471 q 1099 337 1081 372 q 1140 269 1118 302 q 1185 220 1162 236 q 1223 204 1200 210 q 1262 197 1246 199 q 1290 182 1278 195 q 1302 146 1302 170 q 1293 104 1302 118 q 1258 48 1278 71 q 1215 13 1238 26 q 1158 -7 1192 -1 q 1091 -16 1123 -14 q 1009 -18 1059 -18 q 937 -15 968 -18 q 880 -2 905 -11 q 838 18 855 7 q 805 48 820 28 q 780 85 789 67 q 759 132 770 102 q 739 186 747 161 q 716 252 730 212 q 690 326 703 292 q 678 356 684 340 q 669 382 672 372 q 661 401 665 391 q 655 416 657 411 q 649 426 652 421 q 644 432 646 431 q 637 434 641 434 q 616 424 630 434 l 551 377 q 608 199 552 205 q 626 196 620 197 q 642 189 633 194 q 655 176 651 184 q 659 154 659 167 q 647 55 659 106 q 613 -9 635 3 q 342 0 523 0 q 83 -9 133 0 q 54 60 64 4 q 44 168 44 116 q 49 189 44 180 q 63 202 54 198 q 81 209 73 207 q 104 212 90 210 q 138 227 125 214 q 157 264 151 241 q 165 310 163 288 q 168 363 168 332 l 168 661 q 166 705 168 687 q 162 742 165 722 q 152 773 159 762 q 134 794 146 785 q 106 804 123 802 q 84 808 92 806 q 65 814 75 810 q 51 827 56 819 q 46 849 46 836 q 56 953 46 899 q 85 1019 66 1007 z "},"L":{"ha":1013,"x_min":44,"x_max":1000,"o":"m 551 661 l 551 285 q 572 138 551 138 q 653 155 618 138 q 710 196 689 171 q 749 252 730 221 q 781 312 768 283 q 813 365 793 340 q 856 400 833 390 q 882 405 865 405 q 960 386 921 405 q 1000 343 1000 368 q 950 195 991 296 q 875 20 910 94 q 831 -9 862 -9 q 807 -8 829 -9 q 746 -6 785 -7 q 657 -3 707 -5 q 534 -1 606 -2 q 386 0 461 0 q 83 -9 142 0 q 54 60 64 4 q 44 168 44 116 q 49 189 44 180 q 63 202 54 198 q 81 209 73 207 q 104 212 90 210 q 138 227 125 214 q 157 264 151 241 q 165 310 163 288 q 168 363 168 332 l 168 661 q 166 705 168 687 q 162 742 165 722 q 152 773 159 762 q 134 794 146 785 q 106 804 123 802 q 84 808 92 806 q 65 814 75 810 q 51 827 56 819 q 46 849 46 836 q 56 953 46 899 q 85 1019 66 1007 q 366 1010 141 1010 q 633 1019 557 1010 q 662 953 652 1007 q 672 849 672 899 q 667 827 672 836 q 653 814 663 819 q 634 808 643 810 q 612 804 626 806 q 584 794 595 802 q 566 773 572 785 q 556 742 559 762 q 552 705 553 722 q 551 661 551 687 z "},"M":{"ha":1569,"x_min":39,"x_max":1519,"o":"m 1013 410 l 1013 513 q 1004 587 1013 583 q 990 576 996 587 q 797 104 915 412 l 770 34 q 693 11 736 17 q 653 38 671 12 q 527 307 619 102 q 396 573 434 513 q 382 585 389 585 q 370 445 370 585 l 370 393 q 372 330 370 357 q 378 270 373 302 q 392 217 383 238 q 416 180 400 195 q 452 163 431 165 q 478 161 468 162 q 499 156 488 159 q 516 145 511 152 q 522 127 522 138 q 511 44 522 87 q 478 -9 499 1 q 303 0 403 0 q 82 -9 172 0 q 50 44 61 1 q 39 127 39 86 q 50 149 39 141 q 74 159 62 157 q 108 163 86 161 q 154 182 135 165 q 181 226 172 198 q 194 285 191 254 q 198 355 198 315 q 198 461 198 361 q 197 700 197 562 q 181 762 197 741 q 143 790 165 784 q 98 799 121 795 q 59 813 75 802 q 43 847 43 823 q 57 947 43 890 q 96 1019 70 1004 q 371 1010 205 1010 q 617 1020 513 1010 q 648 1003 640 1015 q 656 972 656 991 q 654 949 656 966 q 653 924 653 933 q 661 875 653 895 q 812 537 718 732 q 925 909 901 778 q 927 946 926 919 q 931 992 927 973 q 945 1019 935 1012 q 1218 1010 1023 1010 q 1468 1019 1400 1010 q 1501 965 1484 1019 q 1519 857 1519 910 q 1512 819 1519 832 q 1495 804 1506 806 q 1471 800 1484 801 q 1444 794 1457 800 q 1420 776 1431 789 q 1402 730 1409 763 q 1396 648 1396 698 l 1396 390 q 1397 327 1396 353 q 1404 269 1399 300 q 1421 219 1409 237 q 1453 199 1434 201 q 1471 196 1465 197 q 1487 189 1478 194 q 1500 176 1496 184 q 1504 154 1504 167 q 1492 55 1504 106 q 1458 -9 1480 3 q 1235 0 1381 0 q 951 -9 1044 0 q 917 55 928 3 q 905 154 905 106 q 909 176 905 167 q 922 189 913 184 q 938 196 931 194 q 956 199 944 197 q 986 219 974 201 q 1003 270 998 237 q 1010 335 1008 303 q 1013 410 1013 367 z "},"N":{"ha":1276,"x_min":31,"x_max":1251,"o":"m 371 545 l 371 321 q 448 163 371 170 q 473 161 463 162 q 494 156 483 159 q 512 145 506 152 q 517 127 517 138 q 506 44 517 87 q 473 -9 494 1 q 302 0 399 0 q 75 -9 167 0 q 42 44 54 1 q 31 127 31 86 q 43 149 31 141 q 66 159 54 157 q 100 163 79 161 q 143 180 126 165 q 166 223 159 195 q 176 275 174 250 q 178 338 178 300 l 178 713 q 164 767 178 747 q 128 793 149 787 q 86 804 107 800 q 51 816 66 808 q 37 843 37 825 q 39 892 37 865 q 55 961 41 920 q 90 1019 68 1003 q 341 1010 180 1010 q 428 1012 391 1010 q 482 1017 465 1015 q 503 1019 500 1019 q 520 1015 512 1019 q 537 1000 528 1010 q 555 978 547 989 q 581 945 564 966 q 613 904 597 923 q 897 568 896 568 q 913 564 903 564 l 913 692 q 912 738 913 720 q 906 777 911 757 q 895 810 902 798 q 873 831 887 822 q 841 841 860 840 q 816 844 825 842 q 795 849 806 845 q 778 860 783 852 q 772 878 772 867 q 783 964 772 920 q 815 1019 794 1008 q 1036 1010 915 1010 q 1208 1019 1124 1010 q 1240 964 1229 1008 q 1251 878 1251 920 q 1245 860 1251 867 q 1228 849 1240 852 q 1207 844 1217 845 q 1181 841 1197 842 q 1141 825 1157 839 q 1118 787 1125 811 q 1108 742 1111 763 q 1106 692 1106 720 l 1106 631 q 1119 30 1106 114 q 977 -18 1038 -18 q 885 8 932 -18 q 781 94 838 35 q 425 522 721 159 q 379 566 389 566 q 371 545 371 566 z "},"O":{"ha":1238,"x_min":26,"x_max":1215,"o":"m 623 -18 q 187 120 348 -18 q 26 507 26 259 q 186 890 26 751 q 627 1028 347 1028 q 839 1003 743 1028 q 1004 932 935 978 q 1121 824 1074 887 q 1192 686 1169 762 q 1215 524 1215 610 q 1185 321 1215 412 q 1101 168 1154 231 q 972 63 1047 105 q 810 1 897 20 q 623 -18 722 -18 m 631 149 q 665 158 650 149 q 691 187 680 168 q 709 227 701 206 q 721 279 717 247 q 729 335 726 311 q 733 396 732 359 q 734 454 734 433 q 734 511 734 475 q 733 588 734 553 q 728 666 732 622 q 716 744 724 711 q 696 806 708 777 q 664 852 684 836 q 618 867 644 867 q 523 497 523 867 q 631 149 523 149 z "},"P":{"ha":1141,"x_min":44,"x_max":1112,"o":"m 557 557 q 567 553 562 555 q 575 550 572 551 q 581 547 577 549 q 585 546 584 546 q 589 545 587 545 q 594 544 591 544 q 598 543 596 543 q 604 543 601 543 q 687 747 687 543 q 618 907 687 907 q 583 897 597 907 q 562 864 569 886 q 553 818 555 842 q 551 757 551 793 q 550 733 551 754 q 550 686 550 713 q 551 592 550 634 q 557 557 551 572 m 85 1019 q 145 1017 92 1019 q 250 1012 197 1014 q 338 1010 302 1010 q 478 1015 384 1010 q 621 1019 572 1019 q 683 1019 656 1019 q 752 1015 710 1018 q 825 1007 793 1013 q 896 992 857 1002 q 964 968 935 982 q 1022 933 993 955 q 1070 885 1051 912 q 1100 822 1088 859 q 1112 741 1112 785 q 1087 614 1112 670 q 1022 521 1063 557 q 923 460 981 484 q 803 426 865 436 q 668 416 740 416 q 551 422 625 416 q 608 201 551 206 q 616 199 610 201 q 625 198 623 198 q 633 196 627 197 q 641 194 639 195 q 648 191 643 193 q 654 186 652 189 q 660 181 656 184 q 664 174 663 178 q 666 165 665 170 q 667 154 667 160 q 657 52 667 101 q 621 -9 646 3 q 337 0 530 0 q 83 -9 131 0 q 54 60 64 4 q 44 168 44 116 q 49 189 44 180 q 63 202 54 198 q 81 209 73 207 q 104 212 90 210 q 138 227 125 214 q 157 264 151 241 q 165 310 163 288 q 168 363 168 332 l 168 661 q 166 705 168 687 q 162 742 165 722 q 152 773 159 762 q 134 794 146 785 q 106 804 123 802 q 84 808 92 806 q 65 814 75 810 q 51 827 56 819 q 46 849 46 836 q 56 953 46 899 q 85 1019 66 1007 z "},"Q":{"ha":1267,"x_min":25,"x_max":1254,"o":"m 633 157 q 666 165 651 157 q 691 192 680 174 q 709 230 701 210 q 722 279 717 250 q 729 334 726 309 q 733 394 732 359 q 735 453 734 430 q 735 510 735 476 q 733 609 735 566 q 728 698 732 652 q 715 777 724 744 q 694 837 707 810 q 663 877 682 863 q 619 890 644 890 q 526 497 526 890 q 633 157 526 157 m 676 -18 q 477 0 571 -18 q 300 58 384 18 q 156 160 216 99 q 60 311 96 220 q 25 515 25 402 q 184 890 25 752 q 621 1028 344 1028 q 1063 890 907 1028 q 1218 513 1218 751 q 1161 266 1218 372 q 987 81 1105 160 q 1030 32 1000 53 q 1095 1 1060 12 q 1165 -17 1131 -9 q 1224 -31 1199 -24 q 1254 -45 1249 -37 q 1220 -136 1253 -77 q 1050 -202 1184 -202 q 957 -191 998 -202 q 891 -164 916 -180 q 847 -121 866 -147 q 819 -72 828 -95 q 801 -17 810 -49 q 676 -18 770 -17 z "},"R":{"ha":1285,"x_min":44,"x_max":1249,"o":"m 551 574 q 608 567 579 567 q 698 744 698 567 q 694 797 698 774 q 683 840 691 819 q 658 872 675 861 q 616 884 641 884 q 565 850 578 884 q 551 753 551 817 l 551 574 m 85 1019 q 302 1010 230 1010 q 484 1015 394 1010 q 638 1019 573 1019 q 717 1018 685 1019 q 803 1012 749 1017 q 893 998 857 1007 q 975 970 930 989 q 1045 925 1019 951 q 1090 858 1072 899 q 1109 765 1109 817 q 913 520 1109 569 q 992 488 958 508 q 1050 443 1027 469 q 1089 382 1073 418 q 1114 309 1105 347 q 1129 219 1123 271 q 1146 188 1132 198 q 1178 178 1161 178 q 1217 174 1196 178 q 1249 159 1238 170 q 1247 94 1249 118 q 1235 47 1244 70 q 1210 14 1225 24 q 1164 -5 1195 3 q 1095 -16 1134 -14 q 994 -18 1055 -18 q 852 -1 907 -18 q 772 48 797 17 q 736 118 747 79 q 721 202 726 157 q 707 291 715 248 q 671 378 699 334 q 595 452 644 422 l 551 452 q 551 397 551 420 q 553 343 551 374 q 558 289 555 311 q 568 246 562 267 q 583 213 574 224 q 606 201 593 202 q 614 199 607 201 q 622 198 621 198 q 630 196 624 197 q 638 194 636 195 q 645 191 640 193 q 652 186 650 189 q 657 181 654 184 q 661 174 660 178 q 664 165 663 170 q 665 154 665 160 q 653 54 665 105 q 618 -9 641 3 q 368 0 528 0 q 83 -9 136 0 q 54 60 64 4 q 44 168 44 116 q 49 189 44 180 q 63 202 54 198 q 81 209 73 207 q 104 212 90 210 q 138 227 125 214 q 157 264 151 241 q 165 310 163 288 q 168 363 168 332 l 168 661 q 166 705 168 687 q 162 742 165 722 q 152 773 159 762 q 134 794 146 785 q 106 804 123 802 q 84 808 92 806 q 65 814 75 810 q 51 827 56 819 q 46 849 46 836 q 56 953 46 899 q 85 1019 66 1007 z "},"S":{"ha":1031,"x_min":25,"x_max":1008,"o":"m 720 970 q 724 981 721 972 q 727 990 726 989 q 730 998 728 991 q 734 1004 732 1004 q 740 1009 736 1005 q 748 1014 744 1013 q 759 1016 752 1014 q 773 1018 765 1018 q 791 1019 781 1018 q 814 1019 801 1019 q 848 1018 828 1019 q 880 1015 868 1016 l 893 1013 q 910 971 900 998 q 938 882 921 945 q 956 778 956 819 q 909 737 956 752 q 816 722 862 722 q 781 728 786 722 q 742 777 765 753 q 687 823 720 800 q 612 858 655 845 q 522 871 569 871 q 422 857 460 871 q 383 816 383 842 q 395 789 383 802 q 432 765 408 776 q 481 744 456 753 q 543 725 507 734 q 606 710 579 716 q 668 697 632 705 q 921 573 834 663 q 1008 352 1008 484 q 977 211 1004 274 q 908 105 950 147 q 811 35 867 63 q 695 -6 755 7 q 567 -18 634 -18 q 282 39 387 -18 q 279 28 281 37 q 276 16 277 19 q 270 7 275 13 q 260 -2 266 1 q 242 -6 254 -4 q 216 -9 231 -9 q 116 -3 169 -9 q 47 249 47 161 q 87 297 47 278 q 169 316 127 316 q 208 308 194 316 q 336 195 245 244 q 504 146 427 146 q 603 165 561 146 q 645 219 645 184 q 639 242 645 231 q 620 263 633 254 q 593 282 608 273 q 557 299 579 290 q 517 314 536 307 q 472 328 499 320 q 426 340 445 335 q 379 352 407 345 q 334 363 351 359 q 234 396 279 378 q 150 441 190 414 q 83 503 110 469 q 41 583 56 536 q 25 686 25 630 q 79 874 25 797 q 228 990 133 952 q 452 1028 323 1028 q 592 1013 530 1028 q 720 970 654 997 z "},"T":{"ha":1072,"x_min":1,"x_max":1065,"o":"m 1026 1019 q 1035 970 1027 1010 q 1049 897 1043 929 q 1060 821 1055 864 q 1065 749 1065 778 q 1062 729 1065 741 q 998 702 1053 717 q 905 688 942 688 q 893 690 897 688 q 882 716 890 697 q 868 745 873 734 q 855 775 863 756 q 840 805 846 793 q 825 832 833 817 q 808 857 816 847 q 791 875 800 866 q 774 888 783 884 q 757 892 765 892 q 731 843 731 892 l 731 410 q 733 335 731 366 q 740 271 734 304 q 756 219 745 237 q 786 199 768 201 q 805 196 798 197 q 820 189 811 194 q 833 176 829 184 q 838 154 838 167 q 824 55 838 106 q 785 -9 810 3 q 540 0 708 0 q 295 -9 372 0 q 256 55 270 3 q 242 154 242 106 q 246 176 242 167 q 259 189 250 184 q 275 196 269 194 q 294 199 281 197 q 323 219 311 201 q 340 271 335 237 q 346 334 345 304 q 348 410 348 365 l 348 843 q 323 892 348 892 q 299 886 311 892 q 274 864 287 880 q 252 837 261 849 q 229 800 242 825 q 209 763 215 774 q 189 723 203 752 q 173 690 176 694 q 161 688 168 688 q 68 702 124 688 q 4 729 13 717 q 1 749 1 741 q 6 821 1 778 q 17 896 12 863 q 31 970 23 929 q 40 1019 39 1010 q 540 1010 166 1010 q 1026 1019 903 1010 z "},"U":{"ha":1249,"x_min":35,"x_max":1213,"o":"m 1118 671 l 1118 473 q 1094 267 1118 355 q 1031 125 1071 180 q 928 39 991 71 q 796 -6 865 6 q 634 -18 726 -18 q 549 -17 585 -18 q 468 -9 512 -15 q 391 5 424 -4 q 322 32 358 15 q 261 72 286 48 q 212 129 235 95 q 173 205 188 163 q 150 305 159 248 q 141 431 141 362 l 141 620 q 139 688 141 661 q 133 743 138 715 q 116 785 127 770 q 87 801 105 799 q 68 805 75 803 q 53 811 62 806 q 39 825 43 816 q 35 846 35 833 q 49 952 35 897 q 88 1019 63 1006 q 361 1010 185 1010 q 584 1019 500 1010 q 623 952 609 1006 q 637 846 637 897 q 633 825 637 833 q 620 811 629 816 q 604 805 610 806 q 585 801 597 803 q 524 620 524 794 l 524 422 q 527 338 524 373 q 537 266 529 302 q 560 208 546 230 q 600 172 574 186 q 660 158 625 158 q 701 163 682 158 q 734 177 720 169 q 758 199 747 184 q 775 227 768 214 q 787 260 782 239 q 794 296 792 281 q 798 336 797 311 q 799 375 799 361 q 800 415 800 389 l 800 671 q 798 720 800 701 q 791 760 796 740 q 775 791 786 780 q 746 803 764 802 q 728 807 734 805 q 714 817 721 809 q 708 837 708 824 q 722 948 708 890 q 760 1019 735 1006 q 973 1010 836 1010 q 1167 1019 1099 1010 q 1201 948 1189 1006 q 1213 837 1213 890 q 1206 817 1213 824 q 1193 807 1200 809 q 1175 803 1186 805 q 1118 671 1118 798 z "},"V":{"ha":1104,"x_min":-7,"x_max":1111,"o":"m 648 0 l 509 0 q 469 5 487 0 q 436 24 451 11 q 411 51 422 38 q 389 91 401 64 q 369 137 377 117 q 347 194 361 157 q 323 257 333 232 q 255 424 294 328 q 196 570 216 520 q 152 676 176 620 q 110 772 128 732 q 89 792 103 785 q 58 801 74 798 q 27 808 43 803 q 3 830 12 813 q -7 876 -7 846 q -6 939 -7 916 q 1 987 -5 962 q 18 1019 7 1013 q 286 1010 120 1010 q 562 1019 451 1010 q 585 958 572 1019 q 597 858 597 897 q 587 836 597 843 q 565 827 577 829 q 543 819 553 826 q 532 795 532 811 l 532 793 q 540 762 532 782 q 546 741 540 761 q 561 693 553 720 q 580 630 570 665 q 601 562 591 595 q 621 501 612 529 q 636 456 630 473 q 644 439 642 439 q 674 515 646 439 q 728 677 701 591 q 755 785 755 763 q 746 811 755 799 q 722 825 736 823 q 688 838 699 829 q 676 854 677 846 q 674 880 674 863 q 705 1019 674 1004 q 873 1010 768 1010 q 1092 1019 920 1010 q 1111 930 1111 1018 l 1111 890 q 1106 850 1111 863 q 1091 831 1101 836 q 1068 825 1081 827 q 1040 816 1056 823 q 1007 794 1023 808 q 972 744 991 779 q 937 656 953 709 q 876 476 911 576 q 792 246 840 376 q 730 79 743 115 q 719 51 723 60 q 705 28 715 42 q 682 7 696 14 q 648 0 667 0 z "},"W":{"ha":1571,"x_min":-14,"x_max":1584,"o":"m 1115 0 l 1003 0 q 977 4 989 0 q 956 14 964 9 q 939 31 947 19 q 925 52 930 43 q 914 78 920 60 q 905 104 907 96 q 896 135 902 113 q 888 165 890 157 l 792 486 q 661 79 694 178 q 651 52 655 61 q 637 28 646 42 q 614 7 628 14 q 581 0 600 0 l 455 0 q 421 5 436 0 q 394 24 406 11 q 372 52 381 38 q 353 91 363 65 q 335 137 342 117 q 316 194 328 157 q 294 256 304 231 q 246 391 281 294 q 199 520 211 489 q 166 611 188 551 q 130 706 144 671 q 101 772 115 741 q 85 791 96 784 q 61 799 74 798 q 35 805 49 801 q 11 815 22 809 q -6 837 1 821 q -14 877 -14 852 q -13 940 -14 917 q -6 988 -12 963 q 12 1019 0 1013 q 279 1010 123 1010 q 549 1019 440 1010 q 571 959 558 1019 q 584 859 584 898 q 571 840 584 846 q 543 830 559 833 q 515 818 528 828 q 503 787 503 807 q 506 763 503 779 q 551 617 510 747 q 596 486 593 486 q 615 540 597 486 q 654 662 633 594 q 684 763 675 730 q 692 831 692 793 q 688 889 692 859 q 681 941 684 920 q 677 964 677 961 q 685 990 677 979 q 705 1002 693 1002 q 861 990 821 990 q 996 1001 918 990 q 1005 1002 1000 1002 q 1030 971 1030 1002 q 1024 919 1030 952 q 1017 863 1017 885 q 1026 797 1017 831 q 1039 747 1029 787 q 1065 646 1049 707 q 1095 539 1082 585 q 1110 493 1108 493 q 1155 633 1116 493 q 1194 786 1194 772 q 1185 814 1194 801 q 1161 827 1176 827 q 1134 835 1144 830 q 1119 848 1124 840 q 1114 862 1115 856 q 1114 882 1114 868 q 1144 1019 1114 1004 q 1360 1010 1233 1010 q 1552 1019 1398 1010 q 1578 995 1571 1019 q 1584 931 1584 972 l 1584 891 q 1578 851 1584 865 q 1561 833 1572 838 q 1536 827 1550 829 q 1504 819 1522 826 q 1469 796 1487 811 q 1432 746 1451 781 q 1395 658 1412 711 q 1197 79 1274 277 q 1185 51 1190 61 q 1171 27 1181 41 q 1147 7 1162 14 q 1115 0 1133 0 z "},"X":{"ha":1203,"x_min":26,"x_max":1166,"o":"m 433 -9 q 252 0 347 0 q 46 -9 142 0 q 26 40 26 0 q 29 121 26 94 q 38 160 32 148 q 57 180 43 173 q 88 193 71 186 q 135 223 104 200 q 199 284 165 246 q 248 339 201 287 q 330 431 296 391 q 398 517 364 472 q 306 631 372 548 q 214 748 240 714 q 168 784 198 770 q 112 805 137 799 q 67 824 87 810 q 48 858 48 837 q 52 955 48 919 q 58 1000 55 991 q 68 1019 62 1010 q 358 1010 124 1010 q 616 1019 539 1010 q 636 954 627 1013 q 645 852 645 895 q 629 832 645 842 q 614 808 614 822 q 616 795 614 803 q 625 777 619 787 q 636 758 631 767 q 651 735 642 749 q 665 714 660 722 q 680 693 670 707 q 693 675 690 679 q 756 760 727 717 q 785 812 785 804 q 777 826 785 821 q 757 834 768 831 q 737 851 746 838 q 728 889 728 865 q 760 1019 728 1000 q 932 1010 810 1010 q 1146 1019 1067 1010 q 1166 961 1166 1013 q 1166 929 1166 939 q 1165 903 1166 920 q 1163 880 1164 887 q 1160 862 1162 873 q 1154 846 1158 851 q 1146 836 1151 842 q 1135 827 1141 829 q 1120 823 1128 824 q 1095 817 1105 820 q 1075 812 1084 814 q 1054 802 1065 809 q 1035 789 1044 795 q 1012 770 1026 784 q 986 745 998 756 q 953 711 975 734 q 914 668 931 687 q 863 612 897 649 q 802 546 829 576 q 992 307 832 502 q 1043 251 1017 273 q 1086 221 1069 229 q 1120 204 1104 213 q 1145 185 1136 195 q 1160 151 1155 175 q 1166 84 1166 126 q 1165 48 1166 61 q 1158 18 1164 35 q 1140 -9 1152 0 q 850 0 1050 0 q 595 -9 674 0 q 571 51 581 2 q 562 128 562 100 q 571 163 562 151 q 593 177 581 175 q 614 185 604 180 q 624 202 624 191 q 595 267 624 222 l 518 385 q 493 351 515 380 q 451 296 471 322 q 415 244 432 270 q 397 212 397 218 q 408 193 397 200 q 431 182 418 186 q 453 161 443 178 q 464 115 464 144 l 464 109 q 433 -9 464 10 z "},"Y":{"ha":1091,"x_min":-14,"x_max":1105,"o":"m 736 410 q 738 335 736 366 q 744 271 739 304 q 761 219 749 237 q 791 199 773 201 q 809 196 803 197 q 825 189 816 194 q 838 176 834 184 q 842 154 842 167 q 830 55 842 106 q 796 -9 819 3 q 545 0 718 0 q 293 -9 371 0 q 259 55 271 3 q 247 154 247 106 q 251 176 247 167 q 264 189 255 184 q 280 196 273 194 q 298 199 286 197 q 328 219 316 201 q 345 271 340 237 q 351 334 349 304 q 353 410 353 365 l 353 500 l 262 624 q 221 677 238 656 q 178 725 204 698 q 124 771 152 753 q 66 798 96 789 q 43 803 58 800 q 23 807 28 806 q 8 815 18 809 q -4 832 -1 822 q -11 861 -7 842 q -14 905 -14 879 l -14 915 q -6 984 -14 948 q 15 1019 1 1019 q 298 1010 132 1010 q 549 1019 416 1010 q 572 955 559 1019 q 585 854 585 891 q 576 836 585 842 q 557 829 568 830 q 538 823 547 827 q 530 808 530 818 q 542 776 530 795 l 620 655 q 716 799 703 779 q 722 814 722 807 q 708 826 722 821 q 681 839 694 831 q 668 863 668 848 l 668 873 q 699 1019 668 1006 q 878 1010 768 1010 q 986 1015 908 1010 q 1086 1019 1064 1019 q 1105 901 1105 1019 l 1105 878 q 1094 839 1105 851 q 1063 824 1082 827 q 1021 819 1043 821 q 972 803 999 817 q 925 761 945 789 q 856 668 896 721 q 799 590 817 614 q 763 539 781 566 q 736 497 745 513 l 736 410 z "},"Z":{"ha":998,"x_min":34,"x_max":979,"o":"m 79 -9 q 65 17 75 -7 q 47 76 56 41 q 38 139 38 112 q 41 153 38 146 q 104 253 91 233 l 484 845 q 494 871 494 865 q 429 882 494 882 q 356 863 393 882 q 292 816 319 844 q 243 761 265 789 q 208 714 221 734 q 191 695 194 695 q 88 718 142 695 q 34 762 34 740 q 35 768 34 766 q 67 893 43 819 q 115 1019 90 966 q 576 1010 288 1010 q 928 1019 728 1010 q 942 977 939 1000 q 945 891 945 955 q 916 820 945 869 q 831 688 887 770 q 508 174 557 252 q 507 172 507 173 q 607 163 507 163 q 681 185 646 163 q 740 238 716 207 q 783 300 764 269 q 812 353 801 332 q 825 375 823 375 q 899 362 861 375 q 958 334 937 349 q 979 314 979 320 q 941 151 975 260 q 881 -9 907 42 q 465 0 696 0 q 79 -9 241 0 z "},"[":{"ha":701,"x_min":91,"x_max":616,"o":"m 461 715 l 461 200 q 462 173 461 183 q 467 155 463 163 q 475 143 472 146 q 493 137 479 140 q 516 134 507 134 q 551 132 526 133 q 570 129 564 130 q 587 124 577 127 q 603 117 597 121 q 612 105 608 113 q 616 86 616 97 q 603 -19 616 35 q 564 -86 589 -73 q 273 -68 440 -68 q 183 -71 235 -68 q 121 -73 132 -73 q 116 -73 119 -73 q 111 -73 112 -73 q 92 60 92 -66 l 92 856 q 91 882 92 863 q 91 912 91 901 q 109 1015 91 1008 q 114 1015 110 1015 q 119 1015 117 1015 q 181 1013 130 1015 q 271 1010 233 1010 q 562 1028 438 1010 q 601 961 587 1015 q 614 856 614 907 q 609 834 614 843 q 593 821 604 825 q 573 814 582 816 q 549 810 564 812 q 475 791 489 806 q 461 715 461 776 z "},"\\":{"ha":823,"x_min":42,"x_max":780,"o":"m 760 127 q 780 72 780 88 q 766 38 780 52 q 730 16 752 23 q 688 5 709 9 q 647 2 667 2 q 604 7 623 2 q 572 19 585 12 q 549 40 560 26 q 531 66 538 54 q 514 100 524 79 q 367 408 424 291 q 229 680 311 524 q 75 949 146 836 q 42 1025 42 1002 q 74 1064 42 1051 q 180 1076 105 1076 q 292 1024 265 1076 q 760 127 359 890 z "},"]":{"ha":701,"x_min":62,"x_max":587,"o":"m 217 200 l 217 715 q 203 791 217 776 q 129 810 189 806 q 105 814 115 812 q 85 821 96 816 q 69 834 75 825 q 64 856 64 843 q 78 961 64 907 q 117 1028 92 1015 q 408 1010 240 1010 q 497 1013 445 1010 q 559 1015 549 1015 q 565 1015 561 1015 q 570 1015 568 1015 q 587 912 587 1008 q 587 882 587 901 q 587 856 587 863 l 587 60 q 568 -73 587 -66 q 563 -73 566 -73 q 557 -73 559 -73 q 495 -71 547 -73 q 406 -68 443 -68 q 115 -86 238 -68 q 76 -19 90 -73 q 62 86 62 35 q 67 108 62 99 q 83 121 72 117 q 103 128 95 126 q 127 132 111 130 q 162 134 152 133 q 185 137 172 134 q 203 143 199 140 q 211 155 206 146 q 216 173 216 163 q 217 200 217 183 z "},"^":{"ha":631,"x_min":14,"x_max":616,"o":"m 264 743 l 366 743 q 475 636 412 702 q 557 547 538 570 q 575 525 564 538 q 593 505 587 512 q 605 489 599 498 q 614 474 611 481 q 616 462 616 468 q 595 430 616 440 q 524 420 574 420 q 465 431 484 420 q 418 470 446 441 l 315 600 l 213 470 q 166 431 185 441 q 107 420 146 420 q 36 430 57 420 q 14 462 14 440 q 17 474 14 468 q 26 489 20 481 q 38 505 32 498 q 55 525 44 512 q 74 547 66 538 q 156 636 92 570 q 264 743 219 702 z "},"_":{"ha":802,"x_min":0,"x_max":802,"o":"m 121 -18 q 681 -18 157 -18 q 778 -16 751 -18 q 802 -73 802 -25 q 765 -138 802 -138 q 723 -135 762 -136 q 648 -134 684 -134 l 611 -134 l 136 -134 q 37 -139 42 -136 q 0 -75 0 -139 q 24 -17 0 -26 q 121 -18 42 -18 z "},"`":{"ha":905,"x_min":262,"x_max":642,"o":"m 642 779 l 540 779 q 426 884 493 819 q 336 975 359 949 q 301 1010 323 989 q 271 1041 279 1031 q 262 1061 262 1051 q 287 1092 262 1082 q 369 1102 311 1102 q 449 1089 423 1102 q 498 1039 475 1076 q 572 907 516 1010 q 642 779 629 803 z "},"a":{"ha":924,"x_min":35,"x_max":895,"o":"m 494 84 q 393 8 454 34 q 267 -18 332 -18 q 159 0 205 -18 q 87 52 113 19 q 47 124 60 85 q 35 210 35 164 q 44 292 35 256 q 68 354 53 328 q 108 399 83 380 q 159 429 132 418 q 221 447 185 440 q 290 456 256 454 q 366 458 324 458 q 417 456 391 458 q 457 452 444 454 l 471 450 l 471 530 q 455 586 471 570 q 402 602 439 602 q 334 592 370 602 q 270 567 298 582 q 218 538 242 553 q 182 513 195 524 l 170 503 q 121 524 138 503 q 104 582 104 544 q 118 638 104 613 q 152 679 131 663 q 204 708 172 696 q 267 726 237 720 q 338 736 298 732 q 410 741 379 740 q 479 742 440 742 q 599 732 548 742 q 686 699 650 722 q 744 646 721 676 q 779 571 766 616 q 795 476 791 525 q 800 358 800 427 q 800 327 800 337 q 801 299 800 317 q 803 272 802 281 q 807 249 804 262 q 813 229 809 236 q 822 214 817 222 q 834 202 827 206 q 851 196 842 198 q 860 196 852 196 q 872 194 867 195 q 882 187 876 192 q 891 172 888 182 q 895 145 895 161 q 891 100 895 131 q 874 29 888 69 q 839 -18 860 -12 q 820 -13 836 -18 q 798 -8 804 -9 q 774 -4 791 -7 q 737 -1 758 -2 q 687 -1 716 -1 q 599 -4 640 -1 q 546 -7 559 -7 q 494 84 521 -7 m 464 184 q 471 334 471 217 q 462 361 471 355 q 414 368 454 368 q 360 341 379 368 q 341 267 341 315 q 357 182 341 221 q 403 144 374 144 q 440 157 420 144 q 464 184 459 170 z "},"b":{"ha":1008,"x_min":23,"x_max":983,"o":"m 488 960 q 486 909 488 957 q 483 800 484 861 q 481 704 481 739 q 644 742 559 742 q 771 719 711 742 q 879 655 832 696 q 955 551 926 614 q 983 413 983 488 q 949 229 983 312 q 856 93 915 146 q 720 11 798 39 q 554 -18 642 -18 q 296 45 414 -18 q 136 -9 201 -9 q 64 62 64 -9 q 72 87 64 73 q 91 113 79 101 q 113 135 102 125 q 133 151 125 145 l 140 157 q 152 692 152 246 q 151 728 152 715 q 145 762 151 742 q 131 795 140 783 q 103 818 121 807 q 57 831 84 828 q 29 841 35 833 q 23 871 23 849 q 35 967 23 918 q 66 1028 46 1015 q 300 1010 176 1010 q 381 1014 336 1010 q 438 1019 427 1019 q 478 1007 469 1019 q 488 960 488 996 m 481 349 q 484 262 481 299 q 495 195 487 226 q 518 147 503 163 q 555 131 533 131 q 624 365 624 131 q 606 536 624 471 q 553 602 588 602 q 530 597 541 602 q 512 581 519 592 q 499 558 505 570 q 490 527 494 547 q 485 490 487 507 q 482 446 483 473 q 481 400 481 419 q 481 349 481 380 z "},"c":{"ha":783,"x_min":26,"x_max":760,"o":"m 739 264 l 760 231 q 684 47 760 112 q 448 -18 608 -18 q 263 13 345 -18 q 130 97 181 45 q 53 215 79 150 q 26 352 26 281 q 52 498 26 429 q 130 623 79 568 q 262 710 180 677 q 447 742 344 742 q 658 693 587 742 q 729 580 729 645 q 688 493 729 530 q 580 457 646 457 l 504 616 q 463 623 496 623 q 408 594 430 623 q 376 523 385 566 q 367 427 367 479 q 414 266 367 323 q 533 208 462 208 q 739 264 642 208 z "},"d":{"ha":996,"x_min":26,"x_max":970,"o":"m 860 704 q 860 546 860 622 q 861 391 861 471 q 861 335 861 356 q 865 286 862 314 q 876 241 869 258 q 896 212 882 225 q 927 196 909 199 q 936 196 928 196 q 948 194 943 195 q 958 187 952 192 q 967 172 964 182 q 970 145 970 161 q 967 100 970 131 q 950 29 964 69 q 915 -18 936 -12 q 896 -14 911 -18 q 876 -10 881 -11 q 854 -6 870 -9 q 824 -3 838 -4 q 786 -1 810 -2 q 734 -1 762 -1 q 648 -4 691 -1 q 593 -7 604 -7 q 550 15 563 -7 q 536 84 536 38 q 328 -18 490 -18 q 216 5 267 -18 q 130 66 165 28 q 72 157 96 105 q 37 263 47 208 q 26 377 26 319 q 117 646 26 551 q 367 742 208 742 q 538 692 478 742 q 537 728 538 715 q 531 762 536 742 q 517 795 526 783 q 489 818 507 807 q 443 831 470 828 q 415 841 421 833 q 409 871 409 849 q 420 967 409 918 q 452 1028 432 1015 q 680 1010 559 1010 q 760 1014 715 1010 q 817 1019 806 1019 q 857 1007 848 1019 q 867 960 867 996 q 865 909 867 957 q 862 800 863 861 q 860 704 860 739 m 387 349 q 390 262 387 299 q 401 195 393 226 q 425 147 410 163 q 462 131 439 131 q 530 365 530 131 q 512 536 530 471 q 460 602 494 602 q 436 597 447 602 q 418 581 426 592 q 406 558 411 570 q 397 527 400 547 q 391 490 393 507 q 389 446 389 473 q 388 400 388 419 q 387 349 387 380 z "},"e":{"ha":833,"x_min":33,"x_max":804,"o":"m 368 475 q 429 474 388 475 q 492 473 469 473 q 529 484 519 473 q 538 522 538 495 q 518 597 538 571 q 459 624 498 624 q 386 589 404 624 q 368 475 368 554 m 742 66 q 454 -18 653 -18 q 243 27 338 -18 q 90 160 148 72 q 33 365 33 249 q 147 642 33 543 q 450 742 262 742 q 695 663 597 742 q 804 470 793 583 q 551 361 788 366 q 380 359 482 359 q 432 242 387 280 q 543 205 477 205 q 666 224 604 205 q 776 277 728 244 q 799 237 799 267 q 780 137 799 190 q 742 66 762 85 z "},"f":{"ha":659,"x_min":24,"x_max":764,"o":"m 135 365 q 133 522 135 522 l 129 522 q 26 539 26 522 q 25 586 26 557 q 24 628 24 615 q 52 637 24 631 q 107 648 79 644 l 134 652 q 233 931 134 833 q 507 1028 331 1028 q 622 1013 571 1028 q 702 974 672 998 q 748 920 732 949 q 764 859 764 890 q 724 770 764 807 q 617 733 684 733 l 515 914 q 433 889 460 914 q 406 822 406 863 q 463 650 406 731 q 494 651 465 650 q 558 651 524 651 q 606 652 593 652 q 651 643 639 652 q 663 604 663 634 q 603 530 663 530 l 464 530 l 464 398 q 520 201 464 207 q 543 197 536 199 q 561 190 551 195 q 575 176 571 185 q 579 155 579 168 q 565 49 579 104 q 526 -18 551 -5 q 303 0 426 0 q 80 -18 180 0 q 41 49 55 -5 q 27 155 27 104 q 31 176 27 168 q 45 190 35 185 q 63 197 56 195 q 86 201 71 199 q 135 365 135 207 z "},"g":{"ha":878,"x_min":46,"x_max":873,"o":"m 869 -75 q 444 -362 869 -362 q 285 -350 357 -362 q 168 -313 213 -338 q 123 -256 123 -288 q 178 -134 123 -201 q 46 16 46 -99 q 55 75 46 46 q 82 131 64 103 q 114 177 100 159 q 152 222 128 195 q 51 435 51 303 q 78 575 51 515 q 155 671 106 635 q 268 724 204 707 q 409 742 332 742 q 483 738 452 742 q 558 721 514 733 q 617 706 603 709 q 630 724 618 707 q 653 752 642 741 q 681 779 664 764 q 722 802 699 794 q 770 810 745 810 q 823 800 802 810 q 855 773 845 789 q 869 742 865 756 q 873 716 873 728 q 852 656 873 670 q 775 642 831 642 q 708 634 708 642 q 795 432 795 545 q 687 241 795 319 q 416 163 579 163 q 376 166 397 163 q 353 170 355 170 q 337 142 337 153 q 367 113 337 123 q 443 101 396 104 q 546 98 490 99 q 660 89 603 96 q 764 65 717 81 q 840 14 810 49 q 869 -75 869 -22 m 423 260 q 474 307 460 263 q 487 439 487 351 q 470 582 487 528 q 420 635 454 635 q 388 619 401 635 q 368 575 375 603 q 359 519 361 547 q 356 460 356 491 q 358 421 356 446 q 366 356 360 397 q 387 288 372 316 q 423 260 401 260 m 351 -151 q 275 -149 307 -151 l 275 -161 q 277 -184 275 -175 q 284 -203 279 -193 q 303 -219 290 -214 q 337 -224 317 -224 q 607 -217 559 -224 q 654 -173 654 -210 q 624 -155 654 -159 q 530 -151 593 -151 l 351 -151 z "},"h":{"ha":1130,"x_min":22,"x_max":1108,"o":"m 480 704 l 479 657 q 588 722 524 703 q 748 742 652 742 q 845 727 800 742 q 925 683 890 712 q 980 606 960 654 q 1000 496 1000 557 l 1000 381 q 1001 333 1000 353 q 1005 287 1002 313 q 1014 243 1008 260 q 1030 214 1019 227 q 1057 199 1042 201 q 1075 196 1069 197 q 1091 189 1082 194 q 1104 176 1100 184 q 1108 154 1108 167 q 1094 49 1108 103 q 1055 -18 1080 -5 q 886 0 972 0 q 828 -5 870 0 q 764 -9 785 -9 q 695 6 720 -9 q 669 61 669 21 q 670 153 669 90 q 671 276 671 216 q 660 502 671 434 q 608 570 648 570 q 532 550 568 570 q 479 487 497 530 l 479 398 q 480 346 479 368 q 484 296 481 324 q 491 249 486 267 q 506 216 496 230 q 529 201 515 202 q 552 196 545 198 q 570 189 559 194 q 584 176 580 184 q 588 154 588 167 q 574 49 588 103 q 535 -18 560 -5 q 319 0 437 0 q 96 -18 197 0 q 57 49 71 -5 q 43 154 43 103 q 47 176 43 167 q 61 189 51 184 q 79 196 71 194 q 102 201 86 198 q 124 214 115 202 q 139 242 134 226 q 146 283 144 258 q 149 326 149 308 q 150 371 150 345 l 150 692 q 149 728 150 715 q 143 762 149 741 q 129 795 138 783 q 101 818 120 807 q 56 831 83 828 q 28 841 34 833 q 22 871 22 849 q 33 967 22 918 q 65 1028 45 1015 q 300 1010 175 1010 q 380 1014 335 1010 q 437 1019 426 1019 q 477 1007 468 1019 q 487 960 487 996 q 480 704 484 907 z "},"i":{"ha":629,"x_min":37,"x_max":604,"o":"m 330 794 q 268 799 300 794 q 197 815 235 804 q 136 851 160 827 q 112 909 112 876 q 326 1028 112 1028 q 418 1017 380 1028 q 474 986 456 1005 q 499 947 492 966 q 506 907 506 928 q 488 851 506 875 q 441 817 469 828 q 385 800 412 805 q 330 794 357 794 m 496 398 q 496 346 496 368 q 500 296 497 325 q 509 248 503 267 q 526 215 515 229 q 552 199 536 201 q 571 196 564 197 q 586 189 577 194 q 600 176 595 184 q 604 154 604 167 q 590 49 604 103 q 551 -18 576 -5 q 334 0 452 0 q 111 -18 212 0 q 72 49 86 -5 q 58 154 58 103 q 62 176 58 167 q 76 189 66 184 q 91 196 85 194 q 110 199 98 197 q 141 218 129 201 q 158 262 153 234 q 165 314 163 290 q 167 371 167 338 l 167 406 q 166 442 167 429 q 160 476 165 456 q 145 509 155 496 q 117 531 136 521 q 71 545 98 542 q 43 555 50 547 q 37 585 37 563 q 49 681 37 632 q 81 742 60 729 q 315 724 191 724 q 394 728 350 724 q 450 733 438 733 q 490 722 480 733 q 499 673 499 710 q 498 618 499 671 q 497 499 498 565 q 496 398 496 433 z "},"j":{"ha":672,"x_min":14,"x_max":610,"o":"m 426 794 q 363 799 396 794 q 293 815 330 804 q 232 851 256 827 q 208 909 208 876 q 421 1028 208 1028 q 513 1017 475 1028 q 569 986 551 1005 q 594 947 587 966 q 602 907 602 928 q 583 851 602 875 q 536 817 565 828 q 480 800 508 805 q 426 794 452 794 m 277 406 l 277 -10 q 276 -68 277 -46 q 269 -112 274 -90 q 251 -144 263 -134 q 220 -154 239 -154 q 194 -147 203 -154 q 181 -130 184 -140 q 172 -108 178 -120 q 160 -85 167 -96 q 135 -68 153 -75 q 90 -62 117 -62 q 36 -81 57 -62 q 14 -136 14 -101 q 26 -198 14 -170 q 54 -242 37 -225 q 98 -272 71 -260 q 147 -291 125 -285 q 201 -300 169 -296 q 250 -303 233 -303 q 292 -304 266 -304 q 394 -290 348 -304 q 472 -253 439 -276 q 528 -194 504 -229 q 567 -120 552 -159 q 591 -32 582 -81 q 603 63 600 17 q 606 163 606 109 l 606 418 q 607 514 606 452 q 609 623 608 575 q 610 673 610 671 q 601 722 610 710 q 561 733 591 733 q 504 728 549 733 q 423 724 458 724 q 192 742 302 724 q 160 681 172 729 q 149 585 149 632 q 155 555 149 563 q 182 545 161 547 q 228 531 210 542 q 256 509 247 521 q 271 476 266 496 q 277 442 276 456 q 277 406 277 429 z "},"k":{"ha":1100,"x_min":24,"x_max":1074,"o":"m 996 743 q 1023 720 1017 737 q 1029 671 1029 703 q 1028 632 1029 644 q 1017 610 1027 621 q 996 595 1007 600 q 956 574 985 590 q 895 537 926 557 l 719 436 q 780 419 753 429 q 825 401 806 410 q 860 381 844 393 q 885 359 876 368 q 903 335 894 351 q 917 309 913 319 q 929 280 921 300 q 943 250 938 260 q 969 209 954 221 q 1011 196 985 196 q 1074 151 1074 196 q 1069 111 1074 144 q 1055 34 1065 77 q 1031 -18 1044 -9 q 984 -5 1029 -10 q 884 0 940 0 q 726 -18 756 0 q 688 19 701 -14 q 665 109 674 53 q 652 178 656 164 q 625 251 639 222 q 601 296 612 280 q 571 319 589 312 q 540 328 553 326 q 500 329 528 329 l 482 329 q 532 201 486 205 q 555 196 547 198 q 572 189 562 194 q 587 176 583 184 q 591 154 591 167 q 577 49 591 103 q 538 -18 563 -5 q 321 0 439 0 q 98 -18 199 0 q 59 49 73 -5 q 45 154 45 103 q 50 176 45 167 q 64 189 54 184 q 81 196 74 194 q 104 201 89 198 q 131 218 121 202 q 146 262 142 234 q 152 314 151 291 q 153 371 153 338 l 153 692 q 153 728 153 715 q 147 762 152 742 q 132 795 142 783 q 104 818 123 807 q 58 831 85 828 q 31 841 37 833 q 24 871 24 849 q 36 967 24 918 q 68 1028 47 1015 q 302 1010 178 1010 q 382 1014 337 1010 q 439 1019 428 1019 q 479 1007 470 1019 q 489 960 489 996 q 487 909 489 957 q 484 800 486 861 q 482 704 482 739 l 482 498 l 632 600 q 639 604 634 601 q 646 609 644 608 q 652 613 648 610 q 657 617 656 616 q 661 622 659 619 q 663 627 663 624 q 664 632 664 629 q 655 659 664 640 q 647 685 647 677 q 665 743 647 726 q 748 730 690 736 q 859 724 805 724 q 996 743 925 724 z "},"l":{"ha":574,"x_min":13,"x_max":565,"o":"m 464 960 q 460 825 464 930 q 456 684 456 720 l 456 398 q 457 346 456 368 q 460 296 458 324 q 468 249 463 267 q 483 216 473 230 q 506 201 492 202 q 529 196 522 198 q 547 189 536 194 q 561 176 557 184 q 565 154 565 167 q 551 49 565 103 q 512 -18 537 -5 q 296 0 414 0 q 73 -18 174 0 q 34 49 47 -5 q 20 154 20 103 q 24 176 20 167 q 38 189 28 184 q 56 196 48 194 q 79 201 63 198 q 105 218 95 202 q 120 262 116 234 q 126 314 125 291 q 127 371 127 338 l 127 690 q 127 720 127 709 q 124 749 127 731 q 117 778 122 767 q 103 801 112 789 q 80 819 95 812 q 47 828 66 826 q 19 838 25 831 q 13 863 13 844 q 26 964 13 911 q 63 1029 39 1016 q 257 1010 108 1010 q 351 1015 300 1010 q 414 1019 401 1019 q 453 1009 443 1019 q 464 960 464 998 z "},"m":{"ha":1531,"x_min":20,"x_max":1510,"o":"m 833 0 q 774 -5 817 0 q 711 -11 732 -11 q 646 4 669 -11 q 623 60 623 20 q 624 152 623 90 q 625 276 625 214 q 612 493 625 431 q 555 556 600 556 q 465 444 465 556 l 465 391 q 466 345 465 361 q 468 303 466 328 q 473 264 469 278 q 482 234 476 250 q 498 210 488 218 q 522 199 509 202 q 558 188 543 199 q 574 154 574 176 q 560 49 574 103 q 521 -18 546 -5 q 318 0 427 0 q 95 -18 195 0 q 56 49 70 -5 q 42 154 42 103 q 58 188 42 176 q 94 199 73 199 q 139 248 129 206 q 150 371 150 289 l 150 389 q 131 506 150 475 q 45 546 111 537 q 25 558 29 549 q 20 596 20 568 q 28 667 20 632 q 46 722 36 702 q 64 742 56 742 q 278 724 183 724 q 363 728 317 724 q 422 733 409 733 q 461 723 451 733 q 471 673 471 712 l 470 631 q 742 742 591 742 q 847 714 800 742 q 922 632 895 687 q 1043 717 985 692 q 1177 742 1101 742 q 1341 676 1276 742 q 1407 481 1407 610 q 1404 432 1407 465 q 1402 381 1402 399 q 1403 341 1402 357 q 1404 302 1403 325 q 1409 264 1406 279 q 1418 233 1413 248 q 1431 210 1423 218 q 1451 201 1440 202 q 1459 199 1453 201 q 1468 198 1466 198 q 1476 196 1470 197 q 1484 194 1482 195 q 1491 191 1486 193 q 1497 186 1495 189 q 1502 181 1499 184 q 1507 174 1506 178 q 1509 165 1508 170 q 1510 154 1510 160 q 1496 49 1510 103 q 1457 -18 1482 -5 q 1289 0 1375 0 q 1236 -5 1274 0 q 1179 -11 1198 -11 q 1114 4 1137 -11 q 1090 60 1090 20 q 1092 152 1090 90 q 1093 276 1093 214 q 1092 341 1093 315 q 1090 397 1092 367 q 1087 446 1089 427 q 1080 485 1084 465 q 1070 516 1076 505 q 1056 538 1065 528 q 1037 552 1048 548 q 1011 556 1025 556 q 976 544 991 556 q 954 512 961 532 q 943 473 946 492 q 940 435 940 454 q 968 201 940 206 q 977 199 970 201 q 985 198 983 198 q 993 196 987 197 q 1001 194 999 195 q 1008 191 1003 193 q 1015 186 1013 189 q 1020 181 1017 184 q 1024 174 1023 178 q 1026 165 1025 170 q 1027 154 1027 160 q 1016 49 1027 103 q 981 -18 1004 -5 q 833 0 906 0 z "},"n":{"ha":1097,"x_min":20,"x_max":1076,"o":"m 854 0 q 796 -5 838 0 q 732 -11 753 -11 q 663 4 688 -11 q 637 60 637 20 q 638 152 637 90 q 640 276 640 214 q 626 493 640 429 q 568 556 613 556 q 479 444 479 556 l 479 391 q 479 345 479 361 q 481 303 479 328 q 485 264 482 278 q 494 234 488 250 q 508 210 499 218 q 529 199 517 202 q 565 188 549 199 q 581 154 581 176 q 567 49 581 103 q 528 -18 553 -5 q 318 0 431 0 q 95 -18 195 0 q 56 49 70 -5 q 42 154 42 103 q 58 188 42 176 q 94 199 73 199 q 139 248 129 206 q 150 371 150 289 l 150 389 q 131 506 150 475 q 45 546 111 537 q 25 558 29 549 q 20 596 20 568 q 28 667 20 632 q 46 722 36 702 q 64 742 56 742 q 278 724 183 724 q 369 728 321 724 q 430 733 416 733 q 469 723 459 733 q 479 673 479 712 l 478 631 q 593 713 530 685 q 723 742 657 742 q 818 726 774 742 q 898 680 863 711 q 952 598 932 649 q 972 481 972 547 q 970 432 972 465 q 968 381 968 399 q 969 341 968 357 q 970 302 969 325 q 975 264 972 279 q 984 233 979 248 q 997 210 989 218 q 1017 201 1006 202 q 1025 199 1019 201 q 1034 198 1032 198 q 1042 196 1036 197 q 1050 194 1048 195 q 1057 191 1052 193 q 1063 186 1061 189 q 1068 181 1065 184 q 1073 174 1072 178 q 1075 165 1074 170 q 1076 154 1076 160 q 1062 49 1076 103 q 1023 -18 1048 -5 q 854 0 941 0 z "},"o":{"ha":948,"x_min":41,"x_max":907,"o":"m 475 -18 q 160 81 279 -18 q 41 359 41 180 q 150 640 41 538 q 467 742 260 742 q 647 720 567 742 q 786 652 727 697 q 876 536 844 608 q 907 369 907 464 q 793 82 907 183 q 475 -18 680 -18 m 403 359 q 418 171 403 231 q 477 111 433 111 q 504 120 492 111 q 523 148 516 129 q 535 188 530 167 q 542 241 540 208 q 545 302 544 275 q 545 370 545 329 q 545 421 545 401 q 543 476 545 441 q 536 532 541 510 q 524 577 532 554 q 504 612 517 600 q 475 623 492 623 q 416 563 430 623 q 403 359 403 503 z "},"p":{"ha":993,"x_min":29,"x_max":964,"o":"m 467 62 q 468 13 467 33 q 474 -31 469 -7 q 489 -70 478 -56 q 515 -85 499 -83 q 538 -90 531 -87 q 556 -96 546 -92 q 570 -110 566 -101 q 574 -132 574 -119 q 561 -237 574 -182 q 522 -304 547 -291 q 305 -286 423 -286 q 82 -304 183 -286 q 43 -237 57 -291 q 29 -132 29 -182 q 33 -110 29 -119 q 47 -96 37 -101 q 65 -90 58 -92 q 88 -85 73 -87 q 115 -67 104 -83 q 131 -23 126 -51 q 137 29 136 5 q 138 85 138 53 l 138 375 q 132 454 138 422 q 117 502 126 486 q 96 526 107 517 q 72 538 84 535 q 51 543 60 541 q 35 554 41 546 q 29 577 29 562 q 33 631 29 600 q 49 697 37 662 q 79 743 61 732 q 271 724 136 724 q 357 728 309 724 q 428 733 406 733 q 446 718 444 733 q 449 633 449 703 q 531 717 473 692 q 662 742 589 742 q 778 723 726 742 q 864 673 829 705 q 921 596 899 641 q 954 500 944 551 q 964 390 964 449 q 937 228 964 300 q 863 107 910 155 q 752 34 815 60 q 616 9 688 9 q 467 62 519 9 m 461 349 q 464 262 461 299 q 475 195 467 226 q 498 147 484 163 q 536 131 513 131 q 604 365 604 131 q 586 536 604 471 q 534 602 568 602 q 510 597 521 602 q 492 581 500 592 q 479 558 485 570 q 471 527 474 547 q 465 490 467 507 q 463 446 463 473 q 461 400 462 419 q 461 349 461 380 z "},"q":{"ha":970,"x_min":24,"x_max":957,"o":"m 453 131 q 513 346 513 131 l 513 368 q 513 416 513 397 q 511 464 513 434 q 505 513 509 494 q 494 552 501 532 q 476 582 488 572 q 450 591 465 591 q 387 349 387 591 q 389 273 387 305 q 397 205 391 241 q 417 150 404 170 q 453 131 431 131 m 693 -286 q 441 -306 571 -286 q 409 -244 420 -293 q 397 -149 397 -196 q 404 -119 397 -127 q 431 -109 410 -111 q 484 -96 462 -106 q 516 -75 505 -86 q 532 -44 527 -64 q 539 -12 538 -24 q 540 21 540 0 q 363 -18 455 -18 q 235 9 296 -18 q 127 87 174 37 q 53 213 81 137 q 24 380 24 289 q 45 508 24 449 q 102 609 66 567 q 186 682 138 652 q 290 727 235 712 q 406 742 346 742 q 698 680 565 742 q 833 733 778 733 q 909 663 909 733 q 893 621 909 645 q 862 583 878 597 l 846 568 q 842 33 842 486 q 843 3 842 14 q 845 -26 843 -8 q 853 -55 848 -44 q 866 -79 858 -66 q 889 -98 875 -91 q 923 -106 904 -104 q 951 -117 945 -109 q 957 -147 957 -125 q 945 -242 957 -194 q 913 -304 934 -291 q 693 -286 811 -286 z "},"r":{"ha":767,"x_min":18,"x_max":749,"o":"m 476 364 q 477 310 476 332 q 484 260 479 288 q 501 217 489 233 q 532 199 513 201 q 551 196 545 197 q 567 189 557 194 q 580 176 576 184 q 584 154 584 167 q 570 49 584 103 q 531 -18 556 -5 q 315 0 433 0 q 92 -18 193 0 q 53 49 66 -5 q 39 154 39 103 q 43 176 39 167 q 56 189 47 184 q 72 196 65 194 q 90 199 78 197 q 121 216 109 201 q 139 255 134 230 q 145 301 144 280 q 147 351 147 321 l 147 406 q 146 442 147 429 q 140 476 145 456 q 125 509 135 496 q 97 531 116 521 q 52 545 79 542 q 24 555 30 547 q 18 585 18 563 q 29 681 18 632 q 61 743 41 730 q 281 724 168 724 q 346 728 309 724 q 392 733 382 733 q 432 722 422 733 q 441 673 441 710 q 439 621 441 664 q 620 742 522 742 q 716 708 683 742 q 749 624 749 673 q 709 520 749 566 q 602 475 668 475 l 561 552 q 507 529 530 552 q 476 454 483 507 l 476 364 z "},"s":{"ha":771,"x_min":24,"x_max":747,"o":"m 747 220 q 720 112 747 159 q 644 37 693 65 q 530 -5 595 9 q 385 -18 465 -18 q 136 24 219 -18 q 53 125 53 67 q 97 201 53 169 q 212 233 142 233 l 264 135 q 342 125 303 125 q 397 138 374 125 q 420 169 420 151 q 403 204 420 187 q 356 235 385 221 q 299 259 328 248 q 239 280 270 269 q 195 296 208 290 q 68 390 113 336 q 24 521 24 444 q 57 618 24 575 q 144 688 90 662 q 263 728 198 714 q 399 742 329 742 q 624 695 541 742 q 707 592 707 648 q 668 532 707 555 q 559 508 630 508 l 515 591 q 476 607 508 600 q 411 614 444 614 q 337 574 337 614 q 369 530 337 553 q 452 492 400 507 q 510 476 486 483 q 567 455 533 469 q 623 429 600 442 q 671 394 646 415 q 711 349 696 373 q 736 292 726 325 q 747 220 747 259 z "},"t":{"ha":624,"x_min":2,"x_max":622,"o":"m 522 127 q 597 159 545 127 q 622 96 622 148 q 614 64 622 77 q 508 2 577 23 q 368 -19 439 -19 q 282 -12 320 -19 q 217 14 244 -4 q 171 51 191 33 q 140 103 152 68 q 121 162 128 137 q 111 233 114 186 q 108 307 109 279 q 107 390 107 335 l 107 572 l 72 572 q 2 597 2 572 q 20 692 2 642 q 42 719 27 714 q 109 724 58 724 q 144 743 131 724 q 176 823 157 762 q 328 978 237 978 q 436 935 391 978 l 436 758 q 437 728 436 733 q 445 724 438 724 l 565 724 q 588 705 583 724 q 594 654 594 687 q 573 587 594 602 q 498 572 552 572 l 436 572 l 436 358 q 437 288 436 317 q 441 232 438 260 q 450 186 444 203 q 466 154 456 168 q 489 134 475 140 q 522 127 503 127 z "},"u":{"ha":1112,"x_min":27,"x_max":1085,"o":"m 656 406 q 655 442 656 429 q 649 476 654 455 q 635 509 644 497 q 607 531 626 521 q 562 545 589 542 q 534 555 540 547 q 528 585 528 563 q 539 681 528 632 q 571 742 551 729 q 798 724 677 724 q 883 728 836 724 q 943 733 931 733 q 981 722 973 733 q 989 673 989 711 q 988 624 989 671 q 986 511 987 576 q 985 401 985 446 q 985 339 985 360 q 988 288 985 317 q 997 243 991 258 q 1014 214 1003 227 q 1042 197 1025 201 q 1050 196 1043 197 q 1062 194 1057 195 q 1073 188 1067 192 q 1082 172 1079 183 q 1085 146 1085 161 q 1082 101 1085 132 q 1064 30 1078 70 q 1029 -18 1050 -11 q 1010 -14 1025 -17 q 990 -9 996 -10 q 969 -6 985 -8 q 939 -2 953 -3 q 901 -1 924 -1 q 848 0 877 0 q 758 -3 804 0 q 701 -7 713 -7 q 644 85 644 -7 q 548 4 607 27 q 405 -18 490 -18 q 327 -11 362 -18 q 266 14 292 -3 q 220 52 240 31 q 186 103 200 73 q 164 164 173 133 q 151 237 155 196 q 144 318 146 279 q 142 406 142 357 q 141 452 142 435 q 132 492 139 469 q 107 528 125 515 q 61 544 90 541 q 33 555 39 547 q 27 585 27 563 q 39 681 27 632 q 71 742 50 729 q 278 724 165 724 q 367 728 317 724 q 429 733 416 733 q 469 722 460 733 q 479 673 479 710 q 477 624 479 671 q 473 516 475 578 q 471 416 471 454 q 472 333 471 359 q 475 269 472 306 q 483 216 477 232 q 499 183 489 200 q 525 160 509 165 q 563 154 541 154 q 595 160 581 154 q 620 176 610 166 q 636 204 629 186 q 647 241 643 222 q 652 288 650 259 q 655 343 654 317 q 656 406 656 368 z "},"v":{"ha":881,"x_min":1,"x_max":871,"o":"m 292 59 q 216 238 279 87 q 119 460 152 390 q 83 518 102 498 q 51 542 64 538 q 25 548 37 546 q 7 558 14 550 q 1 589 1 566 q 7 700 1 671 q 29 742 12 728 q 244 724 157 724 q 465 743 377 724 q 487 704 480 737 q 493 591 493 671 q 483 566 493 574 q 462 556 473 557 q 440 548 450 555 q 431 526 431 541 q 464 433 431 522 q 505 322 497 344 q 527 283 519 283 q 545 314 535 283 q 596 439 562 351 q 631 533 631 527 q 621 551 631 545 q 601 560 612 557 q 580 571 589 562 q 570 595 570 580 q 608 743 570 733 q 740 724 686 724 q 847 742 795 724 q 851 743 848 743 q 863 731 859 743 q 869 696 867 720 q 871 654 871 671 q 871 604 871 637 q 863 565 871 577 q 842 552 855 553 q 814 549 829 550 q 784 537 800 548 q 760 502 769 526 q 681 301 732 429 q 594 83 631 174 l 557 -8 q 394 -19 557 -19 q 332 -5 353 -19 q 292 59 311 9 z "},"w":{"ha":1377,"x_min":1,"x_max":1368,"o":"m 258 59 q 213 181 244 96 q 155 340 182 267 q 105 467 127 412 q 73 525 90 505 q 44 549 56 545 q 22 555 33 553 q 6 565 12 557 q 1 595 1 573 q 6 702 1 675 q 26 743 11 730 q 244 724 163 724 q 465 743 377 724 q 487 704 480 737 q 493 591 493 671 q 485 568 493 575 q 469 560 477 561 q 452 553 460 559 q 444 532 444 547 q 459 487 444 530 q 489 398 473 444 q 505 349 504 353 q 517 327 512 327 q 522 332 519 327 q 526 343 524 338 l 528 349 l 597 538 q 578 552 589 549 q 563 563 567 555 q 559 595 559 570 q 564 702 559 675 q 583 742 568 729 q 754 724 690 724 q 981 743 891 724 q 1003 704 997 737 q 1010 591 1010 671 q 1002 568 1010 575 q 985 560 994 561 q 969 553 977 559 q 961 532 961 547 q 976 487 961 530 q 1005 398 990 444 q 1022 349 1021 353 q 1034 327 1029 327 q 1040 338 1036 327 q 1045 349 1044 349 l 1056 377 q 1080 438 1067 406 q 1103 501 1093 471 q 1114 533 1114 530 q 1106 551 1114 545 q 1090 560 1099 557 q 1074 571 1082 562 q 1067 595 1067 580 q 1104 743 1067 733 q 1236 724 1183 724 q 1343 742 1292 724 q 1348 743 1344 743 q 1359 731 1355 743 q 1365 696 1364 720 q 1368 654 1367 671 q 1368 604 1368 637 q 1360 565 1368 577 q 1338 552 1352 553 q 1311 549 1325 550 q 1281 537 1297 548 q 1256 502 1265 526 q 1054 -8 1227 426 q 884 -19 1054 -19 q 821 -5 842 -19 q 781 59 800 9 q 729 200 765 101 q 675 345 693 298 l 544 -8 q 360 -19 544 -19 q 298 -5 319 -19 q 258 59 277 9 z "},"x":{"ha":1026,"x_min":39,"x_max":985,"o":"m 536 201 l 454 284 q 368 191 368 193 q 379 173 368 179 q 402 164 389 166 q 425 153 414 161 q 435 128 435 144 q 398 -19 435 -9 q 205 0 286 0 q 64 -18 134 0 q 60 -19 62 -19 q 48 -8 52 -19 q 42 28 43 3 q 40 70 40 52 q 39 119 39 87 q 50 154 39 142 q 75 168 61 165 q 109 179 90 171 q 142 201 129 187 q 229 283 159 218 q 339 386 298 348 q 297 425 323 401 q 255 463 271 449 q 231 483 239 477 q 155 532 189 515 q 109 550 121 549 q 91 559 96 551 q 85 589 85 566 q 90 700 85 671 q 113 742 96 728 q 361 724 259 724 q 559 743 481 724 q 582 708 575 738 q 588 604 588 677 q 580 579 588 587 q 564 570 572 571 q 547 562 555 569 q 539 539 539 555 q 544 532 539 538 l 616 452 q 705 553 705 549 q 697 568 705 565 q 679 570 688 571 q 660 574 669 568 q 652 595 652 580 q 689 743 652 733 q 842 724 779 724 q 942 742 895 724 q 946 743 943 743 q 958 731 954 743 q 964 696 962 720 q 966 654 966 671 q 966 604 966 637 q 956 570 966 581 q 930 555 945 558 q 897 545 916 553 q 864 522 877 536 q 724 378 795 453 q 871 241 861 250 q 923 202 899 218 q 957 183 947 186 q 975 174 967 180 q 984 162 983 169 q 985 135 985 155 q 980 24 985 52 q 958 -18 975 -5 q 743 0 829 0 q 522 -19 610 0 q 500 19 507 -14 q 494 133 494 52 q 500 158 494 150 q 515 168 507 167 q 529 177 523 170 q 536 201 536 185 z "},"y":{"ha":964,"x_min":16,"x_max":940,"o":"m 661 150 q 523 -77 564 -19 q 366 -216 444 -188 q 294 -229 332 -229 q 210 -215 254 -229 q 131 -169 165 -200 q 96 -97 96 -137 q 106 -42 96 -67 q 140 -16 117 -16 q 252 -33 225 -33 q 287 -33 277 -33 q 313 -27 297 -33 q 335 -16 328 -22 q 356 9 341 -10 q 381 47 370 28 q 415 106 393 66 l 353 106 q 132 486 201 370 q 95 531 114 515 q 63 550 77 547 q 38 555 50 553 q 21 564 27 557 q 16 589 16 571 q 21 700 16 671 q 43 742 26 728 q 258 724 172 724 q 465 743 382 724 q 487 704 481 737 q 494 591 494 671 q 486 566 494 574 q 469 556 479 557 q 452 548 460 555 q 445 526 445 541 q 454 507 445 524 q 475 464 463 489 q 500 414 488 439 q 523 370 513 389 q 534 347 533 350 q 555 322 547 322 q 574 347 564 322 q 600 405 576 352 q 638 490 624 457 q 652 526 652 522 q 641 544 652 537 q 618 552 631 550 q 595 564 606 555 q 585 589 585 572 q 629 743 585 732 q 802 724 730 724 q 916 742 861 724 q 920 743 916 743 q 931 731 927 743 q 938 696 936 720 q 940 654 939 671 q 940 604 940 637 q 935 568 940 581 q 923 550 930 554 q 906 542 916 545 q 885 537 896 539 q 863 526 875 535 q 843 501 852 517 q 784 392 814 450 q 715 258 753 334 q 661 150 677 182 z "},"z":{"ha":789,"x_min":43,"x_max":751,"o":"m 104 -8 q 96 -9 101 -9 q 43 85 43 -9 q 80 180 43 125 q 175 315 110 224 q 288 478 239 407 q 366 603 336 549 l 323 603 q 255 578 291 603 q 197 529 219 553 q 174 505 174 505 q 61 520 61 505 q 94 733 61 613 q 406 724 346 724 q 696 734 569 724 q 731 715 722 731 q 739 662 739 699 q 667 511 739 620 l 488 245 l 427 151 l 483 151 q 566 186 530 151 q 633 296 601 221 q 643 296 636 296 q 653 296 650 296 q 751 235 751 296 q 728 109 751 193 q 688 -10 704 25 q 318 0 454 0 q 104 -8 208 0 z "},"{":{"ha":655,"x_min":30,"x_max":629,"o":"m 99 392 q 93 394 99 392 q 68 395 86 395 q 40 416 51 395 q 30 465 30 437 q 40 512 30 492 q 68 532 51 532 q 99 535 86 532 q 121 542 112 538 q 136 556 130 546 q 145 573 142 566 q 149 598 148 581 q 151 627 151 616 q 151 664 151 639 q 171 822 151 751 q 222 939 191 892 q 297 1017 254 985 q 384 1062 339 1048 q 473 1076 428 1076 q 583 1054 538 1076 q 629 1001 629 1033 q 550 924 629 924 q 520 928 540 924 q 494 933 500 933 q 460 917 471 933 q 444 850 449 900 q 438 698 438 800 q 290 464 438 536 q 438 230 438 391 q 444 78 438 128 q 460 11 449 28 q 494 -5 471 -5 q 519 -1 500 -5 q 550 3 539 3 q 608 -13 587 3 q 629 -73 629 -30 q 584 -126 629 -105 q 473 -148 538 -148 q 384 -134 428 -148 q 297 -89 339 -121 q 222 -11 254 -58 q 171 106 191 35 q 151 264 151 177 q 151 300 151 289 q 149 330 151 312 q 145 355 148 347 q 136 372 142 362 q 121 386 130 382 q 99 392 112 389 z "},"|":{"ha":368,"x_min":63,"x_max":302,"o":"m 69 481 q 66 772 69 496 q 63 1063 63 1048 q 93 1100 63 1090 q 196 1109 123 1109 q 277 1103 252 1109 q 302 1075 302 1097 q 302 1031 302 1063 q 300 926 301 999 q 299 739 299 852 q 299 438 299 575 q 299 218 299 300 q 300 79 300 136 q 300 -8 300 22 q 300 -43 300 -37 q 293 -74 300 -61 q 276 -93 286 -87 q 249 -103 266 -100 q 218 -108 231 -107 q 182 -109 204 -109 q 142 -107 157 -109 q 109 -102 127 -106 q 81 -86 90 -98 q 73 -58 73 -75 q 71 169 73 -23 q 69 481 69 360 z "},"}":{"ha":656,"x_min":27,"x_max":626,"o":"m 615 416 q 610 406 615 416 q 587 395 605 395 q 557 392 570 395 q 535 386 544 389 q 520 372 526 382 q 511 355 514 362 q 507 330 508 347 q 505 300 505 312 q 505 264 505 289 q 485 106 505 177 q 433 -11 465 35 q 359 -89 401 -58 q 272 -134 317 -121 q 182 -148 228 -148 q 72 -126 117 -148 q 27 -73 27 -105 q 48 -13 27 -30 q 106 3 69 3 q 136 -1 117 3 q 162 -5 156 -5 q 196 11 184 -5 q 212 78 207 28 q 218 230 218 128 q 366 464 218 391 q 218 698 218 536 q 212 850 218 800 q 196 917 207 900 q 162 933 184 933 q 136 928 156 933 q 106 924 117 924 q 27 1001 27 924 q 73 1054 27 1033 q 182 1076 118 1076 q 272 1062 228 1076 q 359 1017 317 1048 q 433 939 401 985 q 485 822 465 892 q 505 664 505 751 q 505 627 505 639 q 507 598 505 616 q 511 573 508 581 q 520 556 514 566 q 535 542 526 546 q 557 535 544 538 q 587 532 570 532 q 615 512 605 532 q 626 465 626 492 q 615 416 626 437 z "},"~":{"ha":694,"x_min":50,"x_max":645,"o":"m 624 696 q 645 577 645 629 q 611 468 645 509 q 504 427 576 427 q 403 443 460 427 q 299 476 345 460 q 236 493 252 493 q 206 477 213 493 q 199 432 199 460 q 138 422 195 422 q 60 432 62 422 q 50 519 50 478 q 57 584 50 554 q 82 639 65 614 q 129 679 98 665 q 201 693 159 693 q 294 677 239 693 q 393 645 348 661 q 452 629 437 629 q 482 642 471 629 q 492 694 492 656 q 502 696 492 695 q 528 699 511 697 q 558 700 544 700 q 624 696 599 700 z "},"":{"ha":170,"x_min":0,"x_max":0,"o":""},"":{"ha":446,"x_min":28,"x_max":419,"o":"m 179 1023 q 193 1026 179 1023 q 231 1028 206 1028 q 280 1023 255 1028 q 332 1006 306 1017 q 376 971 359 994 q 393 916 393 947 q 386 875 393 894 q 363 837 379 856 q 311 806 347 817 q 226 794 276 794 q 53 913 53 794 q 73 971 53 947 q 122 1007 92 996 q 179 1023 153 1019 m 224 726 q 267 726 252 726 q 293 721 281 725 q 308 714 304 718 q 315 699 312 710 q 318 678 318 688 q 319 647 317 668 q 323 607 321 627 q 359 388 334 527 q 401 147 383 248 q 419 33 419 46 q 405 -7 419 5 q 358 -20 390 -20 l 90 -20 q 43 -7 58 -20 q 28 33 28 5 q 46 147 28 46 q 88 388 64 248 q 124 607 113 528 q 128 648 127 627 q 130 679 130 669 q 132 699 130 688 q 139 714 135 710 q 155 721 143 718 q 182 726 167 725 q 224 726 197 726 z "},"":{"ha":801,"x_min":41,"x_max":775,"o":"m 754 326 l 775 292 q 590 56 775 101 l 590 -177 q 588 -188 589 -179 q 586 -197 587 -197 q 579 -202 585 -198 q 562 -206 573 -205 q 531 -206 551 -206 q 510 -200 517 -206 q 503 -178 503 -195 q 502 -70 503 -149 q 500 43 500 8 q 463 43 488 43 l 441 43 l 441 -177 q 439 -188 440 -179 q 437 -197 438 -197 q 430 -202 435 -198 q 413 -206 424 -205 q 382 -206 401 -206 q 360 -200 368 -206 q 353 -178 353 -195 q 352 -65 353 -147 q 351 54 351 16 q 180 129 252 73 q 75 258 109 185 q 41 413 41 331 q 61 541 41 480 q 119 653 81 602 q 218 742 157 705 q 357 793 279 779 q 353 1006 355 994 q 407 1028 353 1028 q 446 1014 441 1028 q 441 916 441 943 l 441 803 q 463 804 448 804 q 506 802 477 804 q 503 1006 505 993 q 556 1028 503 1028 q 595 1014 591 1028 q 590 916 590 943 l 590 791 q 709 734 668 777 q 750 641 750 692 q 710 553 750 590 q 603 517 671 517 l 534 658 q 486 667 519 667 q 398 615 427 667 q 369 488 369 563 q 420 327 369 385 q 549 269 471 269 q 754 326 658 269 z "},"":{"ha":1029,"x_min":39,"x_max":1006,"o":"m 160 570 l 174 570 l 174 654 q 272 931 174 833 q 533 1028 369 1028 q 707 970 621 1028 q 708 974 708 972 q 719 1002 714 995 q 742 1014 724 1010 q 800 1018 760 1018 l 880 1013 q 897 966 886 995 q 925 867 907 937 q 942 751 942 797 q 895 710 942 725 q 802 694 848 694 q 777 708 789 694 q 755 741 764 721 q 732 783 746 760 q 704 825 719 806 q 662 858 688 845 q 603 871 635 871 q 525 845 547 871 q 503 771 503 819 q 529 672 503 741 q 557 571 555 603 l 618 571 q 715 573 688 571 q 739 515 739 564 q 702 451 739 451 q 557 455 691 455 l 557 285 q 579 138 557 138 q 661 150 625 138 q 717 182 696 162 q 754 227 739 202 q 781 278 770 251 q 802 328 791 304 q 828 371 812 351 q 863 400 843 391 q 889 405 871 405 q 967 386 928 405 q 1006 343 1006 368 q 964 182 999 292 q 902 9 929 72 q 858 -19 890 -19 q 833 -17 857 -19 q 770 -12 810 -15 q 676 -7 729 -9 q 547 -2 623 -4 q 393 0 471 0 q 92 -18 218 0 q 53 49 67 -5 q 39 154 39 103 q 43 176 39 167 q 57 189 47 184 q 72 196 66 194 q 91 199 79 197 q 135 215 117 201 q 161 251 153 228 q 172 296 169 274 q 174 349 174 319 l 174 455 q 76 450 81 452 q 39 514 39 450 q 63 572 39 562 q 160 570 81 570 z "},"":{"ha":714,"x_min":38,"x_max":674,"o":"m 355 465 q 222 498 277 465 l 173 448 q 119 388 120 392 q 101 380 111 380 q 62 402 85 380 q 38 441 38 424 q 41 448 38 444 q 49 458 43 452 q 61 470 55 464 q 78 487 67 476 q 98 507 89 498 l 153 562 q 111 701 111 623 q 155 844 111 783 l 139 860 q 47 947 54 944 q 39 964 39 954 q 61 1004 39 980 q 100 1027 83 1027 q 106 1025 102 1027 q 117 1017 111 1023 q 129 1005 123 1011 q 145 988 134 1000 q 165 968 157 977 l 227 907 q 355 939 281 939 q 486 907 429 939 l 547 968 q 566 987 556 977 q 583 1004 576 998 q 595 1017 589 1010 q 605 1025 601 1023 q 612 1027 609 1027 q 650 1004 629 1027 q 672 964 672 981 q 665 947 672 953 q 639 924 662 945 q 594 881 616 902 l 573 860 l 558 845 q 606 701 606 783 q 560 560 606 622 l 614 507 q 629 492 621 500 q 642 479 637 484 q 653 469 647 475 q 662 459 659 463 q 668 451 665 455 q 673 445 671 448 q 674 441 674 443 q 650 402 674 424 q 611 380 627 380 q 593 388 601 380 q 579 405 593 390 q 552 434 566 420 l 539 448 l 490 498 q 355 465 433 465 m 503 701 q 459 817 503 775 q 355 859 415 859 q 253 817 296 859 q 210 701 210 775 q 253 586 210 627 q 355 545 296 545 q 459 587 416 545 q 503 701 503 628 z "},"":{"ha":1185,"x_min":31,"x_max":1149,"o":"m 322 410 q 350 411 323 410 q 399 411 378 411 l 399 486 q 218 481 224 484 q 180 546 180 481 q 205 604 180 594 q 302 602 231 602 l 323 602 l 307 624 q 266 677 281 658 q 223 725 250 696 q 168 771 196 753 q 111 798 140 789 q 88 803 102 800 q 68 807 73 806 q 53 815 62 809 q 41 832 44 822 q 34 861 37 842 q 31 905 31 879 l 31 915 q 39 984 31 948 q 60 1019 46 1019 q 343 1000 208 1000 q 594 1019 423 1000 q 616 955 604 1019 q 629 854 629 891 q 621 836 629 842 q 602 829 612 830 q 583 823 591 827 q 574 808 574 818 q 587 776 574 795 l 665 655 q 761 799 748 779 q 766 814 766 807 q 753 826 766 821 q 726 839 739 831 q 713 863 713 848 l 713 873 q 743 1020 713 1006 q 923 1000 834 1000 q 1031 1010 953 1000 q 1131 1019 1109 1019 q 1149 901 1149 1019 l 1149 878 q 1138 839 1149 851 q 1107 824 1127 827 q 1066 819 1088 821 q 1017 803 1044 817 q 970 761 990 789 q 901 668 942 722 q 853 603 861 613 l 887 603 q 984 605 958 603 q 1008 547 1008 595 q 971 483 1008 483 q 929 485 968 484 q 854 487 890 486 l 817 487 l 779 487 l 779 412 l 867 412 q 964 414 937 412 q 988 356 988 404 q 951 292 988 292 q 909 294 947 293 q 834 296 871 295 l 797 296 l 784 296 q 836 199 795 204 q 854 196 848 197 q 870 189 861 194 q 883 176 879 184 q 887 154 887 167 q 873 49 887 103 q 834 -18 859 -5 q 589 0 739 0 q 345 -18 439 0 q 306 49 319 -5 q 292 154 292 103 q 296 176 292 167 q 309 189 300 184 q 325 196 318 194 q 343 199 331 197 q 394 294 384 204 q 238 290 243 292 q 201 355 201 290 q 225 412 201 403 q 322 410 252 410 z "},"":{"ha":356,"x_min":62,"x_max":294,"o":"m 293 397 q 293 179 293 325 q 294 -43 294 33 q 287 -74 294 -61 q 270 -93 279 -87 q 242 -103 260 -100 q 212 -108 225 -107 q 176 -109 198 -109 q 136 -107 151 -109 q 102 -102 121 -106 q 75 -86 84 -98 q 66 -58 66 -75 q 64 123 66 -37 q 62 374 62 283 q 85 421 62 411 q 186 432 108 432 q 268 426 243 432 q 293 397 293 419 m 293 1075 l 294 669 q 287 638 294 651 q 270 619 279 625 q 242 609 260 612 q 212 604 225 605 q 176 604 198 604 q 136 605 151 604 q 102 610 121 606 q 75 626 84 614 q 66 654 66 637 q 65 726 66 674 q 63 817 63 779 q 63 940 63 831 q 62 1063 62 1048 q 89 1100 62 1090 q 186 1109 115 1109 q 268 1103 243 1109 q 293 1075 293 1097 z "},"":{"ha":812,"x_min":47,"x_max":769,"o":"m 307 399 q 374 375 332 390 q 438 352 416 360 q 486 336 460 345 q 527 323 513 327 q 547 319 541 319 q 556 329 552 319 q 561 353 561 338 q 517 424 561 407 q 412 466 476 440 q 316 504 347 492 q 277 516 286 516 q 267 506 271 516 q 262 482 262 496 q 307 399 262 417 m 720 254 q 767 120 767 189 q 745 36 767 75 q 680 -36 724 -3 q 563 -86 637 -68 q 394 -105 490 -105 q 228 -81 307 -105 q 99 -11 150 -58 q 47 96 47 37 q 138 153 47 153 q 179 153 157 153 q 204 153 201 153 q 264 138 248 153 q 293 83 281 122 q 317 50 298 61 q 363 38 337 38 q 418 50 394 38 q 443 82 443 62 q 438 102 443 92 q 421 121 433 112 q 399 138 410 130 q 370 153 389 145 q 339 166 352 161 q 306 179 327 172 q 275 189 285 186 q 245 198 265 192 q 90 284 134 233 q 47 420 47 336 q 111 578 47 511 q 55 713 55 645 q 157 875 55 809 q 421 941 260 941 q 737 762 737 941 q 734 746 737 754 q 724 729 732 739 q 696 713 715 719 q 647 707 676 707 q 610 706 629 707 q 587 706 590 706 q 549 711 565 706 q 524 731 534 717 q 510 754 514 745 q 498 785 505 763 q 473 805 493 798 q 425 812 452 812 q 379 801 399 812 q 359 772 359 791 q 391 728 359 751 q 474 690 422 705 q 532 674 509 681 q 589 653 555 667 q 645 627 623 640 q 693 592 668 613 q 734 547 719 571 q 759 490 749 523 q 769 418 769 457 q 720 254 769 323 z "},"":{"ha":723,"x_min":51,"x_max":672,"o":"m 86 815 q 68 833 86 815 q 51 903 51 851 q 86 991 51 956 q 190 1027 121 1027 q 291 991 257 1027 q 324 903 324 955 q 291 815 324 852 q 190 779 257 779 q 86 815 121 779 m 434 815 q 416 833 434 815 q 399 903 399 851 q 434 991 399 956 q 538 1027 469 1027 q 638 991 605 1027 q 672 903 672 955 q 638 815 672 852 q 538 779 605 779 q 434 815 469 779 z "},"":{"ha":1164,"x_min":43,"x_max":1122,"o":"m 587 -18 q 382 17 479 -18 q 208 118 284 53 q 87 284 132 183 q 43 507 43 385 q 114 786 43 667 q 309 966 185 905 q 592 1028 433 1028 q 809 989 709 1028 q 977 881 909 949 q 1084 718 1046 812 q 1122 514 1122 623 q 1050 240 1122 363 q 857 50 979 117 q 587 -18 734 -18 m 588 75 q 801 131 704 75 q 954 288 897 187 q 1011 514 1011 389 q 960 731 1011 635 q 812 882 908 827 q 592 937 716 937 q 369 887 467 937 q 214 738 271 836 q 157 509 157 640 q 193 325 157 408 q 289 188 229 241 q 426 104 349 134 q 588 75 503 75 m 610 218 q 469 244 532 218 q 369 312 407 269 q 312 407 332 355 q 292 516 292 459 q 310 622 292 571 q 360 712 328 672 q 444 777 392 753 q 557 802 495 802 q 630 794 600 802 q 697 766 661 787 q 696 778 696 776 q 704 793 696 789 q 741 797 713 797 q 788 791 774 797 q 811 766 802 786 q 827 702 821 747 q 833 651 833 667 q 826 620 833 626 q 792 612 819 614 q 751 608 755 608 q 724 629 736 608 q 677 678 704 661 q 623 695 650 695 q 554 661 582 695 q 527 564 527 626 q 574 427 527 479 q 688 374 621 374 q 825 412 759 374 q 839 358 839 385 q 778 260 839 301 q 610 218 716 218 z "},"":{"ha":615,"x_min":33,"x_max":582,"o":"m 319 616 q 256 568 294 584 q 179 551 218 551 q 69 592 104 551 q 33 694 33 633 q 44 763 33 734 q 73 808 56 791 q 119 834 91 825 q 175 847 147 844 q 241 850 203 850 q 272 849 256 850 q 296 846 288 848 l 304 844 l 304 895 q 294 930 304 920 q 264 940 285 940 q 195 924 231 940 q 138 894 159 909 l 118 878 q 77 928 77 878 q 99 983 77 961 q 160 1014 121 1004 q 233 1025 200 1023 q 312 1028 267 1028 q 403 1018 366 1028 q 464 990 441 1008 q 501 941 488 972 q 518 875 514 910 q 523 787 523 840 q 523 756 523 766 q 525 731 524 746 q 530 708 526 715 q 539 694 533 701 q 555 686 545 688 q 560 685 555 686 q 568 684 565 685 q 574 680 570 683 q 580 671 578 677 q 582 654 582 664 q 574 595 582 633 q 547 551 566 557 q 536 554 545 552 q 524 557 528 556 q 512 559 521 557 q 494 561 503 560 q 472 562 486 562 q 442 562 458 562 q 387 560 412 562 q 354 558 362 558 q 319 616 337 558 m 299 678 q 304 770 304 699 q 299 789 304 785 q 271 793 294 793 q 237 777 249 793 q 225 730 225 761 q 235 677 225 702 q 264 653 245 653 q 285 662 274 653 q 299 678 296 670 z "},"":{"ha":977,"x_min":36,"x_max":942,"o":"m 467 362 q 502 422 467 379 q 587 515 537 465 q 686 611 636 564 q 770 689 736 658 l 806 720 q 819 725 812 725 q 887 671 840 725 q 935 587 935 617 q 926 567 935 576 q 718 362 764 415 q 792 287 739 338 q 890 197 846 236 l 933 157 q 942 138 942 149 q 917 84 942 118 q 862 25 892 50 q 819 -1 832 -1 q 805 5 812 -1 q 786 22 798 11 q 739 65 774 33 q 671 127 703 97 q 601 196 640 157 q 534 266 562 235 q 487 323 506 296 q 467 362 467 350 m 36 362 q 121 478 36 389 q 289 644 206 568 q 374 720 372 720 q 388 725 381 725 q 456 671 408 725 q 504 587 504 617 q 495 567 504 576 q 286 362 332 415 q 361 287 307 338 q 458 197 415 236 l 502 157 q 511 138 511 149 q 486 84 511 118 q 431 25 460 50 q 388 -1 401 -1 q 374 5 381 -1 q 355 22 367 11 q 307 65 342 33 q 240 127 272 97 q 169 196 208 157 q 102 266 130 235 q 55 323 75 296 q 36 362 36 350 z "},"":{"ha":781,"x_min":50,"x_max":720,"o":"m 716 488 q 718 378 718 428 q 718 310 718 329 q 720 274 718 291 q 662 250 710 250 q 597 287 597 250 q 601 441 601 302 l 601 489 q 185 490 524 490 q 87 484 92 487 q 50 549 50 484 q 74 606 50 597 q 171 605 92 605 q 308 605 186 605 q 545 605 429 605 q 661 606 660 606 q 686 605 678 606 q 702 601 693 604 q 713 589 711 597 q 716 566 716 581 l 716 488 z "},"":{"ha":170,"x_min":0,"x_max":0,"o":""},"":{"ha":1164,"x_min":43,"x_max":1122,"o":"m 587 -18 q 382 17 479 -18 q 208 118 284 53 q 87 284 132 183 q 43 507 43 385 q 114 786 43 667 q 309 966 185 905 q 592 1028 433 1028 q 809 989 709 1028 q 977 881 909 949 q 1084 718 1046 812 q 1122 514 1122 623 q 1050 240 1122 363 q 857 50 979 117 q 587 -18 734 -18 m 588 75 q 801 131 704 75 q 954 288 897 187 q 1011 514 1011 389 q 960 731 1011 635 q 812 882 908 827 q 592 937 716 937 q 369 887 467 937 q 214 738 271 836 q 157 509 157 640 q 193 325 157 408 q 289 188 229 241 q 426 104 349 134 q 588 75 503 75 m 543 241 l 338 241 l 338 793 q 587 799 500 799 q 629 799 612 799 q 675 795 646 798 q 723 787 703 792 q 766 772 743 782 q 803 747 789 762 q 827 711 817 733 q 837 660 837 688 q 719 532 837 557 q 774 517 751 526 q 812 498 798 508 q 837 472 827 488 q 850 440 846 455 q 856 400 854 425 q 856 355 857 376 q 854 301 855 335 q 854 241 854 268 l 650 241 l 650 360 q 638 471 650 446 q 578 496 625 496 l 543 496 l 543 241 m 541 722 l 541 560 q 581 559 565 559 q 624 578 608 559 q 640 650 640 598 q 589 724 640 724 l 541 722 z "},"":{"ha":621,"x_min":56,"x_max":565,"o":"m 81 819 q 56 908 56 819 q 87 1010 56 1010 q 221 1009 126 1010 q 372 1008 315 1008 l 532 1008 q 557 988 550 1008 q 565 916 565 969 q 533 818 565 818 q 388 818 488 818 q 242 817 288 817 q 160 818 214 817 q 81 819 106 819 z "},"":{"ha":515,"x_min":35,"x_max":472,"o":"m 252 621 q 132 651 183 621 q 58 726 81 681 q 35 823 35 771 q 48 898 35 862 q 89 962 62 933 q 157 1009 115 991 q 252 1026 200 1026 q 414 966 355 1026 q 472 823 472 905 q 414 681 472 741 q 252 621 356 621 m 383 823 q 344 922 383 887 q 252 958 305 958 q 161 922 199 958 q 123 823 123 886 q 161 725 123 760 q 252 690 199 690 q 344 725 305 690 q 383 823 383 760 z "},"":{"ha":652,"x_min":37,"x_max":616,"o":"m 495 564 q 592 566 566 564 q 616 508 616 556 q 579 437 616 437 q 530 439 575 438 q 441 441 485 440 l 398 441 l 389 441 q 390 282 390 391 q 392 235 390 257 q 334 210 381 210 q 263 248 263 210 q 266 297 264 252 q 267 385 267 342 l 267 429 l 267 439 l 255 439 q 74 435 83 439 q 37 507 37 435 q 61 564 37 555 q 158 562 87 562 l 266 562 l 266 572 q 262 753 265 744 q 280 780 262 770 q 333 791 298 791 q 391 766 380 791 q 389 669 389 739 l 389 563 q 495 564 446 564 m 185 115 q 373 117 279 117 q 512 118 467 117 q 565 119 556 118 q 589 61 589 109 q 552 -3 589 -3 q 510 -1 549 -2 q 435 0 472 0 l 398 1 l 389 1 q 101 -5 110 -1 q 64 60 64 -5 q 88 117 64 108 q 185 115 115 115 z "},"":{"ha":795,"x_min":40,"x_max":755,"o":"m 111 999 q 431 1027 224 1027 q 535 1019 486 1027 q 630 991 585 1010 q 701 938 674 972 q 727 858 727 904 q 711 774 727 815 q 673 701 696 732 q 615 636 650 670 q 550 579 580 602 q 482 526 521 556 q 422 477 444 496 l 446 477 q 489 479 471 477 q 535 489 507 481 q 586 516 563 496 q 623 566 608 535 q 688 583 660 583 q 732 571 709 583 q 755 536 755 559 q 728 424 755 500 q 682 313 701 348 q 297 283 641 283 q 186 283 254 283 q 100 283 119 283 q 66 316 83 290 q 46 368 48 342 q 62 405 47 381 q 109 463 78 429 q 162 520 140 498 q 221 581 184 543 q 394 851 394 757 q 352 918 394 918 q 271 882 321 918 q 186 813 220 847 q 148 772 152 779 q 79 788 118 772 q 40 821 40 804 q 62 930 40 880 q 111 999 84 981 z "},"":{"ha":797,"x_min":36,"x_max":760,"o":"m 144 286 q 72 349 109 303 q 36 430 36 394 q 71 481 36 456 q 137 507 106 507 q 155 495 140 507 q 189 471 170 484 q 244 446 208 457 q 321 435 280 435 q 449 525 449 435 q 319 623 449 623 q 269 621 301 623 q 231 620 237 620 q 214 635 220 621 q 209 685 209 649 q 236 749 209 737 q 264 747 255 747 q 386 771 347 748 q 425 834 425 795 q 404 891 425 869 q 352 914 382 914 q 295 901 321 914 q 252 869 269 888 q 221 831 235 850 q 195 799 207 812 q 174 785 183 785 q 98 803 130 785 q 65 836 65 821 q 106 962 65 906 q 195 1022 146 1017 q 420 1027 248 1027 q 610 980 548 1027 q 672 863 672 932 q 642 776 672 817 q 563 722 611 735 q 702 654 644 715 q 760 524 760 592 q 709 380 760 439 q 577 293 659 321 q 391 266 496 266 q 144 286 276 266 z "},"":{"ha":455,"x_min":34,"x_max":420,"o":"m 34 779 q 205 1039 131 922 q 251 1089 228 1076 q 321 1102 275 1102 q 398 1092 376 1102 q 420 1061 420 1082 q 411 1041 420 1051 q 378 1010 402 1031 q 340 975 355 989 q 240 886 317 952 q 110 779 163 820 l 34 779 z "},"":{"ha":1168,"x_min":50,"x_max":1120,"o":"m 164 -180 l 165 406 q 164 436 165 426 q 161 465 163 446 q 154 494 159 483 q 140 516 149 505 q 117 535 132 528 q 83 544 102 542 q 56 555 62 547 q 50 585 50 563 q 61 681 50 632 q 93 742 73 729 q 313 724 195 724 q 402 728 353 724 q 465 732 452 732 q 505 721 495 732 q 514 673 514 710 q 512 624 514 671 q 508 516 510 578 q 507 416 507 454 q 507 333 507 359 q 510 269 507 306 q 518 216 513 232 q 534 183 524 200 q 560 160 544 165 q 598 154 576 154 q 631 160 616 154 q 655 176 645 166 q 671 204 665 186 q 682 241 678 222 q 688 288 686 259 q 690 343 690 317 q 691 406 691 368 q 690 442 691 429 q 685 476 690 455 q 670 509 680 497 q 643 531 661 521 q 597 545 624 542 q 569 555 575 547 q 563 585 563 563 q 574 681 563 632 q 606 742 586 729 q 833 724 713 724 q 914 728 869 724 q 971 732 960 732 q 1011 721 1002 732 q 1021 673 1021 710 q 1019 624 1021 671 q 1015 514 1017 577 q 1013 408 1013 450 q 1013 368 1013 381 q 1014 331 1013 354 q 1016 296 1015 308 q 1021 267 1018 284 q 1028 240 1023 250 q 1040 221 1033 231 q 1056 205 1046 210 q 1077 197 1065 199 q 1085 196 1078 197 q 1097 194 1093 195 q 1108 188 1102 192 q 1117 172 1114 183 q 1120 146 1120 161 q 1117 101 1120 132 q 1100 30 1114 70 q 1065 -18 1086 -11 q 1046 -14 1061 -17 q 1025 -9 1031 -10 q 1004 -6 1020 -8 q 974 -2 988 -3 q 936 -1 960 -1 q 884 0 912 0 q 793 -3 839 0 q 736 -7 748 -7 q 680 85 680 -7 q 465 0 614 13 q 480 -75 467 -48 q 528 -109 494 -102 q 536 -109 528 -109 q 548 -111 544 -110 q 559 -117 553 -113 q 568 -130 565 -121 q 571 -153 571 -139 q 568 -188 571 -163 q 550 -244 564 -212 q 515 -281 536 -276 q 500 -278 511 -281 q 484 -274 488 -275 q 468 -271 479 -273 q 447 -268 456 -269 q 422 -266 437 -267 q 389 -265 408 -265 q 348 -264 371 -264 q 270 -268 309 -264 q 221 -271 231 -271 q 178 -249 191 -271 q 164 -180 165 -226 z "},"":{"ha":1072,"x_min":28,"x_max":1039,"o":"m 792 1010 q 1000 1018 833 1010 q 1013 1002 1004 1018 q 1030 946 1022 985 q 1039 856 1039 906 q 1029 832 1039 840 q 1004 823 1019 824 q 972 819 989 823 q 941 807 956 814 q 916 777 926 800 q 906 717 906 753 l 906 442 q 907 245 906 317 q 911 137 908 174 q 918 91 914 100 q 928 79 921 81 q 947 76 934 77 q 967 73 960 74 q 985 68 975 71 q 1000 60 995 64 q 1010 49 1006 56 q 1014 32 1014 41 q 1000 -73 1014 -19 q 961 -140 986 -127 q 806 -129 882 -129 q 734 -128 776 -129 q 688 -127 692 -127 q 685 -113 686 -127 q 683 -69 684 -100 q 682 -5 682 -39 q 681 85 681 29 q 681 189 681 141 q 682 311 682 236 q 682 442 682 386 l 682 812 q 618 815 682 815 q 607 815 611 815 q 595 815 602 815 q 586 814 589 814 q 583 812 583 813 l 583 442 q 584 119 583 288 q 585 -77 585 -51 q 567 -130 585 -130 q 516 -130 559 -130 q 444 -129 474 -129 q 309 -140 378 -129 q 270 -73 284 -127 q 256 32 256 -19 q 260 49 256 41 q 270 60 264 56 q 286 68 275 64 q 303 73 296 71 q 323 76 310 74 q 342 79 336 77 q 349 82 347 79 q 355 92 352 85 q 358 111 357 99 q 361 144 359 123 q 363 194 362 164 q 364 265 363 223 q 365 360 364 307 q 365 484 365 414 q 365 490 365 488 q 107 556 186 490 q 28 757 28 623 q 49 853 28 808 q 114 936 70 899 q 234 996 157 974 q 412 1018 311 1018 q 456 1016 421 1018 q 576 1012 491 1014 q 792 1010 661 1010 z "},"":{"ha":415,"x_min":45,"x_max":370,"o":"m 87 489 q 66 511 87 489 q 45 595 45 532 q 87 700 45 657 q 210 743 130 743 q 330 700 290 743 q 370 595 370 656 q 330 490 370 534 q 210 446 290 446 q 87 489 130 446 z "},"":{"ha":368,"x_min":45,"x_max":323,"o":"m 45 -326 l 66 -209 q 129 -219 100 -219 q 178 -204 161 -219 q 195 -170 195 -190 q 174 -129 195 -146 q 117 -111 153 -111 q 81 -115 100 -111 l 81 7 l 152 7 l 152 -44 q 234 -60 199 -45 q 288 -99 269 -75 q 314 -146 306 -122 q 323 -195 323 -170 q 274 -294 323 -254 q 136 -334 226 -334 q 45 -326 91 -334 z "},"":{"ha":488,"x_min":36,"x_max":456,"o":"m 130 559 l 130 819 q 115 846 130 838 q 83 853 100 853 q 51 861 65 852 q 36 891 36 870 q 48 966 36 922 q 76 1021 61 1010 q 225 1015 172 1015 q 303 1021 261 1015 q 353 1028 345 1027 q 384 991 384 1028 l 384 568 q 385 523 384 541 q 389 481 386 504 q 401 446 393 458 q 422 431 409 433 q 438 427 433 429 q 450 418 444 425 q 456 398 456 410 q 447 323 456 361 q 420 275 437 284 q 277 288 349 288 q 93 275 183 288 q 67 323 77 284 q 58 398 58 361 q 64 418 58 410 q 76 427 71 425 q 92 431 81 429 q 122 468 115 433 q 130 559 130 503 z "},"":{"ha":630,"x_min":33,"x_max":590,"o":"m 313 551 q 173 577 236 551 q 72 658 111 604 q 33 787 33 713 q 107 963 33 898 q 308 1027 182 1027 q 418 1014 368 1027 q 507 972 468 1000 q 568 898 546 944 q 590 793 590 852 q 513 615 590 680 q 313 551 437 551 m 268 787 q 278 669 268 706 q 315 632 288 632 q 350 672 342 632 q 357 794 357 713 q 357 826 357 814 q 356 860 357 839 q 352 896 355 882 q 344 924 349 909 q 332 946 340 939 q 313 953 323 953 q 277 915 286 953 q 268 787 268 876 z "},"":{"ha":978,"x_min":39,"x_max":945,"o":"m 860 478 q 902 434 860 478 q 945 362 945 389 q 860 246 945 335 q 692 81 776 157 l 607 5 q 593 -1 600 -1 q 550 25 580 -1 q 495 84 520 50 q 470 138 470 118 q 479 157 470 149 q 694 362 647 309 q 622 437 674 386 q 528 528 570 488 l 486 567 q 477 587 477 576 q 525 671 477 617 q 593 725 572 725 q 606 720 600 725 q 691 644 608 720 q 860 478 774 568 m 513 362 q 429 246 513 335 q 260 81 345 157 l 176 5 q 161 -1 168 -1 q 119 25 149 -1 q 64 84 89 50 q 39 138 39 118 q 47 157 39 149 q 263 362 216 309 q 191 437 243 386 q 96 528 138 488 l 54 567 q 45 587 45 576 q 93 671 45 617 q 161 725 141 725 q 175 720 168 725 q 194 703 182 713 q 241 660 206 692 q 309 598 277 628 q 379 529 340 568 q 447 459 418 490 q 494 401 475 429 q 513 362 513 374 z "},"":{"ha":1847,"x_min":32,"x_max":1818,"o":"m 125 559 l 125 819 q 111 846 125 838 q 79 853 96 853 q 46 861 61 852 q 32 891 32 870 q 44 966 32 922 q 72 1021 57 1010 q 221 1015 168 1015 q 298 1021 257 1015 q 349 1028 340 1027 q 380 991 380 1028 l 380 568 q 381 523 380 541 q 385 481 382 504 q 397 446 389 458 q 418 431 405 433 q 434 427 429 429 q 446 418 439 425 q 452 398 452 410 q 443 323 452 361 q 416 275 433 284 q 273 288 345 288 q 89 275 179 288 q 63 323 73 284 q 54 398 54 361 q 60 418 54 410 q 72 427 66 425 q 88 431 77 429 q 118 468 111 433 q 125 559 125 503 m 522 104 q 717 557 559 193 q 915 1024 875 922 q 1014 1076 935 1076 q 1125 1063 1091 1076 q 1158 1021 1158 1049 q 1155 1003 1158 1013 q 1144 975 1152 994 q 1133 949 1136 956 q 785 94 991 588 q 770 63 775 73 q 756 38 766 53 q 735 18 746 24 q 707 7 724 12 q 665 2 689 2 q 620 6 643 2 q 572 17 596 9 q 533 41 548 25 q 517 79 517 58 q 522 104 517 92 m 1351 422 q 1352 530 1352 447 l 1352 538 q 1353 618 1352 600 q 1342 608 1349 615 q 1324 587 1336 601 q 1305 563 1313 572 q 1224 447 1258 510 q 1219 432 1219 436 q 1294 421 1219 421 q 1351 422 1333 421 m 1357 256 q 1299 256 1343 256 q 1240 255 1255 255 l 1227 255 q 1160 256 1183 255 q 1107 260 1137 256 q 1063 273 1077 264 q 1031 331 1043 292 q 1020 389 1020 371 q 1025 412 1020 400 q 1085 499 1049 454 q 1148 572 1121 544 q 1225 650 1175 600 q 1296 722 1276 701 q 1331 736 1308 732 q 1373 742 1354 741 q 1427 743 1391 743 l 1584 743 q 1643 707 1643 743 q 1634 479 1634 576 l 1634 434 q 1643 425 1634 425 l 1675 425 q 1727 427 1693 425 q 1777 429 1762 429 q 1807 418 1798 429 q 1818 382 1815 406 q 1809 321 1817 346 q 1776 279 1800 296 q 1721 266 1744 269 q 1643 261 1697 263 l 1634 261 q 1635 227 1634 241 q 1639 195 1636 212 q 1652 169 1643 178 q 1675 157 1662 159 q 1693 153 1686 155 q 1706 144 1699 151 q 1712 125 1712 137 q 1702 49 1712 88 q 1674 0 1692 9 q 1518 14 1604 14 q 1318 0 1401 14 q 1289 49 1299 9 q 1279 125 1279 88 q 1285 144 1279 137 q 1299 153 1292 151 q 1316 157 1305 155 q 1349 186 1341 160 q 1357 256 1357 213 z "},"":{"ha":1812,"x_min":32,"x_max":1788,"o":"m 125 559 l 125 819 q 111 846 125 838 q 79 853 96 853 q 46 861 61 852 q 32 891 32 870 q 44 966 32 922 q 72 1021 57 1010 q 221 1015 168 1015 q 298 1021 257 1015 q 349 1028 340 1027 q 380 991 380 1028 l 380 568 q 381 523 380 541 q 385 481 382 504 q 397 446 389 458 q 418 431 405 433 q 434 427 429 429 q 446 418 439 425 q 452 398 452 410 q 443 323 452 361 q 416 275 433 284 q 273 288 345 288 q 89 275 179 288 q 63 323 73 284 q 54 398 54 361 q 60 418 54 410 q 72 427 66 425 q 88 431 77 429 q 118 468 111 433 q 125 559 125 503 m 491 104 q 686 557 528 193 q 884 1024 844 922 q 983 1076 904 1076 q 1094 1063 1060 1076 q 1127 1021 1127 1049 q 1124 1003 1127 1013 q 1113 975 1121 994 q 1102 949 1105 956 q 753 94 960 588 q 739 63 744 73 q 725 38 734 53 q 704 18 715 24 q 675 7 693 12 q 634 2 658 2 q 588 6 612 2 q 541 17 565 9 q 502 41 517 25 q 486 79 486 58 q 491 104 486 92 m 1143 717 q 1463 745 1257 745 q 1568 736 1518 745 q 1662 709 1617 728 q 1733 656 1706 690 q 1759 576 1759 622 q 1744 492 1759 533 q 1705 419 1728 450 q 1647 354 1683 388 q 1583 297 1612 320 q 1514 244 1553 274 q 1455 195 1476 214 l 1478 195 q 1521 197 1503 195 q 1567 207 1539 199 q 1618 234 1595 214 q 1655 283 1640 253 q 1721 300 1692 300 q 1765 289 1742 300 q 1788 254 1788 277 q 1760 142 1788 218 q 1714 31 1733 66 q 1329 1 1673 1 q 1218 1 1286 1 q 1132 1 1151 1 q 1098 34 1116 7 q 1078 86 1080 60 q 1095 123 1079 99 q 1141 181 1110 146 q 1194 238 1173 216 q 1253 299 1216 261 q 1426 569 1426 475 q 1384 635 1426 635 q 1303 600 1353 635 q 1218 531 1253 565 q 1180 490 1184 497 q 1111 506 1150 490 q 1072 539 1072 522 q 1094 648 1072 597 q 1143 717 1116 699 z "},"":{"ha":2080,"x_min":33,"x_max":2051,"o":"m 141 286 q 70 349 106 303 q 33 430 33 394 q 68 481 33 456 q 134 507 103 507 q 152 495 138 507 q 186 471 167 484 q 241 446 205 457 q 319 435 277 435 q 446 525 446 435 q 316 623 446 623 q 267 621 298 623 q 229 620 235 620 q 212 635 217 621 q 206 685 206 649 q 233 749 206 737 q 262 747 252 747 q 384 771 345 748 q 422 834 422 795 q 401 891 422 869 q 349 914 380 914 q 293 901 319 914 q 250 869 267 888 q 218 831 233 850 q 192 799 204 812 q 171 785 180 785 q 95 803 127 785 q 62 836 62 821 q 103 962 62 906 q 193 1022 144 1017 q 417 1027 245 1027 q 607 980 545 1027 q 669 863 669 932 q 639 776 669 817 q 560 722 608 735 q 699 654 641 715 q 757 524 757 592 q 706 380 757 439 q 574 293 656 321 q 389 266 493 266 q 141 286 273 266 m 765 104 q 960 557 802 193 q 1158 1024 1118 922 q 1257 1076 1178 1076 q 1368 1063 1334 1076 q 1401 1021 1401 1049 q 1398 1003 1401 1013 q 1387 975 1395 994 q 1376 949 1379 956 q 1027 94 1234 588 q 1013 63 1018 73 q 999 38 1008 53 q 978 18 989 24 q 949 7 967 12 q 908 2 932 2 q 862 6 886 2 q 815 17 839 9 q 775 41 791 25 q 760 79 760 58 q 765 104 760 92 m 1584 422 q 1585 530 1585 446 l 1585 538 q 1586 617 1585 600 q 1576 607 1582 614 q 1558 586 1569 600 q 1538 562 1546 572 q 1457 446 1491 509 q 1452 431 1452 435 q 1527 420 1452 420 q 1584 422 1567 420 m 1590 256 q 1532 255 1576 256 q 1474 254 1488 254 l 1460 254 q 1394 255 1417 254 q 1340 260 1371 256 q 1296 272 1310 264 q 1265 331 1276 291 q 1253 388 1253 370 q 1259 411 1253 399 q 1318 498 1282 453 q 1381 571 1354 543 q 1458 650 1408 600 q 1529 721 1509 700 q 1565 736 1541 731 q 1606 741 1588 741 q 1660 742 1624 742 l 1817 742 q 1876 707 1876 742 q 1868 479 1868 576 l 1868 433 q 1876 424 1868 424 l 1908 424 q 1961 426 1926 424 q 2010 429 1995 429 q 2040 417 2031 429 q 2051 382 2049 406 q 2042 320 2051 345 q 2009 278 2033 295 q 1954 265 1978 268 q 1876 260 1931 262 l 1867 260 q 1868 226 1867 240 q 1873 195 1869 212 q 1886 168 1876 178 q 1908 156 1895 158 q 1926 153 1919 155 q 1939 143 1933 151 q 1946 124 1946 136 q 1935 48 1946 87 q 1907 -1 1925 9 q 1751 13 1837 13 q 1551 -1 1634 13 q 1522 48 1533 9 q 1512 124 1512 87 q 1519 143 1512 136 q 1532 153 1525 151 q 1550 156 1539 155 q 1582 186 1574 159 q 1590 256 1590 212 z "},"":{"ha":890,"x_min":28,"x_max":867,"o":"m 867 172 q 834 45 866 91 q 758 -13 803 -1 q 708 -6 730 -13 q 675 9 686 1 q 654 24 664 17 q 638 31 644 31 q 595 15 625 26 q 548 -1 566 4 q 495 -12 530 -7 q 419 -18 460 -18 q 265 -3 334 -18 q 142 40 195 11 q 58 116 88 68 q 28 227 28 163 q 45 289 28 260 q 87 339 61 318 q 145 380 113 361 q 208 414 176 399 q 266 443 240 429 q 309 472 292 457 q 325 501 325 487 q 313 556 325 518 q 301 610 301 594 q 429 665 301 665 q 470 664 446 665 q 499 663 494 663 q 615 619 564 663 q 666 515 666 574 q 653 473 666 488 q 610 444 640 457 q 568 426 585 434 q 524 401 551 418 q 478 365 496 383 q 448 318 461 347 q 434 259 434 290 q 463 157 434 199 q 536 114 492 114 q 609 135 572 114 q 669 184 646 155 q 722 242 686 216 q 791 269 758 269 q 867 172 867 269 m 627 1003 q 648 981 627 1003 q 669 897 669 960 q 627 792 669 835 q 505 749 585 749 q 385 792 425 749 q 345 897 345 836 q 385 1002 345 958 q 505 1046 425 1046 q 627 1003 585 1046 z "},"":{"ha":1282,"x_min":39,"x_max":1244,"o":"m 654 1097 l 552 1097 q 438 1202 505 1137 q 348 1293 372 1267 q 313 1328 335 1307 q 283 1359 291 1349 q 275 1379 275 1369 q 299 1410 275 1400 q 381 1420 323 1420 q 461 1407 435 1420 q 511 1357 488 1394 q 585 1225 528 1329 q 654 1097 641 1121 m 708 363 l 418 363 q 396 267 396 291 q 408 227 396 242 q 435 207 419 212 q 468 198 452 201 q 496 189 485 195 q 508 170 508 182 q 445 -9 508 22 q 262 0 378 0 q 80 -9 147 0 q 39 133 39 18 q 52 180 39 165 q 85 201 64 196 q 128 210 106 205 q 173 233 150 215 q 208 286 195 252 l 374 721 q 391 783 391 764 q 385 806 391 799 q 370 815 378 813 q 354 819 362 817 q 339 831 345 821 q 333 861 333 842 q 347 970 333 928 q 378 1019 361 1012 q 633 1010 494 1010 q 828 1019 762 1010 q 856 979 842 1015 l 1067 410 q 1134 263 1098 327 q 1192 199 1169 199 q 1211 196 1204 197 q 1226 189 1217 194 q 1240 176 1236 184 q 1244 154 1244 167 q 1230 55 1244 106 q 1191 -9 1216 3 q 975 0 1115 0 q 697 -9 789 0 q 658 55 672 3 q 644 154 644 106 q 649 176 644 167 q 662 189 653 184 q 677 196 670 194 q 696 199 684 198 q 731 259 731 200 q 708 363 731 310 m 678 478 q 608 680 665 518 q 600 703 606 688 q 591 730 594 722 q 584 747 588 738 q 578 760 581 756 q 573 763 575 763 q 546 707 567 763 l 462 478 l 678 478 z "},"":{"ha":1282,"x_min":39,"x_max":1244,"o":"m 564 1097 q 734 1357 661 1240 q 781 1407 758 1394 q 851 1420 804 1420 q 928 1410 905 1420 q 950 1379 950 1400 q 941 1359 950 1369 q 908 1328 932 1349 q 870 1293 884 1307 q 769 1204 846 1270 q 640 1097 692 1138 l 564 1097 m 708 363 l 418 363 q 396 267 396 291 q 408 227 396 242 q 435 207 419 212 q 468 198 452 201 q 496 189 485 195 q 508 170 508 182 q 445 -9 508 22 q 262 0 378 0 q 80 -9 147 0 q 39 133 39 18 q 52 180 39 165 q 85 201 64 196 q 128 210 106 205 q 173 233 150 215 q 208 286 195 252 l 374 721 q 391 783 391 764 q 385 806 391 799 q 370 815 378 813 q 354 819 362 817 q 339 831 345 821 q 333 861 333 842 q 347 970 333 928 q 378 1019 361 1012 q 633 1010 494 1010 q 828 1019 762 1010 q 856 979 842 1015 l 1067 410 q 1134 263 1098 327 q 1192 199 1169 199 q 1211 196 1204 197 q 1226 189 1217 194 q 1240 176 1236 184 q 1244 154 1244 167 q 1230 55 1244 106 q 1191 -9 1216 3 q 975 0 1115 0 q 697 -9 789 0 q 658 55 672 3 q 644 154 644 106 q 649 176 644 167 q 662 189 653 184 q 677 196 670 194 q 696 199 684 198 q 731 259 731 200 q 708 363 731 310 m 678 478 q 608 680 665 518 q 600 703 606 688 q 591 730 594 722 q 584 747 588 738 q 578 760 581 756 q 573 763 575 763 q 546 707 567 763 l 462 478 l 678 478 z "},"":{"ha":1282,"x_min":39,"x_max":1244,"o":"m 552 1420 l 654 1420 q 763 1313 699 1379 q 844 1224 826 1246 q 863 1202 852 1215 q 880 1182 874 1189 q 892 1166 886 1175 q 901 1151 899 1158 q 904 1139 904 1145 q 883 1107 904 1117 q 811 1097 861 1097 q 752 1108 772 1097 q 705 1147 733 1118 l 603 1276 l 500 1147 q 453 1108 473 1118 q 395 1097 434 1097 q 323 1107 345 1097 q 302 1139 302 1117 q 304 1151 302 1145 q 313 1166 307 1158 q 326 1182 319 1175 q 343 1202 332 1189 q 361 1224 354 1215 q 443 1313 380 1246 q 552 1420 507 1379 m 708 363 l 418 363 q 396 267 396 291 q 408 227 396 242 q 435 207 419 212 q 468 198 452 201 q 496 189 485 195 q 508 170 508 182 q 445 -9 508 22 q 262 0 378 0 q 80 -9 147 0 q 39 133 39 18 q 52 180 39 165 q 85 201 64 196 q 128 210 106 205 q 173 233 150 215 q 208 286 195 252 l 374 721 q 391 783 391 764 q 385 806 391 799 q 370 815 378 813 q 354 819 362 817 q 339 831 345 821 q 333 861 333 842 q 347 970 333 928 q 378 1019 361 1012 q 633 1010 494 1010 q 828 1019 762 1010 q 856 979 842 1015 l 1067 410 q 1134 263 1098 327 q 1192 199 1169 199 q 1211 196 1204 197 q 1226 189 1217 194 q 1240 176 1236 184 q 1244 154 1244 167 q 1230 55 1244 106 q 1191 -9 1216 3 q 975 0 1115 0 q 697 -9 789 0 q 658 55 672 3 q 644 154 644 106 q 649 176 644 167 q 662 189 653 184 q 677 196 670 194 q 696 199 684 198 q 731 259 731 200 q 708 363 731 310 m 678 478 q 608 680 665 518 q 600 703 606 688 q 591 730 594 722 q 584 747 588 738 q 578 760 581 756 q 573 763 575 763 q 546 707 567 763 l 462 478 l 678 478 z "},"":{"ha":1282,"x_min":39,"x_max":1244,"o":"m 880 1350 q 901 1253 901 1295 q 866 1143 901 1185 q 760 1102 832 1102 q 661 1123 718 1102 q 559 1164 605 1143 q 498 1185 514 1185 q 467 1151 467 1185 l 468 1107 q 401 1097 465 1097 q 315 1107 317 1097 q 305 1194 305 1154 q 313 1252 305 1225 q 338 1300 321 1278 q 385 1334 355 1322 q 456 1347 415 1347 q 547 1328 494 1347 q 645 1291 601 1310 q 703 1272 689 1272 q 727 1279 718 1272 q 736 1301 736 1287 l 736 1348 q 747 1350 736 1349 q 778 1352 758 1351 q 814 1354 797 1354 q 880 1350 854 1354 m 708 363 l 418 363 q 396 267 396 291 q 408 227 396 242 q 435 207 419 212 q 468 198 452 201 q 496 189 485 195 q 508 170 508 182 q 445 -9 508 22 q 262 0 378 0 q 80 -9 147 0 q 39 133 39 18 q 52 180 39 165 q 85 201 64 196 q 128 210 106 205 q 173 233 150 215 q 208 286 195 252 l 374 721 q 391 783 391 764 q 385 806 391 799 q 370 815 378 813 q 354 819 362 817 q 339 831 345 821 q 333 861 333 842 q 347 970 333 928 q 378 1019 361 1012 q 633 1010 494 1010 q 828 1019 762 1010 q 856 979 842 1015 l 1067 410 q 1134 263 1098 327 q 1192 199 1169 199 q 1211 196 1204 197 q 1226 189 1217 194 q 1240 176 1236 184 q 1244 154 1244 167 q 1230 55 1244 106 q 1191 -9 1216 3 q 975 0 1115 0 q 697 -9 789 0 q 658 55 672 3 q 644 154 644 106 q 649 176 644 167 q 662 189 653 184 q 677 196 670 194 q 696 199 684 198 q 731 259 731 200 q 708 363 731 310 m 678 478 q 608 680 665 518 q 600 703 606 688 q 591 730 594 722 q 584 747 588 738 q 578 760 581 756 q 573 763 575 763 q 546 707 567 763 l 462 478 l 678 478 z "},"":{"ha":1282,"x_min":39,"x_max":1244,"o":"m 332 1134 q 314 1152 332 1134 q 296 1222 296 1170 q 332 1310 296 1274 q 435 1346 367 1346 q 536 1310 503 1346 q 570 1222 570 1274 q 536 1134 570 1171 q 435 1097 503 1097 q 332 1134 367 1097 m 680 1134 q 662 1152 680 1134 q 644 1222 644 1170 q 680 1310 644 1274 q 783 1346 715 1346 q 884 1310 850 1346 q 918 1222 918 1274 q 884 1134 918 1171 q 783 1097 850 1097 q 680 1134 715 1097 m 708 363 l 418 363 q 396 267 396 291 q 408 227 396 242 q 435 207 419 212 q 468 198 452 201 q 496 189 485 195 q 508 170 508 182 q 445 -9 508 22 q 262 0 378 0 q 80 -9 147 0 q 39 133 39 18 q 52 180 39 165 q 85 201 64 196 q 128 210 106 205 q 173 233 150 215 q 208 286 195 252 l 374 721 q 391 783 391 764 q 385 806 391 799 q 370 815 378 813 q 354 819 362 817 q 339 831 345 821 q 333 861 333 842 q 347 970 333 928 q 378 1019 361 1012 q 633 1010 494 1010 q 828 1019 762 1010 q 856 979 842 1015 l 1067 410 q 1134 263 1098 327 q 1192 199 1169 199 q 1211 196 1204 197 q 1226 189 1217 194 q 1240 176 1236 184 q 1244 154 1244 167 q 1230 55 1244 106 q 1191 -9 1216 3 q 975 0 1115 0 q 697 -9 789 0 q 658 55 672 3 q 644 154 644 106 q 649 176 644 167 q 662 189 653 184 q 677 196 670 194 q 696 199 684 198 q 731 259 731 200 q 708 363 731 310 m 678 478 q 608 680 665 518 q 600 703 606 688 q 591 730 594 722 q 584 747 588 738 q 578 760 581 756 q 573 763 575 763 q 546 707 567 763 l 462 478 l 678 478 z "},"":{"ha":1282,"x_min":39,"x_max":1244,"o":"m 621 1036 q 500 1078 551 1036 q 450 1190 450 1119 q 498 1300 450 1259 q 623 1341 547 1341 q 743 1299 697 1341 q 789 1192 789 1257 q 741 1080 789 1124 q 621 1036 692 1036 m 520 1189 q 549 1111 520 1139 q 618 1082 578 1082 q 688 1111 659 1082 q 718 1190 718 1139 q 688 1266 718 1239 q 619 1294 659 1294 q 550 1266 579 1294 q 520 1189 520 1238 m 708 363 l 418 363 q 396 267 396 291 q 408 227 396 242 q 435 207 419 212 q 468 198 452 201 q 496 189 485 195 q 508 170 508 182 q 445 -9 508 22 q 262 0 378 0 q 80 -9 147 0 q 39 133 39 18 q 52 180 39 165 q 85 201 64 196 q 128 210 106 205 q 173 233 150 215 q 208 286 195 252 l 374 721 q 391 783 391 764 q 385 806 391 799 q 370 815 378 813 q 354 819 362 817 q 339 831 345 821 q 333 861 333 842 q 347 970 333 928 q 378 1019 361 1012 q 633 1010 494 1010 q 828 1019 762 1010 q 856 979 842 1015 l 1067 410 q 1134 263 1098 327 q 1192 199 1169 199 q 1211 196 1204 197 q 1226 189 1217 194 q 1240 176 1236 184 q 1244 154 1244 167 q 1230 55 1244 106 q 1191 -9 1216 3 q 975 0 1115 0 q 697 -9 789 0 q 658 55 672 3 q 644 154 644 106 q 649 176 644 167 q 662 189 653 184 q 677 196 670 194 q 696 199 684 198 q 731 259 731 200 q 708 363 731 310 m 678 478 q 608 680 665 518 q 600 703 606 688 q 591 730 594 722 q 584 747 588 738 q 578 760 581 756 q 573 763 575 763 q 546 707 567 763 l 462 478 l 678 478 z "},"":{"ha":1628,"x_min":27,"x_max":1612,"o":"m 764 478 q 751 680 762 501 q 740 763 742 763 q 724 751 733 763 q 696 707 715 739 l 547 478 l 764 478 m 871 1008 q 999 1010 956 1010 q 1398 1019 1222 1010 q 1468 898 1432 976 q 1503 771 1503 820 q 1491 737 1503 752 q 1460 715 1479 722 q 1424 704 1442 707 q 1391 701 1407 701 q 1371 718 1386 701 q 1332 759 1355 734 q 1280 807 1308 783 q 1214 848 1251 831 q 1141 865 1177 865 q 1122 863 1129 865 q 1106 854 1115 861 q 1093 829 1097 847 q 1088 783 1088 812 q 1095 703 1088 746 l 1115 555 q 1285 656 1194 656 q 1385 618 1348 656 q 1423 530 1423 580 q 1390 439 1423 476 q 1314 402 1358 402 q 1252 449 1287 431 q 1182 468 1216 468 q 1131 435 1150 468 l 1155 256 q 1200 132 1155 132 l 1260 132 q 1319 161 1293 139 q 1369 221 1346 183 q 1409 298 1392 260 q 1446 395 1426 337 q 1466 397 1453 397 q 1547 381 1501 397 q 1605 344 1592 365 q 1612 321 1612 337 q 1590 86 1612 244 q 1560 -7 1576 21 q 1217 -1 1375 -1 q 968 -5 1120 -1 q 723 -9 817 -9 q 676 60 692 4 q 660 168 660 116 q 664 189 660 180 q 677 202 668 198 q 694 209 686 207 q 715 212 701 210 q 733 222 726 214 q 744 249 740 231 q 750 280 748 266 q 754 322 751 295 q 758 363 756 349 l 471 363 q 459 346 468 358 q 447 328 450 333 q 437 313 444 323 q 429 296 431 302 q 424 282 427 290 q 422 267 422 274 q 431 227 422 242 q 452 207 439 212 q 476 198 464 201 q 497 189 488 195 q 506 170 506 182 q 479 56 506 104 q 392 -9 452 7 q 212 0 327 0 q 27 -9 96 0 l 27 133 q 43 180 27 165 q 85 201 59 196 q 138 210 111 205 q 195 233 166 215 q 239 286 223 252 l 529 721 q 564 783 564 765 q 558 810 564 802 q 546 817 552 817 q 533 827 539 817 q 528 861 528 838 q 556 970 528 928 q 618 1019 585 1012 q 871 1008 734 1008 z "},"":{"ha":1042,"x_min":25,"x_max":1004,"o":"m 519 -340 l 541 -223 q 604 -233 574 -233 q 653 -219 635 -233 q 670 -184 670 -204 q 649 -143 670 -161 q 591 -125 628 -125 q 556 -130 575 -125 l 556 -7 l 627 -7 l 627 -58 q 709 -75 673 -60 q 762 -113 744 -90 q 789 -160 781 -136 q 798 -209 798 -184 q 749 -308 798 -268 q 610 -349 701 -349 q 519 -340 566 -349 m 593 -18 q 386 12 481 -18 q 225 93 291 42 q 114 213 160 144 q 46 358 68 281 q 25 515 25 434 q 44 667 25 593 q 103 807 64 741 q 199 922 143 872 q 332 1000 254 971 q 500 1028 410 1028 q 630 1015 575 1028 q 750 964 684 1001 q 749 985 749 980 q 764 1013 749 1006 q 829 1019 779 1019 q 896 1015 874 1019 q 937 993 918 1011 q 965 942 956 975 q 984 848 975 909 q 994 757 994 783 q 991 725 994 737 q 985 706 989 713 q 970 695 981 699 q 951 690 960 692 q 920 687 942 689 q 849 681 854 681 q 798 717 817 681 q 714 805 762 775 q 617 836 666 836 q 495 774 545 836 q 446 600 446 713 q 469 459 446 524 q 532 352 492 395 q 624 286 571 309 q 735 262 676 262 q 979 328 863 262 q 1004 233 1004 282 q 977 139 1004 184 q 900 59 950 94 q 770 3 849 24 q 593 -18 690 -18 z "},"":{"ha":1026,"x_min":44,"x_max":1017,"o":"m 542 1097 l 439 1097 q 326 1202 393 1137 q 235 1293 259 1267 q 200 1328 222 1307 q 170 1359 178 1349 q 162 1379 162 1369 q 186 1410 162 1400 q 269 1420 211 1420 q 349 1407 323 1420 q 398 1357 375 1394 q 472 1225 416 1329 q 542 1097 528 1121 m 85 1019 q 496 1010 269 1010 q 897 1019 719 1010 q 944 898 920 976 q 968 771 968 820 q 955 737 968 751 q 922 715 942 722 q 882 704 901 707 q 846 701 863 701 q 828 718 842 701 q 792 759 814 734 q 745 807 771 783 q 685 848 719 831 q 618 865 651 865 q 593 864 602 865 q 575 854 585 862 q 561 829 566 846 q 554 782 557 812 q 551 703 551 751 l 551 555 q 735 656 636 656 q 823 618 791 656 q 856 530 856 580 q 818 439 856 476 q 730 402 780 402 q 671 449 705 431 q 606 468 637 468 q 551 435 572 468 l 551 256 q 580 132 551 132 l 640 132 q 710 161 678 139 q 769 221 742 183 q 816 298 796 260 q 861 395 836 337 q 880 397 868 397 q 958 381 914 397 q 1013 344 1001 365 q 1017 321 1017 337 q 1000 216 1017 288 q 963 86 983 144 q 936 25 954 58 q 903 -9 917 -9 q 781 -2 850 -4 q 665 1 712 1 q 531 1 618 1 q 410 0 444 0 q 83 -9 216 0 q 54 60 64 4 q 44 168 44 116 q 49 189 44 180 q 63 202 54 198 q 81 209 73 207 q 104 212 90 210 q 138 227 125 214 q 157 264 151 241 q 165 310 163 288 q 168 363 168 332 l 168 661 q 166 705 168 687 q 162 742 165 722 q 152 773 159 762 q 134 794 146 785 q 106 804 123 802 q 84 808 92 806 q 65 814 75 810 q 51 827 56 819 q 46 849 46 836 q 56 953 46 899 q 85 1019 66 1007 z "},"":{"ha":1026,"x_min":44,"x_max":1017,"o":"m 452 1097 q 623 1357 549 1240 q 669 1407 646 1394 q 739 1420 692 1420 q 816 1410 793 1420 q 838 1379 838 1400 q 829 1359 838 1369 q 796 1328 820 1349 q 758 1293 772 1307 q 657 1204 734 1270 q 528 1097 581 1138 l 452 1097 m 85 1019 q 496 1010 269 1010 q 897 1019 719 1010 q 944 898 920 976 q 968 771 968 820 q 955 737 968 751 q 922 715 942 722 q 882 704 901 707 q 846 701 863 701 q 828 718 842 701 q 792 759 814 734 q 745 807 771 783 q 685 848 719 831 q 618 865 651 865 q 593 864 602 865 q 575 854 585 862 q 561 829 566 846 q 554 782 557 812 q 551 703 551 751 l 551 555 q 735 656 636 656 q 823 618 791 656 q 856 530 856 580 q 818 439 856 476 q 730 402 780 402 q 671 449 705 431 q 606 468 637 468 q 551 435 572 468 l 551 256 q 580 132 551 132 l 640 132 q 710 161 678 139 q 769 221 742 183 q 816 298 796 260 q 861 395 836 337 q 880 397 868 397 q 958 381 914 397 q 1013 344 1001 365 q 1017 321 1017 337 q 1000 216 1017 288 q 963 86 983 144 q 936 25 954 58 q 903 -9 917 -9 q 781 -2 850 -4 q 665 1 712 1 q 531 1 618 1 q 410 0 444 0 q 83 -9 216 0 q 54 60 64 4 q 44 168 44 116 q 49 189 44 180 q 63 202 54 198 q 81 209 73 207 q 104 212 90 210 q 138 227 125 214 q 157 264 151 241 q 165 310 163 288 q 168 363 168 332 l 168 661 q 166 705 168 687 q 162 742 165 722 q 152 773 159 762 q 134 794 146 785 q 106 804 123 802 q 84 808 92 806 q 65 814 75 810 q 51 827 56 819 q 46 849 46 836 q 56 953 46 899 q 85 1019 66 1007 z "},"":{"ha":1026,"x_min":44,"x_max":1017,"o":"m 440 1420 l 542 1420 q 651 1313 587 1379 q 732 1224 714 1246 q 751 1202 740 1215 q 768 1182 762 1189 q 781 1166 774 1175 q 789 1151 787 1158 q 792 1139 792 1145 q 771 1107 792 1117 q 699 1097 749 1097 q 641 1108 660 1097 q 593 1147 621 1118 l 491 1276 l 389 1147 q 341 1108 361 1118 q 283 1097 322 1097 q 211 1107 233 1097 q 190 1139 190 1117 q 193 1151 190 1145 q 201 1166 195 1158 q 214 1182 208 1175 q 231 1202 220 1189 q 250 1224 242 1215 q 331 1313 268 1246 q 440 1420 395 1379 m 85 1019 q 496 1010 269 1010 q 897 1019 719 1010 q 944 898 920 976 q 968 771 968 820 q 955 737 968 751 q 922 715 942 722 q 882 704 901 707 q 846 701 863 701 q 828 718 842 701 q 792 759 814 734 q 745 807 771 783 q 685 848 719 831 q 618 865 651 865 q 593 864 602 865 q 575 854 585 862 q 561 829 566 846 q 554 782 557 812 q 551 703 551 751 l 551 555 q 735 656 636 656 q 823 618 791 656 q 856 530 856 580 q 818 439 856 476 q 730 402 780 402 q 671 449 705 431 q 606 468 637 468 q 551 435 572 468 l 551 256 q 580 132 551 132 l 640 132 q 710 161 678 139 q 769 221 742 183 q 816 298 796 260 q 861 395 836 337 q 880 397 868 397 q 958 381 914 397 q 1013 344 1001 365 q 1017 321 1017 337 q 1000 216 1017 288 q 963 86 983 144 q 936 25 954 58 q 903 -9 917 -9 q 781 -2 850 -4 q 665 1 712 1 q 531 1 618 1 q 410 0 444 0 q 83 -9 216 0 q 54 60 64 4 q 44 168 44 116 q 49 189 44 180 q 63 202 54 198 q 81 209 73 207 q 104 212 90 210 q 138 227 125 214 q 157 264 151 241 q 165 310 163 288 q 168 363 168 332 l 168 661 q 166 705 168 687 q 162 742 165 722 q 152 773 159 762 q 134 794 146 785 q 106 804 123 802 q 84 808 92 806 q 65 814 75 810 q 51 827 56 819 q 46 849 46 836 q 56 953 46 899 q 85 1019 66 1007 z "},"":{"ha":1026,"x_min":44,"x_max":1017,"o":"m 219 1134 q 201 1152 219 1134 q 184 1222 184 1170 q 219 1310 184 1274 q 323 1346 254 1346 q 424 1310 390 1346 q 457 1222 457 1274 q 424 1134 457 1171 q 323 1097 390 1097 q 219 1134 254 1097 m 567 1134 q 549 1152 567 1134 q 532 1222 532 1170 q 567 1310 532 1274 q 671 1346 602 1346 q 771 1310 738 1346 q 805 1222 805 1274 q 771 1134 805 1171 q 671 1097 738 1097 q 567 1134 602 1097 m 85 1019 q 496 1010 269 1010 q 897 1019 719 1010 q 944 898 920 976 q 968 771 968 820 q 955 737 968 751 q 922 715 942 722 q 882 704 901 707 q 846 701 863 701 q 828 718 842 701 q 792 759 814 734 q 745 807 771 783 q 685 848 719 831 q 618 865 651 865 q 593 864 602 865 q 575 854 585 862 q 561 829 566 846 q 554 782 557 812 q 551 703 551 751 l 551 555 q 735 656 636 656 q 823 618 791 656 q 856 530 856 580 q 818 439 856 476 q 730 402 780 402 q 671 449 705 431 q 606 468 637 468 q 551 435 572 468 l 551 256 q 580 132 551 132 l 640 132 q 710 161 678 139 q 769 221 742 183 q 816 298 796 260 q 861 395 836 337 q 880 397 868 397 q 958 381 914 397 q 1013 344 1001 365 q 1017 321 1017 337 q 1000 216 1017 288 q 963 86 983 144 q 936 25 954 58 q 903 -9 917 -9 q 781 -2 850 -4 q 665 1 712 1 q 531 1 618 1 q 410 0 444 0 q 83 -9 216 0 q 54 60 64 4 q 44 168 44 116 q 49 189 44 180 q 63 202 54 198 q 81 209 73 207 q 104 212 90 210 q 138 227 125 214 q 157 264 151 241 q 165 310 163 288 q 168 363 168 332 l 168 661 q 166 705 168 687 q 162 742 165 722 q 152 773 159 762 q 134 794 146 785 q 106 804 123 802 q 84 808 92 806 q 65 814 75 810 q 51 827 56 819 q 46 849 46 836 q 56 953 46 899 q 85 1019 66 1007 z "},"":{"ha":709,"x_min":26,"x_max":669,"o":"m 406 1097 l 303 1097 q 190 1202 256 1137 q 99 1293 123 1267 q 64 1328 86 1307 q 34 1359 42 1349 q 26 1379 26 1369 q 50 1410 26 1400 q 132 1420 75 1420 q 213 1407 186 1420 q 262 1357 239 1394 q 336 1225 279 1329 q 406 1097 392 1121 m 628 1019 q 657 953 647 1007 q 667 849 667 899 q 663 827 667 836 q 648 814 658 819 q 630 808 638 810 q 607 804 621 806 q 579 794 591 802 q 561 773 568 785 q 551 742 555 762 q 547 705 548 722 q 546 661 546 687 l 546 363 q 548 310 546 332 q 556 264 550 288 q 575 227 562 241 q 609 212 589 214 q 632 209 624 210 q 650 202 640 207 q 665 189 660 198 q 669 168 669 180 q 659 60 669 116 q 630 -8 649 5 q 358 0 582 0 q 79 -8 127 0 q 50 60 60 5 q 39 168 39 116 q 44 189 39 180 q 59 202 49 198 q 77 209 68 207 q 100 212 85 210 q 133 227 120 214 q 153 264 146 241 q 161 310 159 288 q 163 363 163 332 l 163 661 q 162 705 163 687 q 157 742 161 722 q 148 773 154 762 q 130 794 141 785 q 102 804 118 802 q 79 808 87 806 q 61 814 71 810 q 46 827 51 819 q 41 849 41 836 q 52 953 41 899 q 81 1019 62 1007 q 361 1010 136 1010 q 628 1019 552 1010 z "},"":{"ha":709,"x_min":39,"x_max":701,"o":"m 315 1097 q 486 1357 412 1240 q 532 1407 509 1394 q 602 1420 555 1420 q 679 1410 656 1420 q 701 1379 701 1400 q 692 1359 701 1369 q 659 1328 683 1349 q 621 1293 635 1307 q 520 1204 597 1270 q 391 1097 444 1138 l 315 1097 m 628 1019 q 657 953 647 1007 q 667 849 667 899 q 663 827 667 836 q 648 814 658 819 q 630 808 638 810 q 607 804 621 806 q 579 794 591 802 q 561 773 568 785 q 551 742 555 762 q 547 705 548 722 q 546 661 546 687 l 546 363 q 548 310 546 332 q 556 264 550 288 q 575 227 562 241 q 609 212 589 214 q 632 209 624 210 q 650 202 640 207 q 665 189 660 198 q 669 168 669 180 q 659 60 669 116 q 630 -8 649 5 q 358 0 582 0 q 79 -8 127 0 q 50 60 60 5 q 39 168 39 116 q 44 189 39 180 q 59 202 49 198 q 77 209 68 207 q 100 212 85 210 q 133 227 120 214 q 153 264 146 241 q 161 310 159 288 q 163 363 163 332 l 163 661 q 162 705 163 687 q 157 742 161 722 q 148 773 154 762 q 130 794 141 785 q 102 804 118 802 q 79 808 87 806 q 61 814 71 810 q 46 827 51 819 q 41 849 41 836 q 52 953 41 899 q 81 1019 62 1007 q 361 1010 136 1010 q 628 1019 552 1010 z "},"":{"ha":709,"x_min":39,"x_max":669,"o":"m 303 1420 l 405 1420 q 514 1313 450 1379 q 595 1224 577 1246 q 614 1202 603 1215 q 631 1182 625 1189 q 644 1166 637 1175 q 652 1151 650 1158 q 655 1139 655 1145 q 634 1107 655 1117 q 562 1097 612 1097 q 504 1108 523 1097 q 456 1147 484 1118 l 354 1276 l 252 1147 q 204 1108 224 1118 q 146 1097 185 1097 q 74 1107 96 1097 q 53 1139 53 1117 q 56 1151 53 1145 q 64 1166 58 1158 q 77 1182 71 1175 q 94 1202 83 1189 q 113 1224 105 1215 q 194 1313 131 1246 q 303 1420 258 1379 m 628 1019 q 657 953 647 1007 q 667 849 667 899 q 663 827 667 836 q 648 814 658 819 q 630 808 638 810 q 607 804 621 806 q 579 794 591 802 q 561 773 568 785 q 551 742 555 762 q 547 705 548 722 q 546 661 546 687 l 546 363 q 548 310 546 332 q 556 264 550 288 q 575 227 562 241 q 609 212 589 214 q 632 209 624 210 q 650 202 640 207 q 665 189 660 198 q 669 168 669 180 q 659 60 669 116 q 630 -8 649 5 q 358 0 582 0 q 79 -8 127 0 q 50 60 60 5 q 39 168 39 116 q 44 189 39 180 q 59 202 49 198 q 77 209 68 207 q 100 212 85 210 q 133 227 120 214 q 153 264 146 241 q 161 310 159 288 q 163 363 163 332 l 163 661 q 162 705 163 687 q 157 742 161 722 q 148 773 154 762 q 130 794 141 785 q 102 804 118 802 q 79 808 87 806 q 61 814 71 810 q 46 827 51 819 q 41 849 41 836 q 52 953 41 899 q 81 1019 62 1007 q 361 1010 136 1010 q 628 1019 552 1010 z "},"":{"ha":709,"x_min":39,"x_max":669,"o":"m 83 1134 q 65 1152 83 1134 q 47 1222 47 1170 q 83 1310 47 1274 q 186 1346 118 1346 q 287 1310 254 1346 q 321 1222 321 1274 q 287 1134 321 1171 q 186 1097 254 1097 q 83 1134 118 1097 m 431 1134 q 413 1152 431 1134 q 395 1222 395 1170 q 431 1310 395 1274 q 534 1346 466 1346 q 635 1310 602 1346 q 669 1222 669 1274 q 635 1134 669 1171 q 534 1097 602 1097 q 431 1134 466 1097 m 628 1019 q 657 953 647 1007 q 667 849 667 899 q 663 827 667 836 q 648 814 658 819 q 630 808 638 810 q 607 804 621 806 q 579 794 591 802 q 561 773 568 785 q 551 742 555 762 q 547 705 548 722 q 546 661 546 687 l 546 363 q 548 310 546 332 q 556 264 550 288 q 575 227 562 241 q 609 212 589 214 q 632 209 624 210 q 650 202 640 207 q 665 189 660 198 q 669 168 669 180 q 659 60 669 116 q 630 -8 649 5 q 358 0 582 0 q 79 -8 127 0 q 50 60 60 5 q 39 168 39 116 q 44 189 39 180 q 59 202 49 198 q 77 209 68 207 q 100 212 85 210 q 133 227 120 214 q 153 264 146 241 q 161 310 159 288 q 163 363 163 332 l 163 661 q 162 705 163 687 q 157 742 161 722 q 148 773 154 762 q 130 794 141 785 q 102 804 118 802 q 79 808 87 806 q 61 814 71 810 q 46 827 51 819 q 41 849 41 836 q 52 953 41 899 q 81 1019 62 1007 q 361 1010 136 1010 q 628 1019 552 1010 z "},"":{"ha":1198,"x_min":44,"x_max":1146,"o":"m 167 581 q 531 582 267 582 q 628 584 602 582 q 652 526 652 574 q 615 462 652 462 q 573 464 612 463 q 498 465 534 465 l 461 466 l 391 466 q 83 460 92 464 q 45 525 45 460 q 70 583 45 573 q 167 581 96 581 m 606 151 q 689 201 654 151 q 742 330 725 252 q 759 496 759 407 q 741 666 759 588 q 683 797 723 744 q 586 849 642 849 q 554 847 564 849 q 551 536 551 831 l 551 422 q 553 268 551 336 q 559 176 556 201 l 561 152 q 606 151 575 151 m 83 -9 q 54 59 64 3 q 44 166 44 115 q 49 188 44 179 q 63 201 54 197 q 81 207 73 205 q 104 210 90 209 q 138 226 125 212 q 157 263 151 239 q 165 309 163 286 q 168 361 168 331 l 168 659 q 166 703 168 686 q 162 741 165 721 q 152 772 159 760 q 134 792 146 784 q 106 803 123 801 q 84 806 92 804 q 65 813 75 808 q 51 826 56 817 q 46 848 46 835 q 56 952 46 897 q 85 1019 66 1007 q 382 1010 342 1010 q 503 1015 422 1010 q 627 1019 585 1019 q 814 990 728 1019 q 961 911 901 961 q 1063 795 1021 861 q 1126 654 1106 728 q 1146 500 1146 579 q 1126 350 1146 423 q 1066 211 1107 276 q 968 97 1025 146 q 828 20 910 48 q 651 -9 747 -9 q 542 -4 614 -9 q 432 0 471 0 q 83 -9 359 0 z "},"":{"ha":1276,"x_min":31,"x_max":1251,"o":"m 926 1350 q 947 1253 947 1295 q 912 1143 947 1185 q 806 1102 878 1102 q 707 1123 764 1102 q 606 1164 651 1143 q 545 1185 560 1185 q 513 1151 513 1185 l 514 1107 q 447 1097 511 1097 q 361 1107 363 1097 q 351 1194 351 1154 q 359 1252 351 1225 q 384 1300 367 1278 q 431 1334 401 1322 q 503 1347 461 1347 q 593 1328 540 1347 q 691 1291 647 1310 q 749 1272 735 1272 q 773 1279 764 1272 q 783 1301 783 1287 l 783 1348 q 793 1350 783 1349 q 824 1352 804 1351 q 860 1354 843 1354 q 926 1350 901 1354 m 371 545 l 371 321 q 448 163 371 170 q 473 161 463 162 q 494 156 483 159 q 512 145 506 152 q 517 127 517 138 q 506 44 517 87 q 473 -9 494 1 q 302 0 399 0 q 75 -9 167 0 q 42 44 54 1 q 31 127 31 86 q 43 149 31 141 q 66 159 54 157 q 100 163 79 161 q 143 180 126 165 q 166 223 159 195 q 176 275 174 250 q 178 338 178 300 l 178 713 q 164 767 178 747 q 128 793 149 787 q 86 804 107 800 q 51 816 66 808 q 37 843 37 825 q 39 892 37 865 q 55 961 41 920 q 90 1019 68 1003 q 341 1010 180 1010 q 428 1012 391 1010 q 482 1017 465 1015 q 503 1019 500 1019 q 520 1015 512 1019 q 537 1000 528 1010 q 555 978 547 989 q 581 945 564 966 q 613 904 597 923 q 897 568 896 568 q 913 564 903 564 l 913 692 q 912 738 913 720 q 906 777 911 757 q 895 810 902 798 q 873 831 887 822 q 841 841 860 840 q 816 844 825 842 q 795 849 806 845 q 778 860 783 852 q 772 878 772 867 q 783 964 772 920 q 815 1019 794 1008 q 1036 1010 915 1010 q 1208 1019 1124 1010 q 1240 964 1229 1008 q 1251 878 1251 920 q 1245 860 1251 867 q 1228 849 1240 852 q 1207 844 1217 845 q 1181 841 1197 842 q 1141 825 1157 839 q 1118 787 1125 811 q 1108 742 1111 763 q 1106 692 1106 720 l 1106 631 q 1119 30 1106 114 q 977 -18 1038 -18 q 885 8 932 -18 q 781 94 838 35 q 425 522 721 159 q 379 566 389 566 q 371 545 371 566 z "},"":{"ha":1238,"x_min":26,"x_max":1215,"o":"m 679 1097 l 576 1097 q 463 1202 530 1137 q 372 1293 396 1267 q 337 1328 359 1307 q 307 1359 315 1349 q 299 1379 299 1369 q 323 1410 299 1400 q 406 1420 348 1420 q 486 1407 460 1420 q 535 1357 512 1394 q 609 1225 553 1329 q 679 1097 665 1121 m 623 -18 q 187 120 348 -18 q 26 507 26 259 q 186 890 26 751 q 627 1028 347 1028 q 839 1003 743 1028 q 1004 932 935 978 q 1121 824 1074 887 q 1192 686 1169 762 q 1215 524 1215 610 q 1185 321 1215 412 q 1101 168 1154 231 q 972 63 1047 105 q 810 1 897 20 q 623 -18 722 -18 m 631 149 q 665 158 650 149 q 691 187 680 168 q 709 227 701 206 q 721 279 717 247 q 729 335 726 311 q 733 396 732 359 q 734 454 734 433 q 734 511 734 475 q 733 588 734 553 q 728 666 732 622 q 716 744 724 711 q 696 806 708 777 q 664 852 684 836 q 618 867 644 867 q 523 497 523 867 q 631 149 523 149 z "},"":{"ha":1238,"x_min":26,"x_max":1215,"o":"m 587 1097 q 758 1357 684 1240 q 805 1407 781 1394 q 875 1420 828 1420 q 951 1410 929 1420 q 974 1379 974 1400 q 965 1359 974 1369 q 932 1328 956 1349 q 894 1293 908 1307 q 793 1204 870 1270 q 663 1097 716 1138 l 587 1097 m 623 -18 q 187 120 348 -18 q 26 507 26 259 q 186 890 26 751 q 627 1028 347 1028 q 839 1003 743 1028 q 1004 932 935 978 q 1121 824 1074 887 q 1192 686 1169 762 q 1215 524 1215 610 q 1185 321 1215 412 q 1101 168 1154 231 q 972 63 1047 105 q 810 1 897 20 q 623 -18 722 -18 m 631 149 q 665 158 650 149 q 691 187 680 168 q 709 227 701 206 q 721 279 717 247 q 729 335 726 311 q 733 396 732 359 q 734 454 734 433 q 734 511 734 475 q 733 588 734 553 q 728 666 732 622 q 716 744 724 711 q 696 806 708 777 q 664 852 684 836 q 618 867 644 867 q 523 497 523 867 q 631 149 523 149 z "},"":{"ha":1238,"x_min":26,"x_max":1215,"o":"m 576 1420 l 678 1420 q 787 1313 724 1379 q 869 1224 850 1246 q 887 1202 876 1215 q 905 1182 899 1189 q 917 1166 911 1175 q 926 1151 923 1158 q 928 1139 928 1145 q 907 1107 928 1117 q 836 1097 886 1097 q 777 1108 796 1097 q 730 1147 758 1118 l 627 1276 l 525 1147 q 478 1108 497 1118 q 419 1097 458 1097 q 348 1107 369 1097 q 326 1139 326 1117 q 329 1151 326 1145 q 338 1166 332 1158 q 350 1182 344 1175 q 367 1202 356 1189 q 386 1224 378 1215 q 468 1313 404 1246 q 576 1420 531 1379 m 623 -18 q 187 120 348 -18 q 26 507 26 259 q 186 890 26 751 q 627 1028 347 1028 q 839 1003 743 1028 q 1004 932 935 978 q 1121 824 1074 887 q 1192 686 1169 762 q 1215 524 1215 610 q 1185 321 1215 412 q 1101 168 1154 231 q 972 63 1047 105 q 810 1 897 20 q 623 -18 722 -18 m 631 149 q 665 158 650 149 q 691 187 680 168 q 709 227 701 206 q 721 279 717 247 q 729 335 726 311 q 733 396 732 359 q 734 454 734 433 q 734 511 734 475 q 733 588 734 553 q 728 666 732 622 q 716 744 724 711 q 696 806 708 777 q 664 852 684 836 q 618 867 644 867 q 523 497 523 867 q 631 149 523 149 z "},"":{"ha":1238,"x_min":26,"x_max":1215,"o":"m 904 1350 q 925 1253 925 1295 q 891 1143 925 1185 q 784 1102 857 1102 q 686 1123 742 1102 q 584 1164 629 1143 q 523 1185 538 1185 q 492 1151 492 1185 l 492 1107 q 425 1097 490 1097 q 340 1107 342 1097 q 330 1194 330 1154 q 337 1252 330 1225 q 362 1300 345 1278 q 409 1334 379 1322 q 481 1347 439 1347 q 572 1328 518 1347 q 669 1291 625 1310 q 728 1272 713 1272 q 751 1279 742 1272 q 761 1301 761 1287 l 761 1348 q 772 1350 761 1349 q 802 1352 783 1351 q 838 1354 821 1354 q 904 1350 879 1354 m 623 -18 q 187 120 348 -18 q 26 507 26 259 q 186 890 26 751 q 627 1028 347 1028 q 839 1003 743 1028 q 1004 932 935 978 q 1121 824 1074 887 q 1192 686 1169 762 q 1215 524 1215 610 q 1185 321 1215 412 q 1101 168 1154 231 q 972 63 1047 105 q 810 1 897 20 q 623 -18 722 -18 m 631 149 q 665 158 650 149 q 691 187 680 168 q 709 227 701 206 q 721 279 717 247 q 729 335 726 311 q 733 396 732 359 q 734 454 734 433 q 734 511 734 475 q 733 588 734 553 q 728 666 732 622 q 716 744 724 711 q 696 806 708 777 q 664 852 684 836 q 618 867 644 867 q 523 497 523 867 q 631 149 523 149 z "},"":{"ha":1238,"x_min":26,"x_max":1215,"o":"m 355 1134 q 338 1152 355 1134 q 320 1222 320 1170 q 355 1310 320 1274 q 459 1346 391 1346 q 560 1310 526 1346 q 593 1222 593 1274 q 560 1134 593 1171 q 459 1097 526 1097 q 355 1134 391 1097 m 703 1134 q 686 1152 703 1134 q 668 1222 668 1170 q 703 1310 668 1274 q 807 1346 739 1346 q 908 1310 874 1346 q 941 1222 941 1274 q 908 1134 941 1171 q 807 1097 874 1097 q 703 1134 739 1097 m 623 -18 q 187 120 348 -18 q 26 507 26 259 q 186 890 26 751 q 627 1028 347 1028 q 839 1003 743 1028 q 1004 932 935 978 q 1121 824 1074 887 q 1192 686 1169 762 q 1215 524 1215 610 q 1185 321 1215 412 q 1101 168 1154 231 q 972 63 1047 105 q 810 1 897 20 q 623 -18 722 -18 m 631 149 q 665 158 650 149 q 691 187 680 168 q 709 227 701 206 q 721 279 717 247 q 729 335 726 311 q 733 396 732 359 q 734 454 734 433 q 734 511 734 475 q 733 588 734 553 q 728 666 732 622 q 716 744 724 711 q 696 806 708 777 q 664 852 684 836 q 618 867 644 867 q 523 497 523 867 q 631 149 523 149 z "},"":{"ha":724,"x_min":40,"x_max":684,"o":"m 360 531 l 491 663 q 504 677 492 665 q 525 699 516 690 q 546 715 533 707 q 566 724 558 724 q 637 676 596 724 q 679 607 679 627 q 663 572 679 589 q 488 406 648 566 l 638 256 q 684 197 684 219 q 635 126 684 168 q 566 85 587 85 q 532 100 549 85 q 455 185 529 108 q 363 278 382 263 l 358 273 q 192 99 197 111 q 159 83 174 83 q 90 124 140 83 q 40 195 40 165 q 138 310 40 216 q 233 403 233 401 q 60 571 68 568 q 43 606 43 587 q 61 644 43 616 q 107 698 80 672 q 155 724 135 724 q 172 718 162 724 q 194 700 181 712 q 217 677 207 688 q 243 650 227 667 q 268 625 260 633 l 360 531 z "},"":{"ha":1257,"x_min":26,"x_max":1215,"o":"m 631 149 q 665 158 650 149 q 691 187 680 168 q 709 227 701 206 q 721 279 717 247 q 729 335 726 311 q 733 396 732 359 q 734 454 734 433 q 734 511 734 475 l 734 543 q 549 239 580 290 q 631 149 576 149 m 524 416 q 720 726 616 562 q 618 867 694 867 q 523 497 523 867 q 524 416 523 448 m 981 947 q 1156 772 1097 882 q 1215 524 1215 662 q 1185 321 1215 412 q 1101 168 1154 231 q 972 63 1047 105 q 810 1 897 20 q 623 -18 722 -18 q 404 9 505 -18 q 375 -38 394 -7 q 349 -79 355 -68 q 287 -111 330 -111 q 236 -99 251 -111 q 220 -64 220 -87 q 226 -50 220 -58 q 243 -28 232 -41 q 260 -4 254 -16 q 294 50 267 7 q 96 229 165 113 q 26 507 26 346 q 186 890 26 751 q 627 1028 347 1028 q 885 989 772 1028 q 951 1097 933 1066 q 981 1115 957 1115 l 986 1115 q 995 1116 990 1116 q 1007 1115 1000 1116 q 1021 1114 1015 1115 q 1034 1111 1027 1113 q 1046 1106 1041 1109 q 1054 1099 1050 1103 q 1057 1088 1057 1095 q 1046 1053 1057 1071 q 981 947 1021 1012 z "},"":{"ha":1249,"x_min":35,"x_max":1213,"o":"m 679 1097 l 576 1097 q 463 1202 530 1137 q 372 1293 396 1267 q 337 1328 359 1307 q 307 1359 315 1349 q 299 1379 299 1369 q 323 1410 299 1400 q 406 1420 348 1420 q 486 1407 460 1420 q 535 1357 512 1394 q 609 1225 553 1329 q 679 1097 665 1121 m 1118 671 l 1118 473 q 1094 267 1118 355 q 1031 125 1071 180 q 928 39 991 71 q 796 -6 865 6 q 634 -18 726 -18 q 549 -17 585 -18 q 468 -9 512 -15 q 391 5 424 -4 q 322 32 358 15 q 261 72 286 48 q 212 129 235 95 q 173 205 188 163 q 150 305 159 248 q 141 431 141 362 l 141 620 q 139 688 141 661 q 133 743 138 715 q 116 785 127 770 q 87 801 105 799 q 68 805 75 803 q 53 811 62 806 q 39 825 43 816 q 35 846 35 833 q 49 952 35 897 q 88 1019 63 1006 q 361 1010 185 1010 q 584 1019 500 1010 q 623 952 609 1006 q 637 846 637 897 q 633 825 637 833 q 620 811 629 816 q 604 805 610 806 q 585 801 597 803 q 524 620 524 794 l 524 422 q 527 338 524 373 q 537 266 529 302 q 560 208 546 230 q 600 172 574 186 q 660 158 625 158 q 701 163 682 158 q 734 177 720 169 q 758 199 747 184 q 775 227 768 214 q 787 260 782 239 q 794 296 792 281 q 798 336 797 311 q 799 375 799 361 q 800 415 800 389 l 800 671 q 798 720 800 701 q 791 760 796 740 q 775 791 786 780 q 746 803 764 802 q 728 807 734 805 q 714 817 721 809 q 708 837 708 824 q 722 948 708 890 q 760 1019 735 1006 q 973 1010 836 1010 q 1167 1019 1099 1010 q 1201 948 1189 1006 q 1213 837 1213 890 q 1206 817 1213 824 q 1193 807 1200 809 q 1175 803 1186 805 q 1118 671 1118 798 z "},"":{"ha":1249,"x_min":35,"x_max":1213,"o":"m 588 1097 q 759 1357 685 1240 q 805 1407 782 1394 q 876 1420 829 1420 q 952 1410 930 1420 q 975 1379 975 1400 q 965 1359 975 1369 q 932 1328 956 1349 q 895 1293 909 1307 q 794 1204 871 1270 q 664 1097 717 1138 l 588 1097 m 1118 671 l 1118 473 q 1094 267 1118 355 q 1031 125 1071 180 q 928 39 991 71 q 796 -6 865 6 q 634 -18 726 -18 q 549 -17 585 -18 q 468 -9 512 -15 q 391 5 424 -4 q 322 32 358 15 q 261 72 286 48 q 212 129 235 95 q 173 205 188 163 q 150 305 159 248 q 141 431 141 362 l 141 620 q 139 688 141 661 q 133 743 138 715 q 116 785 127 770 q 87 801 105 799 q 68 805 75 803 q 53 811 62 806 q 39 825 43 816 q 35 846 35 833 q 49 952 35 897 q 88 1019 63 1006 q 361 1010 185 1010 q 584 1019 500 1010 q 623 952 609 1006 q 637 846 637 897 q 633 825 637 833 q 620 811 629 816 q 604 805 610 806 q 585 801 597 803 q 524 620 524 794 l 524 422 q 527 338 524 373 q 537 266 529 302 q 560 208 546 230 q 600 172 574 186 q 660 158 625 158 q 701 163 682 158 q 734 177 720 169 q 758 199 747 184 q 775 227 768 214 q 787 260 782 239 q 794 296 792 281 q 798 336 797 311 q 799 375 799 361 q 800 415 800 389 l 800 671 q 798 720 800 701 q 791 760 796 740 q 775 791 786 780 q 746 803 764 802 q 728 807 734 805 q 714 817 721 809 q 708 837 708 824 q 722 948 708 890 q 760 1019 735 1006 q 973 1010 836 1010 q 1167 1019 1099 1010 q 1201 948 1189 1006 q 1213 837 1213 890 q 1206 817 1213 824 q 1193 807 1200 809 q 1175 803 1186 805 q 1118 671 1118 798 z "},"":{"ha":1249,"x_min":35,"x_max":1213,"o":"m 577 1420 l 679 1420 q 788 1313 724 1379 q 869 1224 851 1246 q 888 1202 877 1215 q 905 1182 899 1189 q 918 1166 911 1175 q 926 1151 924 1158 q 929 1139 929 1145 q 908 1107 929 1117 q 836 1097 886 1097 q 778 1108 797 1097 q 730 1147 758 1118 l 628 1276 l 526 1147 q 478 1108 498 1118 q 420 1097 459 1097 q 348 1107 370 1097 q 327 1139 327 1117 q 330 1151 327 1145 q 338 1166 332 1158 q 351 1182 345 1175 q 368 1202 357 1189 q 387 1224 379 1215 q 468 1313 405 1246 q 577 1420 532 1379 m 1118 671 l 1118 473 q 1094 267 1118 355 q 1031 125 1071 180 q 928 39 991 71 q 796 -6 865 6 q 634 -18 726 -18 q 549 -17 585 -18 q 468 -9 512 -15 q 391 5 424 -4 q 322 32 358 15 q 261 72 286 48 q 212 129 235 95 q 173 205 188 163 q 150 305 159 248 q 141 431 141 362 l 141 620 q 139 688 141 661 q 133 743 138 715 q 116 785 127 770 q 87 801 105 799 q 68 805 75 803 q 53 811 62 806 q 39 825 43 816 q 35 846 35 833 q 49 952 35 897 q 88 1019 63 1006 q 361 1010 185 1010 q 584 1019 500 1010 q 623 952 609 1006 q 637 846 637 897 q 633 825 637 833 q 620 811 629 816 q 604 805 610 806 q 585 801 597 803 q 524 620 524 794 l 524 422 q 527 338 524 373 q 537 266 529 302 q 560 208 546 230 q 600 172 574 186 q 660 158 625 158 q 701 163 682 158 q 734 177 720 169 q 758 199 747 184 q 775 227 768 214 q 787 260 782 239 q 794 296 792 281 q 798 336 797 311 q 799 375 799 361 q 800 415 800 389 l 800 671 q 798 720 800 701 q 791 760 796 740 q 775 791 786 780 q 746 803 764 802 q 728 807 734 805 q 714 817 721 809 q 708 837 708 824 q 722 948 708 890 q 760 1019 735 1006 q 973 1010 836 1010 q 1167 1019 1099 1010 q 1201 948 1189 1006 q 1213 837 1213 890 q 1206 817 1213 824 q 1193 807 1200 809 q 1175 803 1186 805 q 1118 671 1118 798 z "},"":{"ha":1249,"x_min":35,"x_max":1213,"o":"m 376 1134 q 358 1152 376 1134 q 340 1222 340 1170 q 376 1310 340 1274 q 479 1346 411 1346 q 580 1310 547 1346 q 614 1222 614 1274 q 580 1134 614 1171 q 479 1097 547 1097 q 376 1134 411 1097 m 724 1134 q 706 1152 724 1134 q 688 1222 688 1170 q 724 1310 688 1274 q 827 1346 759 1346 q 928 1310 895 1346 q 962 1222 962 1274 q 928 1134 962 1171 q 827 1097 895 1097 q 724 1134 759 1097 m 1118 671 l 1118 473 q 1094 267 1118 355 q 1031 125 1071 180 q 928 39 991 71 q 796 -6 865 6 q 634 -18 726 -18 q 549 -17 585 -18 q 468 -9 512 -15 q 391 5 424 -4 q 322 32 358 15 q 261 72 286 48 q 212 129 235 95 q 173 205 188 163 q 150 305 159 248 q 141 431 141 362 l 141 620 q 139 688 141 661 q 133 743 138 715 q 116 785 127 770 q 87 801 105 799 q 68 805 75 803 q 53 811 62 806 q 39 825 43 816 q 35 846 35 833 q 49 952 35 897 q 88 1019 63 1006 q 361 1010 185 1010 q 584 1019 500 1010 q 623 952 609 1006 q 637 846 637 897 q 633 825 637 833 q 620 811 629 816 q 604 805 610 806 q 585 801 597 803 q 524 620 524 794 l 524 422 q 527 338 524 373 q 537 266 529 302 q 560 208 546 230 q 600 172 574 186 q 660 158 625 158 q 701 163 682 158 q 734 177 720 169 q 758 199 747 184 q 775 227 768 214 q 787 260 782 239 q 794 296 792 281 q 798 336 797 311 q 799 375 799 361 q 800 415 800 389 l 800 671 q 798 720 800 701 q 791 760 796 740 q 775 791 786 780 q 746 803 764 802 q 728 807 734 805 q 714 817 721 809 q 708 837 708 824 q 722 948 708 890 q 760 1019 735 1006 q 973 1010 836 1010 q 1167 1019 1099 1010 q 1201 948 1189 1006 q 1213 837 1213 890 q 1206 817 1213 824 q 1193 807 1200 809 q 1175 803 1186 805 q 1118 671 1118 798 z "},"":{"ha":1091,"x_min":-14,"x_max":1105,"o":"m 511 1097 q 682 1357 608 1240 q 728 1407 705 1394 q 798 1420 751 1420 q 875 1410 852 1420 q 897 1379 897 1400 q 888 1359 897 1369 q 855 1328 879 1349 q 817 1293 831 1307 q 716 1204 793 1270 q 587 1097 640 1138 l 511 1097 m 736 410 q 738 335 736 366 q 744 271 739 304 q 761 219 749 237 q 791 199 773 201 q 809 196 803 197 q 825 189 816 194 q 838 176 834 184 q 842 154 842 167 q 830 55 842 106 q 796 -9 819 3 q 545 0 718 0 q 293 -9 371 0 q 259 55 271 3 q 247 154 247 106 q 251 176 247 167 q 264 189 255 184 q 280 196 273 194 q 298 199 286 197 q 328 219 316 201 q 345 271 340 237 q 351 334 349 304 q 353 410 353 365 l 353 500 l 262 624 q 221 677 238 656 q 178 725 204 698 q 124 771 152 753 q 66 798 96 789 q 43 803 58 800 q 23 807 28 806 q 8 815 18 809 q -4 832 -1 822 q -11 861 -7 842 q -14 905 -14 879 l -14 915 q -6 984 -14 948 q 15 1019 1 1019 q 298 1010 132 1010 q 549 1019 416 1010 q 572 955 559 1019 q 585 854 585 891 q 576 836 585 842 q 557 829 568 830 q 538 823 547 827 q 530 808 530 818 q 542 776 530 795 l 620 655 q 716 799 703 779 q 722 814 722 807 q 708 826 722 821 q 681 839 694 831 q 668 863 668 848 l 668 873 q 699 1019 668 1006 q 878 1010 768 1010 q 986 1015 908 1010 q 1086 1019 1064 1019 q 1105 901 1105 1019 l 1105 878 q 1094 839 1105 851 q 1063 824 1082 827 q 1021 819 1043 821 q 972 803 999 817 q 925 761 945 789 q 856 668 896 721 q 799 590 817 614 q 763 539 781 566 q 736 497 745 513 l 736 410 z "},"":{"ha":1120,"x_min":44,"x_max":1088,"o":"m 152 340 l 152 689 q 140 773 152 740 q 104 809 129 806 q 96 810 102 809 q 87 812 89 812 q 79 814 85 812 q 71 816 73 815 q 64 819 69 817 q 58 823 60 821 q 53 829 56 825 q 48 836 50 832 q 46 845 47 840 q 45 856 45 850 q 59 961 45 907 q 98 1028 73 1015 q 314 1010 196 1010 q 471 1028 393 1010 q 508 968 494 1016 q 526 869 523 920 q 633 867 584 869 q 741 858 682 865 q 848 840 801 851 q 941 807 895 828 q 1019 759 987 787 q 1069 691 1050 732 q 1088 599 1088 650 q 1052 465 1088 522 q 951 376 1015 408 q 811 329 888 344 q 644 314 735 314 q 587 317 624 314 q 535 320 550 320 q 545 236 535 269 q 585 201 554 204 q 593 199 586 201 q 601 198 600 198 q 609 196 603 197 q 617 194 615 195 q 624 191 619 193 q 631 186 629 189 q 636 181 633 184 q 640 174 639 178 q 643 165 642 170 q 644 154 644 160 q 630 49 644 103 q 591 -18 616 -5 q 374 0 492 0 q 97 -18 216 0 q 58 49 72 -5 q 44 154 44 103 q 45 166 44 161 q 49 176 46 172 q 53 183 52 180 q 60 189 55 186 q 67 193 66 191 q 76 196 68 194 q 84 198 83 197 q 94 199 85 198 l 103 201 q 129 214 119 202 q 144 248 139 227 q 150 291 149 269 q 152 340 152 312 m 527 442 q 581 435 554 435 q 663 598 663 435 q 581 758 663 758 q 527 753 555 758 l 527 442 z "},"":{"ha":1137,"x_min":37,"x_max":1110,"o":"m 555 1028 q 990 772 990 1028 q 796 547 990 606 q 1110 276 1110 486 q 1088 162 1110 213 q 1027 79 1065 112 q 937 23 989 45 q 825 -9 884 1 q 702 -18 767 -18 q 610 -14 661 -18 l 610 149 q 720 184 681 149 q 758 271 758 219 q 695 392 758 338 q 522 446 632 446 l 522 426 q 531 170 522 239 q 535 117 535 134 q 522 28 535 64 q 489 -8 509 -8 q 427 -4 488 -8 q 296 0 366 0 q 56 -8 227 0 q 42 55 47 4 q 37 154 37 106 q 46 181 37 171 q 64 194 55 191 q 89 199 74 197 q 115 217 104 201 q 130 262 125 233 q 136 317 134 290 q 138 383 138 345 l 138 732 q 555 1028 138 1028 m 542 603 q 615 631 591 603 q 640 729 640 660 q 634 786 640 756 q 612 842 628 817 q 575 867 597 867 q 547 854 558 867 q 530 815 535 840 q 523 764 524 789 q 521 705 521 739 q 521 670 521 693 q 522 638 522 647 l 522 618 q 526 607 522 610 q 542 603 530 603 z "},"":{"ha":924,"x_min":35,"x_max":895,"o":"m 530 812 l 428 812 q 314 917 381 852 q 224 1008 248 982 q 189 1042 211 1021 q 159 1074 167 1063 q 151 1093 151 1084 q 175 1125 151 1115 q 257 1135 199 1135 q 337 1122 311 1135 q 387 1072 363 1109 q 460 939 404 1043 q 530 812 517 836 m 494 84 q 393 8 454 34 q 267 -18 332 -18 q 159 0 205 -18 q 87 52 113 19 q 47 124 60 85 q 35 210 35 164 q 44 292 35 256 q 68 354 53 328 q 108 399 83 380 q 159 429 132 418 q 221 447 185 440 q 290 456 256 454 q 366 458 324 458 q 417 456 391 458 q 457 452 444 454 l 471 450 l 471 530 q 455 586 471 570 q 402 602 439 602 q 334 592 370 602 q 270 567 298 582 q 218 538 242 553 q 182 513 195 524 l 170 503 q 121 524 138 503 q 104 582 104 544 q 118 638 104 613 q 152 679 131 663 q 204 708 172 696 q 267 726 237 720 q 338 736 298 732 q 410 741 379 740 q 479 742 440 742 q 599 732 548 742 q 686 699 650 722 q 744 646 721 676 q 779 571 766 616 q 795 476 791 525 q 800 358 800 427 q 800 327 800 337 q 801 299 800 317 q 803 272 802 281 q 807 249 804 262 q 813 229 809 236 q 822 214 817 222 q 834 202 827 206 q 851 196 842 198 q 860 196 852 196 q 872 194 867 195 q 882 187 876 192 q 891 172 888 182 q 895 145 895 161 q 891 100 895 131 q 874 29 888 69 q 839 -18 860 -12 q 820 -13 836 -18 q 798 -8 804 -9 q 774 -4 791 -7 q 737 -1 758 -2 q 687 -1 716 -1 q 599 -4 640 -1 q 546 -7 559 -7 q 494 84 521 -7 m 464 184 q 471 334 471 217 q 462 361 471 355 q 414 368 454 368 q 360 341 379 368 q 341 267 341 315 q 357 182 341 221 q 403 144 374 144 q 440 157 420 144 q 464 184 459 170 z "},"":{"ha":924,"x_min":35,"x_max":895,"o":"m 439 812 q 610 1072 536 954 q 656 1121 633 1108 q 726 1135 680 1135 q 803 1125 781 1135 q 825 1093 825 1115 q 816 1074 825 1084 q 783 1042 807 1063 q 745 1008 760 1021 q 645 919 722 985 q 515 812 568 852 l 439 812 m 494 84 q 393 8 454 34 q 267 -18 332 -18 q 159 0 205 -18 q 87 52 113 19 q 47 124 60 85 q 35 210 35 164 q 44 292 35 256 q 68 354 53 328 q 108 399 83 380 q 159 429 132 418 q 221 447 185 440 q 290 456 256 454 q 366 458 324 458 q 417 456 391 458 q 457 452 444 454 l 471 450 l 471 530 q 455 586 471 570 q 402 602 439 602 q 334 592 370 602 q 270 567 298 582 q 218 538 242 553 q 182 513 195 524 l 170 503 q 121 524 138 503 q 104 582 104 544 q 118 638 104 613 q 152 679 131 663 q 204 708 172 696 q 267 726 237 720 q 338 736 298 732 q 410 741 379 740 q 479 742 440 742 q 599 732 548 742 q 686 699 650 722 q 744 646 721 676 q 779 571 766 616 q 795 476 791 525 q 800 358 800 427 q 800 327 800 337 q 801 299 800 317 q 803 272 802 281 q 807 249 804 262 q 813 229 809 236 q 822 214 817 222 q 834 202 827 206 q 851 196 842 198 q 860 196 852 196 q 872 194 867 195 q 882 187 876 192 q 891 172 888 182 q 895 145 895 161 q 891 100 895 131 q 874 29 888 69 q 839 -18 860 -12 q 820 -13 836 -18 q 798 -8 804 -9 q 774 -4 791 -7 q 737 -1 758 -2 q 687 -1 716 -1 q 599 -4 640 -1 q 546 -7 559 -7 q 494 84 521 -7 m 464 184 q 471 334 471 217 q 462 361 471 355 q 414 368 454 368 q 360 341 379 368 q 341 267 341 315 q 357 182 341 221 q 403 144 374 144 q 440 157 420 144 q 464 184 459 170 z "},"":{"ha":924,"x_min":35,"x_max":895,"o":"m 428 1135 l 530 1135 q 638 1027 575 1093 q 720 939 702 961 q 739 916 728 929 q 756 896 750 903 q 768 881 762 889 q 777 866 774 872 q 780 853 780 859 q 759 822 780 831 q 687 812 737 812 q 628 822 648 812 q 581 861 609 833 l 479 991 l 376 861 q 329 822 349 833 q 271 812 310 812 q 199 822 220 812 q 178 853 178 831 q 180 866 178 859 q 189 881 183 872 q 201 896 195 889 q 219 916 208 903 q 237 939 230 929 q 319 1027 256 961 q 428 1135 382 1093 m 494 84 q 393 8 454 34 q 267 -18 332 -18 q 159 0 205 -18 q 87 52 113 19 q 47 124 60 85 q 35 210 35 164 q 44 292 35 256 q 68 354 53 328 q 108 399 83 380 q 159 429 132 418 q 221 447 185 440 q 290 456 256 454 q 366 458 324 458 q 417 456 391 458 q 457 452 444 454 l 471 450 l 471 530 q 455 586 471 570 q 402 602 439 602 q 334 592 370 602 q 270 567 298 582 q 218 538 242 553 q 182 513 195 524 l 170 503 q 121 524 138 503 q 104 582 104 544 q 118 638 104 613 q 152 679 131 663 q 204 708 172 696 q 267 726 237 720 q 338 736 298 732 q 410 741 379 740 q 479 742 440 742 q 599 732 548 742 q 686 699 650 722 q 744 646 721 676 q 779 571 766 616 q 795 476 791 525 q 800 358 800 427 q 800 327 800 337 q 801 299 800 317 q 803 272 802 281 q 807 249 804 262 q 813 229 809 236 q 822 214 817 222 q 834 202 827 206 q 851 196 842 198 q 860 196 852 196 q 872 194 867 195 q 882 187 876 192 q 891 172 888 182 q 895 145 895 161 q 891 100 895 131 q 874 29 888 69 q 839 -18 860 -12 q 820 -13 836 -18 q 798 -8 804 -9 q 774 -4 791 -7 q 737 -1 758 -2 q 687 -1 716 -1 q 599 -4 640 -1 q 546 -7 559 -7 q 494 84 521 -7 m 464 184 q 471 334 471 217 q 462 361 471 355 q 414 368 454 368 q 360 341 379 368 q 341 267 341 315 q 357 182 341 221 q 403 144 374 144 q 440 157 420 144 q 464 184 459 170 z "},"":{"ha":924,"x_min":35,"x_max":895,"o":"m 755 1064 q 777 967 777 1010 q 742 858 777 899 q 635 817 708 817 q 537 837 593 817 q 435 879 481 858 q 374 899 390 899 q 343 865 343 899 l 344 822 q 277 812 341 812 q 191 822 193 812 q 181 909 181 868 q 189 966 181 940 q 214 1014 197 992 q 261 1049 231 1036 q 332 1061 291 1061 q 423 1043 370 1061 q 521 1005 477 1024 q 579 986 565 986 q 603 994 593 986 q 612 1016 612 1002 l 612 1063 q 623 1064 612 1063 q 653 1067 634 1065 q 690 1068 673 1068 q 755 1064 730 1068 m 494 84 q 393 8 454 34 q 267 -18 332 -18 q 159 0 205 -18 q 87 52 113 19 q 47 124 60 85 q 35 210 35 164 q 44 292 35 256 q 68 354 53 328 q 108 399 83 380 q 159 429 132 418 q 221 447 185 440 q 290 456 256 454 q 366 458 324 458 q 417 456 391 458 q 457 452 444 454 l 471 450 l 471 530 q 455 586 471 570 q 402 602 439 602 q 334 592 370 602 q 270 567 298 582 q 218 538 242 553 q 182 513 195 524 l 170 503 q 121 524 138 503 q 104 582 104 544 q 118 638 104 613 q 152 679 131 663 q 204 708 172 696 q 267 726 237 720 q 338 736 298 732 q 410 741 379 740 q 479 742 440 742 q 599 732 548 742 q 686 699 650 722 q 744 646 721 676 q 779 571 766 616 q 795 476 791 525 q 800 358 800 427 q 800 327 800 337 q 801 299 800 317 q 803 272 802 281 q 807 249 804 262 q 813 229 809 236 q 822 214 817 222 q 834 202 827 206 q 851 196 842 198 q 860 196 852 196 q 872 194 867 195 q 882 187 876 192 q 891 172 888 182 q 895 145 895 161 q 891 100 895 131 q 874 29 888 69 q 839 -18 860 -12 q 820 -13 836 -18 q 798 -8 804 -9 q 774 -4 791 -7 q 737 -1 758 -2 q 687 -1 716 -1 q 599 -4 640 -1 q 546 -7 559 -7 q 494 84 521 -7 m 464 184 q 471 334 471 217 q 462 361 471 355 q 414 368 454 368 q 360 341 379 368 q 341 267 341 315 q 357 182 341 221 q 403 144 374 144 q 440 157 420 144 q 464 184 459 170 z "},"":{"ha":924,"x_min":35,"x_max":895,"o":"m 207 848 q 189 866 207 848 q 172 937 172 884 q 207 1025 172 989 q 311 1061 242 1061 q 411 1024 378 1061 q 445 937 445 988 q 411 848 445 885 q 311 812 378 812 q 207 848 242 812 m 555 848 q 537 866 555 848 q 519 937 519 884 q 555 1025 519 989 q 659 1061 590 1061 q 759 1024 726 1061 q 793 937 793 988 q 759 848 793 885 q 659 812 726 812 q 555 848 590 812 m 494 84 q 393 8 454 34 q 267 -18 332 -18 q 159 0 205 -18 q 87 52 113 19 q 47 124 60 85 q 35 210 35 164 q 44 292 35 256 q 68 354 53 328 q 108 399 83 380 q 159 429 132 418 q 221 447 185 440 q 290 456 256 454 q 366 458 324 458 q 417 456 391 458 q 457 452 444 454 l 471 450 l 471 530 q 455 586 471 570 q 402 602 439 602 q 334 592 370 602 q 270 567 298 582 q 218 538 242 553 q 182 513 195 524 l 170 503 q 121 524 138 503 q 104 582 104 544 q 118 638 104 613 q 152 679 131 663 q 204 708 172 696 q 267 726 237 720 q 338 736 298 732 q 410 741 379 740 q 479 742 440 742 q 599 732 548 742 q 686 699 650 722 q 744 646 721 676 q 779 571 766 616 q 795 476 791 525 q 800 358 800 427 q 800 327 800 337 q 801 299 800 317 q 803 272 802 281 q 807 249 804 262 q 813 229 809 236 q 822 214 817 222 q 834 202 827 206 q 851 196 842 198 q 860 196 852 196 q 872 194 867 195 q 882 187 876 192 q 891 172 888 182 q 895 145 895 161 q 891 100 895 131 q 874 29 888 69 q 839 -18 860 -12 q 820 -13 836 -18 q 798 -8 804 -9 q 774 -4 791 -7 q 737 -1 758 -2 q 687 -1 716 -1 q 599 -4 640 -1 q 546 -7 559 -7 q 494 84 521 -7 m 464 184 q 471 334 471 217 q 462 361 471 355 q 414 368 454 368 q 360 341 379 368 q 341 267 341 315 q 357 182 341 221 q 403 144 374 144 q 440 157 420 144 q 464 184 459 170 z "},"":{"ha":924,"x_min":35,"x_max":895,"o":"m 480 812 q 359 853 410 812 q 309 965 309 895 q 357 1076 309 1035 q 481 1117 406 1117 q 602 1075 556 1117 q 648 967 648 1032 q 600 856 648 900 q 480 812 551 812 m 379 964 q 408 886 379 914 q 477 858 437 858 q 547 886 517 858 q 576 965 576 915 q 547 1042 576 1015 q 478 1069 518 1069 q 409 1042 438 1069 q 379 964 379 1014 m 494 84 q 393 8 454 34 q 267 -18 332 -18 q 159 0 205 -18 q 87 52 113 19 q 47 124 60 85 q 35 210 35 164 q 44 292 35 256 q 68 354 53 328 q 108 399 83 380 q 159 429 132 418 q 221 447 185 440 q 290 456 256 454 q 366 458 324 458 q 417 456 391 458 q 457 452 444 454 l 471 450 l 471 530 q 455 586 471 570 q 402 602 439 602 q 334 592 370 602 q 270 567 298 582 q 218 538 242 553 q 182 513 195 524 l 170 503 q 121 524 138 503 q 104 582 104 544 q 118 638 104 613 q 152 679 131 663 q 204 708 172 696 q 267 726 237 720 q 338 736 298 732 q 410 741 379 740 q 479 742 440 742 q 599 732 548 742 q 686 699 650 722 q 744 646 721 676 q 779 571 766 616 q 795 476 791 525 q 800 358 800 427 q 800 327 800 337 q 801 299 800 317 q 803 272 802 281 q 807 249 804 262 q 813 229 809 236 q 822 214 817 222 q 834 202 827 206 q 851 196 842 198 q 860 196 852 196 q 872 194 867 195 q 882 187 876 192 q 891 172 888 182 q 895 145 895 161 q 891 100 895 131 q 874 29 888 69 q 839 -18 860 -12 q 820 -13 836 -18 q 798 -8 804 -9 q 774 -4 791 -7 q 737 -1 758 -2 q 687 -1 716 -1 q 599 -4 640 -1 q 546 -7 559 -7 q 494 84 521 -7 m 464 184 q 471 334 471 217 q 462 361 471 355 q 414 368 454 368 q 360 341 379 368 q 341 267 341 315 q 357 182 341 221 q 403 144 374 144 q 440 157 420 144 q 464 184 459 170 z "},"":{"ha":1290,"x_min":47,"x_max":1249,"o":"m 1187 66 q 900 -18 1099 -18 q 757 13 823 -18 q 642 103 690 44 q 477 12 572 43 q 279 -18 382 -18 q 172 0 218 -18 q 99 52 125 19 q 60 124 73 85 q 47 210 47 164 q 56 292 47 256 q 80 354 65 328 q 120 399 96 380 q 171 429 144 418 q 233 447 197 440 q 302 456 269 454 q 378 458 336 458 q 434 456 406 458 q 477 452 462 454 l 492 450 l 492 530 q 473 586 492 570 q 414 602 455 602 q 346 592 382 602 q 282 567 310 582 q 231 538 254 553 q 194 513 207 524 l 182 503 q 133 524 150 503 q 117 582 117 544 q 130 638 117 613 q 163 680 142 663 q 215 708 183 696 q 276 727 246 720 q 347 737 307 733 q 416 742 387 741 q 484 743 446 743 q 608 719 552 743 q 690 656 664 696 q 786 720 727 697 q 909 743 846 743 q 1144 663 1050 743 q 1249 470 1238 583 q 1226 423 1245 443 q 1183 392 1208 403 q 1124 373 1159 380 q 1060 364 1088 366 q 996 361 1031 361 q 840 359 902 359 q 887 242 845 280 q 988 205 928 205 q 1112 224 1049 205 q 1221 277 1174 244 q 1244 237 1244 267 q 1226 137 1244 190 q 1187 66 1207 85 m 485 170 q 492 332 492 206 q 489 354 492 348 q 472 364 486 360 q 426 368 458 368 q 372 341 391 368 q 353 267 353 315 q 370 182 353 221 q 415 144 386 144 q 457 152 435 144 q 485 170 479 161 m 827 475 q 884 474 846 475 q 944 473 923 473 q 981 484 971 473 q 991 522 991 495 q 970 597 991 571 q 911 624 950 624 q 844 589 860 624 q 827 475 827 553 z "},"":{"ha":783,"x_min":26,"x_max":760,"o":"m 374 -340 l 395 -223 q 458 -233 429 -233 q 507 -219 490 -233 q 524 -184 524 -204 q 503 -143 524 -161 q 446 -125 482 -125 q 410 -130 429 -125 l 410 -7 l 481 -7 l 481 -58 q 563 -75 528 -60 q 616 -113 598 -90 q 643 -160 635 -136 q 652 -209 652 -184 q 603 -308 652 -268 q 465 -349 555 -349 q 374 -340 420 -349 m 739 264 l 760 231 q 684 47 760 112 q 448 -18 608 -18 q 263 13 345 -18 q 130 97 181 45 q 53 215 79 150 q 26 352 26 281 q 52 498 26 429 q 130 623 79 568 q 262 710 180 677 q 447 742 344 742 q 658 693 587 742 q 729 580 729 645 q 688 493 729 530 q 580 457 646 457 l 504 616 q 463 623 496 623 q 408 594 430 623 q 376 523 385 566 q 367 427 367 479 q 414 266 367 323 q 533 208 462 208 q 739 264 642 208 z "},"":{"ha":833,"x_min":33,"x_max":804,"o":"m 501 812 l 399 812 q 285 917 352 852 q 195 1008 218 982 q 160 1042 182 1021 q 130 1074 138 1063 q 121 1093 121 1084 q 146 1125 121 1115 q 228 1135 170 1135 q 308 1122 282 1135 q 357 1072 334 1109 q 431 939 375 1043 q 501 812 488 836 m 368 475 q 429 474 388 475 q 492 473 469 473 q 529 484 519 473 q 538 522 538 495 q 518 597 538 571 q 459 624 498 624 q 386 589 404 624 q 368 475 368 554 m 742 66 q 454 -18 653 -18 q 243 27 338 -18 q 90 160 148 72 q 33 365 33 249 q 147 642 33 543 q 450 742 262 742 q 695 663 597 742 q 804 470 793 583 q 551 361 788 366 q 380 359 482 359 q 432 242 387 280 q 543 205 477 205 q 666 224 604 205 q 776 277 728 244 q 799 237 799 267 q 780 137 799 190 q 742 66 762 85 z "},"":{"ha":833,"x_min":33,"x_max":804,"o":"m 410 812 q 581 1072 507 954 q 627 1121 604 1108 q 697 1135 650 1135 q 774 1125 751 1135 q 796 1093 796 1115 q 787 1074 796 1084 q 754 1042 778 1063 q 716 1008 730 1021 q 615 919 692 985 q 486 812 538 852 l 410 812 m 368 475 q 429 474 388 475 q 492 473 469 473 q 529 484 519 473 q 538 522 538 495 q 518 597 538 571 q 459 624 498 624 q 386 589 404 624 q 368 475 368 554 m 742 66 q 454 -18 653 -18 q 243 27 338 -18 q 90 160 148 72 q 33 365 33 249 q 147 642 33 543 q 450 742 262 742 q 695 663 597 742 q 804 470 793 583 q 551 361 788 366 q 380 359 482 359 q 432 242 387 280 q 543 205 477 205 q 666 224 604 205 q 776 277 728 244 q 799 237 799 267 q 780 137 799 190 q 742 66 762 85 z "},"":{"ha":833,"x_min":33,"x_max":804,"o":"m 399 1135 l 500 1135 q 609 1027 546 1093 q 691 939 673 961 q 710 916 699 929 q 727 896 721 903 q 739 881 733 889 q 748 866 745 872 q 751 853 751 859 q 729 822 751 831 q 658 812 708 812 q 599 822 618 812 q 552 861 580 833 l 450 991 l 347 861 q 300 822 319 833 q 241 812 281 812 q 170 822 191 812 q 149 853 149 831 q 151 866 149 859 q 160 881 154 872 q 172 896 166 889 q 190 916 178 903 q 208 939 201 929 q 290 1027 227 961 q 399 1135 353 1093 m 368 475 q 429 474 388 475 q 492 473 469 473 q 529 484 519 473 q 538 522 538 495 q 518 597 538 571 q 459 624 498 624 q 386 589 404 624 q 368 475 368 554 m 742 66 q 454 -18 653 -18 q 243 27 338 -18 q 90 160 148 72 q 33 365 33 249 q 147 642 33 543 q 450 742 262 742 q 695 663 597 742 q 804 470 793 583 q 551 361 788 366 q 380 359 482 359 q 432 242 387 280 q 543 205 477 205 q 666 224 604 205 q 776 277 728 244 q 799 237 799 267 q 780 137 799 190 q 742 66 762 85 z "},"":{"ha":833,"x_min":33,"x_max":804,"o":"m 178 848 q 160 866 178 848 q 142 937 142 884 q 178 1025 142 989 q 281 1061 213 1061 q 382 1024 349 1061 q 416 937 416 988 q 382 848 416 885 q 281 812 349 812 q 178 848 213 812 m 526 848 q 508 866 526 848 q 490 937 490 884 q 526 1025 490 989 q 629 1061 561 1061 q 730 1024 696 1061 q 764 937 764 988 q 730 848 764 885 q 629 812 696 812 q 526 848 561 812 m 368 475 q 429 474 388 475 q 492 473 469 473 q 529 484 519 473 q 538 522 538 495 q 518 597 538 571 q 459 624 498 624 q 386 589 404 624 q 368 475 368 554 m 742 66 q 454 -18 653 -18 q 243 27 338 -18 q 90 160 148 72 q 33 365 33 249 q 147 642 33 543 q 450 742 262 742 q 695 663 597 742 q 804 470 793 583 q 551 361 788 366 q 380 359 482 359 q 432 242 387 280 q 543 205 477 205 q 666 224 604 205 q 776 277 728 244 q 799 237 799 267 q 780 137 799 190 q 742 66 762 85 z "},"":{"ha":629,"x_min":37,"x_max":604,"o":"m 417 811 l 315 811 q 201 916 268 851 q 111 1007 134 981 q 76 1042 98 1021 q 45 1073 54 1063 q 37 1093 37 1083 q 62 1124 37 1114 q 144 1134 86 1134 q 224 1121 198 1134 q 273 1071 250 1108 q 347 939 291 1042 q 417 811 404 835 m 495 398 q 496 346 495 368 q 500 295 496 324 q 509 248 503 267 q 526 215 515 229 q 552 199 536 201 q 571 196 564 197 q 586 189 577 194 q 600 176 595 184 q 604 154 604 167 q 590 49 604 103 q 551 -18 576 -5 q 334 0 452 0 q 111 -18 212 0 q 72 49 86 -5 q 58 154 58 103 q 62 176 58 167 q 76 189 66 184 q 91 196 85 194 q 110 199 98 197 q 141 218 129 201 q 158 262 153 234 q 165 314 163 290 q 167 371 167 338 l 167 406 q 166 442 167 429 q 160 476 165 456 q 145 509 155 496 q 117 531 136 521 q 71 545 98 542 q 43 555 50 547 q 37 585 37 563 q 49 681 37 632 q 81 742 60 729 q 315 724 191 724 q 395 728 350 724 q 452 732 441 732 q 492 721 483 732 q 502 673 502 710 q 500 618 502 671 q 497 499 498 565 q 495 398 495 433 z "},"":{"ha":629,"x_min":37,"x_max":604,"o":"m 175 811 q 346 1071 272 954 q 392 1121 369 1107 q 463 1134 416 1134 q 539 1124 517 1134 q 562 1093 562 1114 q 552 1073 562 1083 q 519 1042 543 1063 q 481 1007 496 1021 q 381 918 458 984 q 251 811 304 852 l 175 811 m 495 398 q 496 346 495 368 q 500 295 496 324 q 509 248 503 267 q 526 215 515 229 q 552 199 536 201 q 571 196 564 197 q 586 189 577 194 q 600 176 595 184 q 604 154 604 167 q 590 49 604 103 q 551 -18 576 -5 q 334 0 452 0 q 111 -18 212 0 q 72 49 86 -5 q 58 154 58 103 q 62 176 58 167 q 76 189 66 184 q 91 196 85 194 q 110 199 98 197 q 141 218 129 201 q 158 262 153 234 q 165 314 163 290 q 167 371 167 338 l 167 406 q 166 442 167 429 q 160 476 165 456 q 145 509 155 496 q 117 531 136 521 q 71 545 98 542 q 43 555 50 547 q 37 585 37 563 q 49 681 37 632 q 81 742 60 729 q 315 724 191 724 q 395 728 350 724 q 452 732 441 732 q 492 721 483 732 q 502 673 502 710 q 500 618 502 671 q 497 499 498 565 q 495 398 495 433 z "},"":{"ha":629,"x_min":12,"x_max":614,"o":"m 262 1134 l 363 1134 q 472 1026 409 1093 q 554 938 536 960 q 573 916 562 928 q 590 896 584 903 q 602 880 596 888 q 611 865 608 871 q 614 852 614 859 q 592 821 614 831 q 521 811 571 811 q 462 822 481 811 q 415 861 443 832 l 313 990 l 210 861 q 163 822 182 832 q 104 811 144 811 q 33 821 54 811 q 12 852 12 831 q 14 865 12 859 q 23 880 17 871 q 35 896 29 888 q 53 916 41 903 q 71 938 64 928 q 153 1026 90 960 q 262 1134 216 1093 m 495 398 q 496 346 495 368 q 500 295 496 324 q 509 248 503 267 q 526 215 515 229 q 552 199 536 201 q 571 196 564 197 q 586 189 577 194 q 600 176 595 184 q 604 154 604 167 q 590 49 604 103 q 551 -18 576 -5 q 334 0 452 0 q 111 -18 212 0 q 72 49 86 -5 q 58 154 58 103 q 62 176 58 167 q 76 189 66 184 q 91 196 85 194 q 110 199 98 197 q 141 218 129 201 q 158 262 153 234 q 165 314 163 290 q 167 371 167 338 l 167 406 q 166 442 167 429 q 160 476 165 456 q 145 509 155 496 q 117 531 136 521 q 71 545 98 542 q 43 555 50 547 q 37 585 37 563 q 49 681 37 632 q 81 742 60 729 q 315 724 191 724 q 395 728 350 724 q 452 732 441 732 q 492 721 483 732 q 502 673 502 710 q 500 618 502 671 q 497 499 498 565 q 495 398 495 433 z "},"":{"ha":629,"x_min":4,"x_max":625,"o":"m 39 847 q 22 866 39 847 q 4 936 4 884 q 39 1024 4 988 q 143 1060 75 1060 q 244 1024 210 1060 q 277 936 277 987 q 244 848 277 884 q 143 811 210 811 q 39 847 75 811 m 387 847 q 370 866 387 847 q 352 936 352 884 q 387 1024 352 988 q 491 1060 422 1060 q 592 1024 558 1060 q 625 936 625 987 q 592 848 625 884 q 491 811 558 811 q 387 847 422 811 m 495 398 q 496 346 495 368 q 500 295 496 324 q 509 248 503 267 q 526 215 515 229 q 552 199 536 201 q 571 196 564 197 q 586 189 577 194 q 600 176 595 184 q 604 154 604 167 q 590 49 604 103 q 551 -18 576 -5 q 334 0 452 0 q 111 -18 212 0 q 72 49 86 -5 q 58 154 58 103 q 62 176 58 167 q 76 189 66 184 q 91 196 85 194 q 110 199 98 197 q 141 218 129 201 q 158 262 153 234 q 165 314 163 290 q 167 371 167 338 l 167 406 q 166 442 167 429 q 160 476 165 456 q 145 509 155 496 q 117 531 136 521 q 71 545 98 542 q 43 555 50 547 q 37 585 37 563 q 49 681 37 632 q 81 742 60 729 q 315 724 191 724 q 395 728 350 724 q 452 732 441 732 q 492 721 483 732 q 502 673 502 710 q 500 618 502 671 q 497 499 498 565 q 495 398 495 433 z "},"":{"ha":1158,"x_min":22,"x_max":1120,"o":"m 548 473 q 463 434 496 473 q 429 319 429 395 q 431 267 429 290 q 440 215 433 243 q 460 167 448 186 q 497 135 473 149 q 553 122 521 122 q 631 162 600 122 q 663 289 663 203 q 663 328 663 314 q 661 364 663 341 q 654 399 659 387 q 641 428 650 412 q 621 452 633 444 q 590 467 609 460 q 548 473 572 473 m 487 680 q 441 755 441 680 q 465 799 441 785 q 548 824 489 814 q 563 827 553 825 q 583 830 573 829 q 600 833 592 832 q 502 887 562 887 q 428 873 463 887 q 372 838 394 859 q 331 792 350 817 q 300 747 311 768 q 277 712 288 726 q 257 698 266 698 q 145 720 209 698 q 81 766 81 743 q 132 927 81 851 q 240 1011 183 1003 q 502 1030 311 1030 q 931 895 769 1030 q 976 904 945 898 q 1021 913 1007 910 q 1087 913 1063 922 q 1111 886 1111 904 q 1095 819 1111 845 q 1032 781 1079 793 q 1120 456 1120 643 q 1087 270 1120 354 q 988 121 1054 185 q 817 22 922 58 q 576 -16 712 -14 q 406 -4 486 -16 q 256 36 327 8 q 133 106 184 64 q 52 210 82 148 q 22 351 22 273 q 46 458 22 410 q 110 538 71 506 q 201 591 149 570 q 306 623 252 613 q 414 632 359 632 q 657 570 555 632 l 657 589 q 647 711 657 657 q 487 680 557 694 z "},"":{"ha":1097,"x_min":20,"x_max":1076,"o":"m 825 1064 q 846 967 846 1010 q 811 858 846 899 q 705 817 777 817 q 606 837 663 817 q 505 879 550 858 q 444 899 459 899 q 412 865 412 899 l 413 822 q 346 812 410 812 q 260 822 262 812 q 250 909 250 868 q 258 966 250 940 q 283 1014 266 992 q 330 1049 300 1036 q 401 1061 360 1061 q 492 1043 439 1061 q 590 1005 546 1024 q 648 986 634 986 q 672 994 663 986 q 682 1016 682 1002 l 682 1063 q 692 1064 682 1063 q 723 1067 703 1065 q 759 1068 742 1068 q 825 1064 800 1068 m 854 0 q 796 -5 838 0 q 732 -11 753 -11 q 663 4 688 -11 q 637 60 637 20 q 638 152 637 90 q 640 276 640 214 q 626 493 640 429 q 568 556 613 556 q 479 444 479 556 l 479 391 q 479 345 479 361 q 481 303 479 328 q 485 264 482 278 q 494 234 488 250 q 508 210 499 218 q 529 199 517 202 q 565 188 549 199 q 581 154 581 176 q 567 49 581 103 q 528 -18 553 -5 q 318 0 431 0 q 95 -18 195 0 q 56 49 70 -5 q 42 154 42 103 q 58 188 42 176 q 94 199 73 199 q 139 248 129 206 q 150 371 150 289 l 150 389 q 131 506 150 475 q 45 546 111 537 q 25 558 29 549 q 20 596 20 568 q 28 667 20 632 q 46 722 36 702 q 64 742 56 742 q 278 724 183 724 q 369 728 321 724 q 430 733 416 733 q 469 723 459 733 q 479 673 479 712 l 478 631 q 593 713 530 685 q 723 742 657 742 q 818 726 774 742 q 898 680 863 711 q 952 598 932 649 q 972 481 972 547 q 970 432 972 465 q 968 381 968 399 q 969 341 968 357 q 970 302 969 325 q 975 264 972 279 q 984 233 979 248 q 997 210 989 218 q 1017 201 1006 202 q 1025 199 1019 201 q 1034 198 1032 198 q 1042 196 1036 197 q 1050 194 1048 195 q 1057 191 1052 193 q 1063 186 1061 189 q 1068 181 1065 184 q 1073 174 1072 178 q 1075 165 1074 170 q 1076 154 1076 160 q 1062 49 1076 103 q 1023 -18 1048 -5 q 854 0 941 0 z "},"":{"ha":948,"x_min":41,"x_max":907,"o":"m 517 812 l 415 812 q 301 917 368 852 q 211 1008 235 982 q 176 1042 198 1021 q 146 1074 154 1063 q 138 1093 138 1084 q 162 1125 138 1115 q 244 1135 186 1135 q 325 1122 298 1135 q 374 1072 351 1109 q 448 939 391 1043 q 517 812 504 836 m 475 -18 q 160 81 279 -18 q 41 359 41 180 q 150 640 41 538 q 467 742 260 742 q 647 720 567 742 q 786 652 727 697 q 876 536 844 608 q 907 369 907 464 q 793 82 907 183 q 475 -18 680 -18 m 403 359 q 418 171 403 231 q 477 111 433 111 q 504 120 492 111 q 523 148 516 129 q 535 188 530 167 q 542 241 540 208 q 545 302 544 275 q 545 370 545 329 q 545 421 545 401 q 543 476 545 441 q 536 532 541 510 q 524 577 532 554 q 504 612 517 600 q 475 623 492 623 q 416 563 430 623 q 403 359 403 503 z "},"":{"ha":948,"x_min":41,"x_max":907,"o":"m 427 812 q 598 1072 524 954 q 645 1121 621 1108 q 715 1135 668 1135 q 791 1125 769 1135 q 814 1093 814 1115 q 805 1074 814 1084 q 772 1042 795 1063 q 734 1008 748 1021 q 633 919 710 985 q 503 812 556 852 l 427 812 m 475 -18 q 160 81 279 -18 q 41 359 41 180 q 150 640 41 538 q 467 742 260 742 q 647 720 567 742 q 786 652 727 697 q 876 536 844 608 q 907 369 907 464 q 793 82 907 183 q 475 -18 680 -18 m 403 359 q 418 171 403 231 q 477 111 433 111 q 504 120 492 111 q 523 148 516 129 q 535 188 530 167 q 542 241 540 208 q 545 302 544 275 q 545 370 545 329 q 545 421 545 401 q 543 476 545 441 q 536 532 541 510 q 524 577 532 554 q 504 612 517 600 q 475 623 492 623 q 416 563 430 623 q 403 359 403 503 z "},"":{"ha":948,"x_min":41,"x_max":907,"o":"m 416 1135 l 517 1135 q 626 1027 563 1093 q 708 939 690 961 q 727 916 715 929 q 744 896 738 903 q 756 881 750 889 q 765 866 762 872 q 768 853 768 859 q 746 822 768 831 q 675 812 725 812 q 616 822 635 812 q 569 861 597 833 l 467 991 l 364 861 q 317 822 336 833 q 258 812 298 812 q 187 822 208 812 q 165 853 165 831 q 168 866 165 859 q 177 881 171 872 q 189 896 183 889 q 207 916 195 903 q 225 939 218 929 q 307 1027 243 961 q 416 1135 370 1093 m 475 -18 q 160 81 279 -18 q 41 359 41 180 q 150 640 41 538 q 467 742 260 742 q 647 720 567 742 q 786 652 727 697 q 876 536 844 608 q 907 369 907 464 q 793 82 907 183 q 475 -18 680 -18 m 403 359 q 418 171 403 231 q 477 111 433 111 q 504 120 492 111 q 523 148 516 129 q 535 188 530 167 q 542 241 540 208 q 545 302 544 275 q 545 370 545 329 q 545 421 545 401 q 543 476 545 441 q 536 532 541 510 q 524 577 532 554 q 504 612 517 600 q 475 623 492 623 q 416 563 430 623 q 403 359 403 503 z "},"":{"ha":948,"x_min":41,"x_max":907,"o":"m 743 1064 q 764 967 764 1010 q 730 858 764 899 q 623 817 696 817 q 525 837 581 817 q 423 879 469 858 q 362 899 378 899 q 331 865 331 899 l 332 822 q 264 812 329 812 q 179 822 181 812 q 169 909 169 868 q 177 966 169 940 q 201 1014 184 992 q 249 1049 218 1036 q 320 1061 279 1061 q 411 1043 357 1061 q 509 1005 465 1024 q 567 986 553 986 q 591 994 581 986 q 600 1016 600 1002 l 600 1063 q 611 1064 600 1063 q 641 1067 622 1065 q 677 1068 661 1068 q 743 1064 718 1068 m 475 -18 q 160 81 279 -18 q 41 359 41 180 q 150 640 41 538 q 467 742 260 742 q 647 720 567 742 q 786 652 727 697 q 876 536 844 608 q 907 369 907 464 q 793 82 907 183 q 475 -18 680 -18 m 403 359 q 418 171 403 231 q 477 111 433 111 q 504 120 492 111 q 523 148 516 129 q 535 188 530 167 q 542 241 540 208 q 545 302 544 275 q 545 370 545 329 q 545 421 545 401 q 543 476 545 441 q 536 532 541 510 q 524 577 532 554 q 504 612 517 600 q 475 623 492 623 q 416 563 430 623 q 403 359 403 503 z "},"":{"ha":948,"x_min":41,"x_max":907,"o":"m 195 848 q 177 866 195 848 q 159 937 159 884 q 195 1025 159 989 q 298 1061 230 1061 q 399 1024 366 1061 q 433 937 433 988 q 399 848 433 885 q 298 812 366 812 q 195 848 230 812 m 543 848 q 525 866 543 848 q 507 937 507 884 q 543 1025 507 989 q 646 1061 578 1061 q 747 1024 713 1061 q 781 937 781 988 q 747 848 781 885 q 646 812 713 812 q 543 848 578 812 m 475 -18 q 160 81 279 -18 q 41 359 41 180 q 150 640 41 538 q 467 742 260 742 q 647 720 567 742 q 786 652 727 697 q 876 536 844 608 q 907 369 907 464 q 793 82 907 183 q 475 -18 680 -18 m 403 359 q 418 171 403 231 q 477 111 433 111 q 504 120 492 111 q 523 148 516 129 q 535 188 530 167 q 542 241 540 208 q 545 302 544 275 q 545 370 545 329 q 545 421 545 401 q 543 476 545 441 q 536 532 541 510 q 524 577 532 554 q 504 612 517 600 q 475 623 492 623 q 416 563 430 623 q 403 359 403 503 z "},"":{"ha":719,"x_min":25,"x_max":692,"o":"m 146 473 q 570 473 182 473 q 667 475 641 473 q 692 418 692 466 q 654 353 692 353 q 612 356 651 355 q 537 357 574 357 l 500 357 l 161 357 q 62 352 67 355 q 25 416 25 352 q 50 474 25 465 q 146 473 67 473 m 229 161 q 262 244 229 210 q 359 279 295 279 q 453 244 422 279 q 485 161 485 210 q 453 79 485 113 q 359 44 422 44 q 262 78 295 44 q 229 161 229 112 m 229 663 q 262 747 229 713 q 359 781 295 781 q 453 746 422 781 q 485 663 485 711 q 453 581 485 615 q 359 546 422 546 q 262 580 295 546 q 229 663 229 614 z "},"":{"ha":931,"x_min":28,"x_max":895,"o":"m 391 337 q 522 545 465 453 q 463 623 505 623 q 404 563 418 623 q 391 359 391 503 l 391 337 m 203 42 q 74 169 119 89 q 28 359 28 250 q 138 640 28 538 q 454 742 248 742 q 632 721 554 742 q 682 803 664 772 q 712 821 688 821 l 716 821 q 726 821 721 821 q 738 821 730 821 q 752 820 745 821 q 765 817 758 819 q 777 812 772 815 q 784 805 781 809 q 787 794 787 800 q 777 759 787 777 q 755 723 771 749 q 730 682 739 697 q 895 369 895 589 q 781 82 895 183 q 463 -18 667 -18 q 311 -1 382 -18 q 285 -42 301 -17 q 264 -76 269 -67 q 202 -108 243 -108 q 156 -96 170 -108 q 142 -61 142 -85 q 146 -47 142 -54 q 160 -25 150 -40 q 176 -1 171 -9 q 187 17 178 2 q 203 42 196 31 m 410 159 q 465 111 428 111 q 491 120 479 111 q 510 146 503 128 q 522 184 517 163 q 529 235 527 204 q 532 293 532 265 q 533 359 533 320 q 410 159 449 222 z "},"":{"ha":1112,"x_min":27,"x_max":1085,"o":"m 596 812 l 494 812 q 380 917 447 852 q 290 1008 313 982 q 255 1042 277 1021 q 224 1074 233 1063 q 216 1093 216 1084 q 241 1125 216 1115 q 323 1135 265 1135 q 403 1122 377 1135 q 452 1072 429 1109 q 526 939 470 1043 q 596 812 583 836 m 656 406 q 655 442 656 429 q 649 476 654 455 q 635 509 644 497 q 607 531 626 521 q 562 545 589 542 q 534 555 540 547 q 528 585 528 563 q 539 681 528 632 q 571 742 551 729 q 798 724 677 724 q 883 728 836 724 q 943 733 931 733 q 981 722 973 733 q 989 673 989 711 q 988 624 989 671 q 986 511 987 576 q 985 401 985 446 q 985 339 985 360 q 988 288 985 317 q 997 243 991 258 q 1014 214 1003 227 q 1042 197 1025 201 q 1050 196 1043 197 q 1062 194 1057 195 q 1073 188 1067 192 q 1082 172 1079 183 q 1085 146 1085 161 q 1082 101 1085 132 q 1064 30 1078 70 q 1029 -18 1050 -11 q 1010 -14 1025 -17 q 990 -9 996 -10 q 969 -6 985 -8 q 939 -2 953 -3 q 901 -1 924 -1 q 848 0 877 0 q 758 -3 804 0 q 701 -7 713 -7 q 644 85 644 -7 q 548 4 607 27 q 405 -18 490 -18 q 327 -11 362 -18 q 266 14 292 -3 q 220 52 240 31 q 186 103 200 73 q 164 164 173 133 q 151 237 155 196 q 144 318 146 279 q 142 406 142 357 q 141 452 142 435 q 132 492 139 469 q 107 528 125 515 q 61 544 90 541 q 33 555 39 547 q 27 585 27 563 q 39 681 27 632 q 71 742 50 729 q 278 724 165 724 q 367 728 317 724 q 429 733 416 733 q 469 722 460 733 q 479 673 479 710 q 477 624 479 671 q 473 516 475 578 q 471 416 471 454 q 472 333 471 359 q 475 269 472 306 q 483 216 477 232 q 499 183 489 200 q 525 160 509 165 q 563 154 541 154 q 595 160 581 154 q 620 176 610 166 q 636 204 629 186 q 647 241 643 222 q 652 288 650 259 q 655 343 654 317 q 656 406 656 368 z "},"":{"ha":1112,"x_min":27,"x_max":1085,"o":"m 419 812 q 590 1072 516 954 q 636 1121 613 1108 q 707 1135 660 1135 q 783 1125 761 1135 q 806 1093 806 1115 q 797 1074 806 1084 q 764 1042 787 1063 q 726 1008 740 1021 q 625 919 702 985 q 495 812 548 852 l 419 812 m 656 406 q 655 442 656 429 q 649 476 654 455 q 635 509 644 497 q 607 531 626 521 q 562 545 589 542 q 534 555 540 547 q 528 585 528 563 q 539 681 528 632 q 571 742 551 729 q 798 724 677 724 q 883 728 836 724 q 943 733 931 733 q 981 722 973 733 q 989 673 989 711 q 988 624 989 671 q 986 511 987 576 q 985 401 985 446 q 985 339 985 360 q 988 288 985 317 q 997 243 991 258 q 1014 214 1003 227 q 1042 197 1025 201 q 1050 196 1043 197 q 1062 194 1057 195 q 1073 188 1067 192 q 1082 172 1079 183 q 1085 146 1085 161 q 1082 101 1085 132 q 1064 30 1078 70 q 1029 -18 1050 -11 q 1010 -14 1025 -17 q 990 -9 996 -10 q 969 -6 985 -8 q 939 -2 953 -3 q 901 -1 924 -1 q 848 0 877 0 q 758 -3 804 0 q 701 -7 713 -7 q 644 85 644 -7 q 548 4 607 27 q 405 -18 490 -18 q 327 -11 362 -18 q 266 14 292 -3 q 220 52 240 31 q 186 103 200 73 q 164 164 173 133 q 151 237 155 196 q 144 318 146 279 q 142 406 142 357 q 141 452 142 435 q 132 492 139 469 q 107 528 125 515 q 61 544 90 541 q 33 555 39 547 q 27 585 27 563 q 39 681 27 632 q 71 742 50 729 q 278 724 165 724 q 367 728 317 724 q 429 733 416 733 q 469 722 460 733 q 479 673 479 710 q 477 624 479 671 q 473 516 475 578 q 471 416 471 454 q 472 333 471 359 q 475 269 472 306 q 483 216 477 232 q 499 183 489 200 q 525 160 509 165 q 563 154 541 154 q 595 160 581 154 q 620 176 610 166 q 636 204 629 186 q 647 241 643 222 q 652 288 650 259 q 655 343 654 317 q 656 406 656 368 z "},"":{"ha":1112,"x_min":27,"x_max":1085,"o":"m 490 1135 l 591 1135 q 700 1027 637 1093 q 782 939 764 961 q 801 916 789 929 q 818 896 812 903 q 830 881 824 889 q 839 866 836 872 q 842 853 842 859 q 820 822 842 831 q 749 812 799 812 q 690 822 709 812 q 643 861 671 833 l 541 991 l 438 861 q 391 822 410 833 q 332 812 372 812 q 261 822 282 812 q 239 853 239 831 q 242 866 239 859 q 251 881 245 872 q 263 896 257 889 q 280 916 269 903 q 299 939 292 929 q 381 1027 317 961 q 490 1135 444 1093 m 656 406 q 655 442 656 429 q 649 476 654 455 q 635 509 644 497 q 607 531 626 521 q 562 545 589 542 q 534 555 540 547 q 528 585 528 563 q 539 681 528 632 q 571 742 551 729 q 798 724 677 724 q 883 728 836 724 q 943 733 931 733 q 981 722 973 733 q 989 673 989 711 q 988 624 989 671 q 986 511 987 576 q 985 401 985 446 q 985 339 985 360 q 988 288 985 317 q 997 243 991 258 q 1014 214 1003 227 q 1042 197 1025 201 q 1050 196 1043 197 q 1062 194 1057 195 q 1073 188 1067 192 q 1082 172 1079 183 q 1085 146 1085 161 q 1082 101 1085 132 q 1064 30 1078 70 q 1029 -18 1050 -11 q 1010 -14 1025 -17 q 990 -9 996 -10 q 969 -6 985 -8 q 939 -2 953 -3 q 901 -1 924 -1 q 848 0 877 0 q 758 -3 804 0 q 701 -7 713 -7 q 644 85 644 -7 q 548 4 607 27 q 405 -18 490 -18 q 327 -11 362 -18 q 266 14 292 -3 q 220 52 240 31 q 186 103 200 73 q 164 164 173 133 q 151 237 155 196 q 144 318 146 279 q 142 406 142 357 q 141 452 142 435 q 132 492 139 469 q 107 528 125 515 q 61 544 90 541 q 33 555 39 547 q 27 585 27 563 q 39 681 27 632 q 71 742 50 729 q 278 724 165 724 q 367 728 317 724 q 429 733 416 733 q 469 722 460 733 q 479 673 479 710 q 477 624 479 671 q 473 516 475 578 q 471 416 471 454 q 472 333 471 359 q 475 269 472 306 q 483 216 477 232 q 499 183 489 200 q 525 160 509 165 q 563 154 541 154 q 595 160 581 154 q 620 176 610 166 q 636 204 629 186 q 647 241 643 222 q 652 288 650 259 q 655 343 654 317 q 656 406 656 368 z "},"":{"ha":1112,"x_min":27,"x_max":1085,"o":"m 243 848 q 225 866 243 848 q 208 937 208 884 q 243 1025 208 989 q 347 1061 278 1061 q 447 1024 414 1061 q 481 937 481 988 q 447 848 481 885 q 347 812 414 812 q 243 848 278 812 m 591 848 q 573 866 591 848 q 555 937 555 884 q 591 1025 555 989 q 694 1061 626 1061 q 795 1024 762 1061 q 829 937 829 988 q 795 848 829 885 q 694 812 762 812 q 591 848 626 812 m 656 406 q 655 442 656 429 q 649 476 654 455 q 635 509 644 497 q 607 531 626 521 q 562 545 589 542 q 534 555 540 547 q 528 585 528 563 q 539 681 528 632 q 571 742 551 729 q 798 724 677 724 q 883 728 836 724 q 943 733 931 733 q 981 722 973 733 q 989 673 989 711 q 988 624 989 671 q 986 511 987 576 q 985 401 985 446 q 985 339 985 360 q 988 288 985 317 q 997 243 991 258 q 1014 214 1003 227 q 1042 197 1025 201 q 1050 196 1043 197 q 1062 194 1057 195 q 1073 188 1067 192 q 1082 172 1079 183 q 1085 146 1085 161 q 1082 101 1085 132 q 1064 30 1078 70 q 1029 -18 1050 -11 q 1010 -14 1025 -17 q 990 -9 996 -10 q 969 -6 985 -8 q 939 -2 953 -3 q 901 -1 924 -1 q 848 0 877 0 q 758 -3 804 0 q 701 -7 713 -7 q 644 85 644 -7 q 548 4 607 27 q 405 -18 490 -18 q 327 -11 362 -18 q 266 14 292 -3 q 220 52 240 31 q 186 103 200 73 q 164 164 173 133 q 151 237 155 196 q 144 318 146 279 q 142 406 142 357 q 141 452 142 435 q 132 492 139 469 q 107 528 125 515 q 61 544 90 541 q 33 555 39 547 q 27 585 27 563 q 39 681 27 632 q 71 742 50 729 q 278 724 165 724 q 367 728 317 724 q 429 733 416 733 q 469 722 460 733 q 479 673 479 710 q 477 624 479 671 q 473 516 475 578 q 471 416 471 454 q 472 333 471 359 q 475 269 472 306 q 483 216 477 232 q 499 183 489 200 q 525 160 509 165 q 563 154 541 154 q 595 160 581 154 q 620 176 610 166 q 636 204 629 186 q 647 241 643 222 q 652 288 650 259 q 655 343 654 317 q 656 406 656 368 z "},"":{"ha":964,"x_min":16,"x_max":940,"o":"m 425 812 q 596 1072 522 954 q 643 1121 619 1108 q 713 1135 666 1135 q 789 1125 767 1135 q 812 1093 812 1115 q 803 1074 812 1084 q 770 1042 793 1063 q 732 1008 746 1021 q 631 919 708 985 q 501 812 554 852 l 425 812 m 661 150 q 523 -77 564 -19 q 366 -216 444 -188 q 294 -229 332 -229 q 210 -215 254 -229 q 131 -169 165 -200 q 96 -97 96 -137 q 106 -42 96 -67 q 140 -16 117 -16 q 252 -33 225 -33 q 287 -33 277 -33 q 313 -27 297 -33 q 335 -16 328 -22 q 356 9 341 -10 q 381 47 370 28 q 415 106 393 66 l 353 106 q 132 486 201 370 q 95 531 114 515 q 63 550 77 547 q 38 555 50 553 q 21 564 27 557 q 16 589 16 571 q 21 700 16 671 q 43 742 26 728 q 258 724 172 724 q 465 743 382 724 q 487 704 481 737 q 494 591 494 671 q 486 566 494 574 q 469 556 479 557 q 452 548 460 555 q 445 526 445 541 q 454 507 445 524 q 475 464 463 489 q 500 414 488 439 q 523 370 513 389 q 534 347 533 350 q 555 322 547 322 q 574 347 564 322 q 600 405 576 352 q 638 490 624 457 q 652 526 652 522 q 641 544 652 537 q 618 552 631 550 q 595 564 606 555 q 585 589 585 572 q 629 743 585 732 q 802 724 730 724 q 916 742 861 724 q 920 743 916 743 q 931 731 927 743 q 938 696 936 720 q 940 654 939 671 q 940 604 940 637 q 935 568 940 581 q 923 550 930 554 q 906 542 916 545 q 885 537 896 539 q 863 526 875 535 q 843 501 852 517 q 784 392 814 450 q 715 258 753 334 q 661 150 677 182 z "},"":{"ha":1000,"x_min":24,"x_max":970,"o":"m 542 594 q 481 379 481 594 l 481 357 q 482 309 481 328 q 484 261 482 291 q 490 212 486 231 q 500 173 494 193 q 518 143 507 153 q 545 134 530 134 q 608 376 608 134 q 606 452 608 420 q 597 520 604 484 q 577 575 591 555 q 542 594 564 594 m 482 5 q 485 -87 483 -35 q 487 -175 486 -140 q 488 -212 488 -209 q 479 -260 488 -249 q 439 -271 469 -271 q 382 -267 427 -271 q 301 -262 336 -262 q 67 -281 177 -262 q 35 -219 47 -268 q 24 -124 24 -171 q 30 -94 24 -102 q 58 -83 36 -85 q 103 -70 85 -81 q 132 -47 122 -60 q 146 -15 141 -35 q 152 19 151 5 q 153 55 153 33 q 151 207 153 103 q 150 359 150 310 q 151 525 150 410 q 153 692 153 639 q 152 728 153 715 q 146 762 151 742 q 132 795 141 783 q 103 818 122 807 q 58 831 85 828 q 30 841 36 833 q 24 871 24 849 q 35 967 24 918 q 67 1028 47 1015 q 301 1010 177 1010 q 382 1014 336 1010 q 439 1019 427 1019 q 479 1007 469 1019 q 488 960 488 996 q 487 909 488 957 q 483 800 485 861 q 481 704 481 739 q 645 743 559 743 q 767 720 709 743 q 871 656 825 697 q 943 552 916 615 q 970 413 970 489 q 947 269 970 336 q 885 153 925 201 q 793 70 846 104 q 680 17 741 35 q 555 0 619 0 q 482 5 516 0 z "},"":{"ha":964,"x_min":16,"x_max":940,"o":"m 253 848 q 235 866 253 848 q 218 937 218 884 q 253 1025 218 989 q 357 1061 288 1061 q 457 1024 424 1061 q 491 937 491 988 q 457 848 491 885 q 357 812 424 812 q 253 848 288 812 m 601 848 q 583 866 601 848 q 566 937 566 884 q 601 1025 566 989 q 705 1061 636 1061 q 805 1024 772 1061 q 839 937 839 988 q 805 848 839 885 q 705 812 772 812 q 601 848 636 812 m 661 150 q 523 -77 564 -19 q 366 -216 444 -188 q 294 -229 332 -229 q 210 -215 254 -229 q 131 -169 165 -200 q 96 -97 96 -137 q 106 -42 96 -67 q 140 -16 117 -16 q 252 -33 225 -33 q 287 -33 277 -33 q 313 -27 297 -33 q 335 -16 328 -22 q 356 9 341 -10 q 381 47 370 28 q 415 106 393 66 l 353 106 q 132 486 201 370 q 95 531 114 515 q 63 550 77 547 q 38 555 50 553 q 21 564 27 557 q 16 589 16 571 q 21 700 16 671 q 43 742 26 728 q 258 724 172 724 q 465 743 382 724 q 487 704 481 737 q 494 591 494 671 q 486 566 494 574 q 469 556 479 557 q 452 548 460 555 q 445 526 445 541 q 454 507 445 524 q 475 464 463 489 q 500 414 488 439 q 523 370 513 389 q 534 347 533 350 q 555 322 547 322 q 574 347 564 322 q 600 405 576 352 q 638 490 624 457 q 652 526 652 522 q 641 544 652 537 q 618 552 631 550 q 595 564 606 555 q 585 589 585 572 q 629 743 585 732 q 802 724 730 724 q 916 742 861 724 q 920 743 916 743 q 931 731 927 743 q 938 696 936 720 q 940 654 939 671 q 940 604 940 637 q 935 568 940 581 q 923 550 930 554 q 906 542 916 545 q 885 537 896 539 q 863 526 875 535 q 843 501 852 517 q 784 392 814 450 q 715 258 753 334 q 661 150 677 182 z "},"":{"ha":1282,"x_min":39,"x_max":1244,"o":"m 374 1099 q 349 1188 349 1099 q 380 1290 349 1290 q 514 1289 419 1290 q 665 1288 608 1288 l 825 1288 q 850 1269 843 1288 q 858 1196 858 1249 q 826 1098 858 1098 q 681 1098 781 1098 q 535 1097 581 1097 q 453 1098 507 1097 q 374 1099 399 1099 m 708 363 l 418 363 q 396 267 396 291 q 408 227 396 242 q 435 207 419 212 q 468 198 452 201 q 496 189 485 195 q 508 170 508 182 q 445 -9 508 22 q 262 0 378 0 q 80 -9 147 0 q 39 133 39 18 q 52 180 39 165 q 85 201 64 196 q 128 210 106 205 q 173 233 150 215 q 208 286 195 252 l 374 721 q 391 783 391 764 q 385 806 391 799 q 370 815 378 813 q 354 819 362 817 q 339 831 345 821 q 333 861 333 842 q 347 970 333 928 q 378 1019 361 1012 q 633 1010 494 1010 q 828 1019 762 1010 q 856 979 842 1015 l 1067 410 q 1134 263 1098 327 q 1192 199 1169 199 q 1211 196 1204 197 q 1226 189 1217 194 q 1240 176 1236 184 q 1244 154 1244 167 q 1230 55 1244 106 q 1191 -9 1216 3 q 975 0 1115 0 q 697 -9 789 0 q 658 55 672 3 q 644 154 644 106 q 649 176 644 167 q 662 189 653 184 q 677 196 670 194 q 696 199 684 198 q 731 259 731 200 q 708 363 731 310 m 678 478 q 608 680 665 518 q 600 703 606 688 q 591 730 594 722 q 584 747 588 738 q 578 760 581 756 q 573 763 575 763 q 546 707 567 763 l 462 478 l 678 478 z "}}}
